<svg width="1920" height="1080" viewBox="0 0 1920 1080" fill="none" xmlns="http://www.w3.org/2000/svg">
<g clip-path="url(#clip0_94_4134)">
<rect width="1920" height="1080" fill="#F1F3F2"/>
<path d="M1101.77 -1475.66C1896 -912.832 2083.6 187.28 1520.77 981.512C957.951 1775.74 -142.162 1963.34 -936.394 1400.51C-1730.63 837.69 -1918.22 -262.421 -1355.4 -1056.65C-792.571 -1850.89 307.54 -2038.48 1101.77 -1475.66ZM939.933 -826.088C323.324 -1263.04 -530.756 -1117.4 -967.708 -500.792C-1404.66 115.816 -1259.02 969.896 -642.413 1406.85C-25.8044 1843.8 828.276 1698.16 1265.23 1081.55C1702.18 464.945 1556.54 -389.135 939.933 -826.088Z" fill="#02B562"/>
<path d="M3338.98 964.307C3589.16 1437.35 3408.5 2023.63 2935.46 2273.82C2462.42 2524 1876.13 2343.33 1625.95 1870.29C1375.77 1397.25 1556.43 810.967 2029.47 560.786C2502.51 310.604 3088.8 491.267 3338.98 964.307ZM3164.37 958.601C2953.35 559.615 2458.85 407.235 2059.86 618.251C1660.87 829.267 1508.49 1323.77 1719.51 1722.76C1930.53 2121.74 2425.03 2274.12 2824.02 2063.11C3223 1852.09 3375.38 1357.59 3164.37 958.601Z" fill="#02B562"/>
<path d="M216.092 969.127L214.544 963.367H206.3L204.752 969.127H199.82L207.56 944.251H213.428L221.132 969.127H216.092ZM207.236 959.767H213.572L210.404 947.887L207.236 959.767ZM233.624 949.543C235.832 949.543 237.56 950.431 238.808 952.207C240.056 953.959 240.68 956.419 240.68 959.587C240.68 961.555 240.368 963.307 239.744 964.843C239.144 966.355 238.28 967.543 237.152 968.407C236.024 969.247 234.692 969.667 233.156 969.667C232.124 969.667 231.176 969.451 230.312 969.019C229.472 968.587 228.74 967.975 228.116 967.183L227.828 969.127H223.76V942.451L228.368 941.947V952.243C228.992 951.379 229.748 950.719 230.636 950.263C231.548 949.783 232.544 949.543 233.624 949.543ZM231.896 966.211C233.144 966.211 234.116 965.683 234.812 964.627C235.508 963.547 235.856 961.867 235.856 959.587C235.856 957.187 235.532 955.495 234.884 954.511C234.236 953.503 233.324 952.999 232.148 952.999C230.684 952.999 229.424 953.863 228.368 955.591V964.015C228.776 964.711 229.28 965.251 229.88 965.635C230.504 966.019 231.176 966.211 231.896 966.211ZM255.358 949.543C257.038 949.543 258.358 950.059 259.318 951.091C260.278 952.123 260.758 953.539 260.758 955.339V969.127H256.15V956.059C256.15 954.931 255.946 954.139 255.538 953.683C255.154 953.227 254.578 952.999 253.81 952.999C253.042 952.999 252.334 953.251 251.686 953.755C251.038 954.235 250.414 954.931 249.814 955.843V969.127H245.206V942.487L249.814 942.019V952.351C251.35 950.479 253.198 949.543 255.358 949.543ZM270.732 950.083V969.127H266.124V950.083H270.732ZM268.392 940.435C269.256 940.435 269.952 940.711 270.48 941.263C271.032 941.791 271.308 942.451 271.308 943.243C271.308 944.035 271.032 944.695 270.48 945.223C269.952 945.751 269.256 946.015 268.392 946.015C267.552 946.015 266.856 945.751 266.304 945.223C265.776 944.695 265.512 944.035 265.512 943.243C265.512 942.451 265.776 941.791 266.304 941.263C266.856 940.711 267.552 940.435 268.392 940.435ZM282.296 949.543C284.864 949.543 287.12 950.299 289.064 951.811L287.264 954.511C285.632 953.479 284.036 952.963 282.476 952.963C281.564 952.963 280.856 953.143 280.352 953.503C279.848 953.839 279.596 954.295 279.596 954.871C279.596 955.303 279.704 955.663 279.92 955.951C280.136 956.239 280.52 956.515 281.072 956.779C281.648 957.019 282.488 957.295 283.592 957.607C285.656 958.159 287.18 958.891 288.164 959.803C289.172 960.715 289.676 961.987 289.676 963.619C289.676 965.515 288.908 967.003 287.372 968.083C285.836 969.139 283.928 969.667 281.648 969.667C280.088 969.667 278.66 969.427 277.364 968.947C276.092 968.467 274.988 967.807 274.052 966.967L276.356 964.375C278.012 965.623 279.74 966.247 281.54 966.247C282.572 966.247 283.388 966.043 283.988 965.635C284.612 965.227 284.924 964.663 284.924 963.943C284.924 963.391 284.804 962.959 284.564 962.647C284.348 962.311 283.94 962.023 283.34 961.783C282.764 961.519 281.852 961.207 280.604 960.847C278.66 960.319 277.232 959.587 276.32 958.651C275.408 957.691 274.952 956.503 274.952 955.087C274.952 954.031 275.252 953.083 275.852 952.243C276.476 951.403 277.34 950.743 278.444 950.263C279.572 949.783 280.856 949.543 282.296 949.543ZM303.557 949.543C305.237 949.543 306.557 950.059 307.517 951.091C308.477 952.123 308.957 953.539 308.957 955.339V969.127H304.349V956.059C304.349 954.931 304.145 954.139 303.737 953.683C303.353 953.227 302.777 952.999 302.009 952.999C301.241 952.999 300.533 953.251 299.885 953.755C299.237 954.235 298.613 954.931 298.013 955.843V969.127H293.405V942.487L298.013 942.019V952.351C299.549 950.479 301.397 949.543 303.557 949.543ZM329.947 959.155C329.947 959.395 329.911 960.019 329.839 961.027H317.887C318.031 962.875 318.511 964.195 319.327 964.987C320.143 965.779 321.223 966.175 322.567 966.175C323.407 966.175 324.199 966.043 324.943 965.779C325.687 965.491 326.479 965.059 327.319 964.483L329.227 967.111C327.115 968.815 324.763 969.667 322.171 969.667C319.267 969.667 317.023 968.779 315.439 967.003C313.879 965.227 313.099 962.803 313.099 959.731C313.099 957.787 313.435 956.047 314.107 954.511C314.779 952.951 315.751 951.739 317.023 950.875C318.295 949.987 319.807 949.543 321.559 949.543C324.223 949.543 326.287 950.395 327.751 952.099C329.215 953.779 329.947 956.131 329.947 959.155ZM325.375 957.823C325.375 954.487 324.139 952.819 321.667 952.819C320.539 952.819 319.651 953.239 319.003 954.079C318.379 954.895 318.007 956.215 317.887 958.039H325.375V957.823ZM338.689 941.947V969.127H334.081V942.451L338.689 941.947ZM350.101 950.083L343.765 958.471L350.713 969.127H345.421L338.869 958.723L345.241 950.083H350.101Z" fill="#3A453F"/>
<line x1="411.5" y1="942.297" x2="411.5" y2="971.958" stroke="#3A453F"/>
<path d="M478.668 944.251V969.127H473.916V944.251H478.668ZM492.636 944.251L484.032 955.519L493.32 969.127H487.668L478.884 955.843L487.488 944.251H492.636ZM506.002 949.543C507.682 949.543 509.002 950.059 509.962 951.091C510.922 952.123 511.402 953.539 511.402 955.339V969.127H506.794V956.059C506.794 954.931 506.59 954.139 506.182 953.683C505.798 953.227 505.222 952.999 504.454 952.999C503.686 952.999 502.978 953.251 502.33 953.755C501.682 954.235 501.058 954.931 500.458 955.843V969.127H495.85V942.487L500.458 942.019V952.351C501.994 950.479 503.842 949.543 506.002 949.543ZM531.996 969.127H528L527.748 966.463C527.052 967.543 526.224 968.347 525.264 968.875C524.328 969.403 523.212 969.667 521.916 969.667C520.212 969.667 518.892 969.151 517.956 968.119C517.044 967.063 516.588 965.611 516.588 963.763V950.083H521.196V963.187C521.196 964.267 521.376 965.035 521.736 965.491C522.12 965.947 522.72 966.175 523.536 966.175C525 966.175 526.284 965.275 527.388 963.475V950.083H531.996V969.127ZM543.557 949.543C546.125 949.543 548.381 950.299 550.325 951.811L548.525 954.511C546.893 953.479 545.297 952.963 543.737 952.963C542.825 952.963 542.117 953.143 541.613 953.503C541.109 953.839 540.857 954.295 540.857 954.871C540.857 955.303 540.965 955.663 541.181 955.951C541.397 956.239 541.781 956.515 542.333 956.779C542.909 957.019 543.749 957.295 544.853 957.607C546.917 958.159 548.441 958.891 549.425 959.803C550.433 960.715 550.937 961.987 550.937 963.619C550.937 965.515 550.169 967.003 548.633 968.083C547.097 969.139 545.189 969.667 542.909 969.667C541.349 969.667 539.921 969.427 538.625 968.947C537.353 968.467 536.249 967.807 535.313 966.967L537.617 964.375C539.273 965.623 541.001 966.247 542.801 966.247C543.833 966.247 544.649 966.043 545.249 965.635C545.873 965.227 546.185 964.663 546.185 963.943C546.185 963.391 546.065 962.959 545.825 962.647C545.609 962.311 545.201 962.023 544.601 961.783C544.025 961.519 543.113 961.207 541.865 960.847C539.921 960.319 538.493 959.587 537.581 958.651C536.669 957.691 536.213 956.503 536.213 955.087C536.213 954.031 536.513 953.083 537.113 952.243C537.737 951.403 538.601 950.743 539.705 950.263C540.833 949.783 542.117 949.543 543.557 949.543ZM564.819 949.543C566.499 949.543 567.819 950.059 568.779 951.091C569.739 952.123 570.219 953.539 570.219 955.339V969.127H565.611V956.059C565.611 954.931 565.407 954.139 564.999 953.683C564.615 953.227 564.039 952.999 563.271 952.999C562.503 952.999 561.795 953.251 561.147 953.755C560.499 954.235 559.875 954.931 559.275 955.843V969.127H554.667V942.487L559.275 942.019V952.351C560.811 950.479 562.659 949.543 564.819 949.543ZM580.193 950.083V969.127H575.585V950.083H580.193ZM577.853 940.435C578.717 940.435 579.413 940.711 579.941 941.263C580.493 941.791 580.769 942.451 580.769 943.243C580.769 944.035 580.493 944.695 579.941 945.223C579.413 945.751 578.717 946.015 577.853 946.015C577.013 946.015 576.317 945.751 575.765 945.223C575.237 944.695 574.973 944.035 574.973 943.243C574.973 942.451 575.237 941.791 575.765 941.263C576.317 940.711 577.013 940.435 577.853 940.435Z" fill="#3A453F"/>
<line x1="643.5" y1="942.297" x2="643.5" y2="971.958" stroke="#3A453F"/>
<path d="M713.26 944.251C716.452 944.251 718.924 944.911 720.676 946.231C722.452 947.551 723.34 949.531 723.34 952.171C723.34 954.931 722.452 957.007 720.676 958.399C718.9 959.767 716.536 960.451 713.584 960.451H710.668V969.127H705.916V944.251H713.26ZM713.224 956.887C714.928 956.887 716.212 956.539 717.076 955.843C717.94 955.123 718.372 953.899 718.372 952.171C718.372 949.219 716.656 947.743 713.224 947.743H710.668V956.887H713.224ZM735.734 949.579C736.43 949.579 737.066 949.663 737.642 949.831L736.85 954.295C736.274 954.151 735.71 954.079 735.158 954.079C734.03 954.079 733.142 954.487 732.494 955.303C731.846 956.095 731.33 957.319 730.946 958.975V969.127H726.338V950.083H730.334L730.766 953.827C731.222 952.459 731.882 951.415 732.746 950.695C733.61 949.951 734.606 949.579 735.734 949.579ZM753.317 964.087C753.317 964.831 753.425 965.383 753.641 965.743C753.881 966.079 754.253 966.343 754.757 966.535L753.785 969.595C752.705 969.499 751.817 969.235 751.121 968.803C750.449 968.371 749.933 967.711 749.573 966.823C748.925 967.783 748.109 968.503 747.125 968.983C746.165 969.439 745.085 969.667 743.885 969.667C741.989 969.667 740.489 969.127 739.385 968.047C738.281 966.967 737.729 965.551 737.729 963.799C737.729 961.735 738.473 960.163 739.961 959.083C741.473 957.979 743.621 957.427 746.405 957.427H748.781V956.347C748.781 955.123 748.493 954.271 747.917 953.791C747.365 953.287 746.465 953.035 745.217 953.035C743.825 953.035 742.145 953.371 740.177 954.043L739.097 950.911C741.473 949.999 743.777 949.543 746.009 949.543C750.881 949.543 753.317 951.727 753.317 956.095V964.087ZM745.109 966.319C746.669 966.319 747.893 965.539 748.781 963.979V960.127H746.873C743.897 960.127 742.409 961.231 742.409 963.439C742.409 964.351 742.637 965.059 743.093 965.563C743.549 966.067 744.221 966.319 745.109 966.319ZM774.913 942.451V969.127H770.845L770.521 966.715C769.921 967.627 769.153 968.347 768.217 968.875C767.305 969.403 766.261 969.667 765.085 969.667C762.757 969.667 760.969 968.767 759.721 966.967C758.473 965.167 757.849 962.719 757.849 959.623C757.849 957.679 758.161 955.951 758.785 954.439C759.409 952.903 760.297 951.703 761.449 950.839C762.625 949.975 763.981 949.543 765.517 949.543C767.341 949.543 768.937 950.227 770.305 951.595V941.947L774.913 942.451ZM766.381 966.175C767.197 966.175 767.917 965.983 768.541 965.599C769.165 965.191 769.753 964.567 770.305 963.727V955.015C769.753 954.343 769.189 953.839 768.613 953.503C768.061 953.167 767.413 952.999 766.669 952.999C765.445 952.999 764.473 953.551 763.753 954.655C763.057 955.735 762.709 957.379 762.709 959.587C762.709 961.939 763.021 963.631 763.645 964.663C764.269 965.671 765.181 966.175 766.381 966.175ZM795.672 969.127H791.676L791.424 966.463C790.728 967.543 789.9 968.347 788.94 968.875C788.004 969.403 786.888 969.667 785.592 969.667C783.888 969.667 782.568 969.151 781.632 968.119C780.72 967.063 780.264 965.611 780.264 963.763V950.083H784.872V963.187C784.872 964.267 785.052 965.035 785.412 965.491C785.796 965.947 786.396 966.175 787.212 966.175C788.676 966.175 789.96 965.275 791.064 963.475V950.083H795.672V969.127ZM821.417 949.543C822.953 949.543 824.177 950.071 825.089 951.127C826.001 952.159 826.457 953.563 826.457 955.339V969.127H821.849V956.059C821.849 954.019 821.153 952.999 819.761 952.999C819.017 952.999 818.369 953.239 817.817 953.719C817.289 954.175 816.737 954.895 816.161 955.879V969.127H811.553V956.059C811.553 954.019 810.857 952.999 809.465 952.999C808.697 952.999 808.037 953.239 807.485 953.719C806.957 954.175 806.405 954.895 805.829 955.879V969.127H801.221V950.083H805.217L805.577 952.567C807.017 950.551 808.853 949.543 811.085 949.543C812.189 949.543 813.137 949.831 813.929 950.407C814.745 950.959 815.333 951.739 815.693 952.747C816.461 951.715 817.301 950.923 818.213 950.371C819.149 949.819 820.217 949.543 821.417 949.543ZM841.959 949.543C843.663 949.543 844.983 950.059 845.919 951.091C846.879 952.099 847.359 953.515 847.359 955.339V969.127H842.751V956.059C842.751 954.931 842.547 954.139 842.139 953.683C841.755 953.227 841.179 952.999 840.411 952.999C839.619 952.999 838.899 953.251 838.251 953.755C837.627 954.235 837.015 954.943 836.415 955.879V969.127H831.807V950.083H835.803L836.163 952.567C837.723 950.551 839.655 949.543 841.959 949.543Z" fill="#3A453F"/>
<line x1="910.5" y1="942.297" x2="910.5" y2="971.958" stroke="#3A453F"/>
<path d="M980.08 943.711C981.832 943.711 983.356 943.963 984.652 944.467C985.948 944.971 987.16 945.739 988.288 946.771L985.948 949.471C985.06 948.727 984.16 948.187 983.248 947.851C982.36 947.515 981.4 947.347 980.368 947.347C979.216 947.347 978.28 947.611 977.56 948.139C976.864 948.643 976.516 949.363 976.516 950.299C976.516 950.923 976.648 951.439 976.912 951.847C977.2 952.255 977.704 952.639 978.424 952.999C979.144 953.359 980.212 953.755 981.628 954.187C984.076 954.955 985.912 955.915 987.136 957.067C988.384 958.195 989.008 959.851 989.008 962.035C989.008 963.523 988.624 964.843 987.856 965.995C987.112 967.147 986.032 968.047 984.616 968.695C983.2 969.343 981.52 969.667 979.576 969.667C977.68 969.667 975.976 969.367 974.464 968.767C972.976 968.143 971.692 967.303 970.612 966.247L973.06 963.511C974.02 964.327 975.016 964.951 976.048 965.383C977.08 965.791 978.22 965.995 979.468 965.995C980.836 965.995 981.94 965.671 982.78 965.023C983.62 964.375 984.04 963.463 984.04 962.287C984.04 961.567 983.896 960.979 983.608 960.523C983.32 960.043 982.828 959.623 982.132 959.263C981.436 958.879 980.428 958.483 979.108 958.075C976.468 957.259 974.56 956.275 973.384 955.123C972.208 953.971 971.62 952.459 971.62 950.587C971.62 949.219 971.98 948.019 972.7 946.987C973.42 945.955 974.416 945.151 975.688 944.575C976.984 943.999 978.448 943.711 980.08 943.711ZM1006.99 964.087C1006.99 964.831 1007.1 965.383 1007.32 965.743C1007.56 966.079 1007.93 966.343 1008.43 966.535L1007.46 969.595C1006.38 969.499 1005.49 969.235 1004.8 968.803C1004.12 968.371 1003.61 967.711 1003.25 966.823C1002.6 967.783 1001.78 968.503 1000.8 968.983C999.841 969.439 998.761 969.667 997.561 969.667C995.665 969.667 994.165 969.127 993.061 968.047C991.957 966.967 991.405 965.551 991.405 963.799C991.405 961.735 992.149 960.163 993.637 959.083C995.149 957.979 997.297 957.427 1000.08 957.427H1002.46V956.347C1002.46 955.123 1002.17 954.271 1001.59 953.791C1001.04 953.287 1000.14 953.035 998.893 953.035C997.501 953.035 995.821 953.371 993.853 954.043L992.773 950.911C995.149 949.999 997.453 949.543 999.685 949.543C1004.56 949.543 1006.99 951.727 1006.99 956.095V964.087ZM998.785 966.319C1000.34 966.319 1001.57 965.539 1002.46 963.979V960.127H1000.55C997.573 960.127 996.085 961.231 996.085 963.439C996.085 964.351 996.313 965.059 996.769 965.563C997.225 966.067 997.897 966.319 998.785 966.319ZM1017.18 950.083V969.127H1012.57V950.083H1017.18ZM1014.84 940.435C1015.7 940.435 1016.4 940.711 1016.92 941.263C1017.48 941.791 1017.75 942.451 1017.75 943.243C1017.75 944.035 1017.48 944.695 1016.92 945.223C1016.4 945.751 1015.7 946.015 1014.84 946.015C1014 946.015 1013.3 945.751 1012.75 945.223C1012.22 944.695 1011.96 944.035 1011.96 943.243C1011.96 942.451 1012.22 941.791 1012.75 941.263C1013.3 940.711 1014 940.435 1014.84 940.435ZM1038.35 959.155C1038.35 959.395 1038.32 960.019 1038.25 961.027H1026.29C1026.44 962.875 1026.92 964.195 1027.73 964.987C1028.55 965.779 1029.63 966.175 1030.97 966.175C1031.81 966.175 1032.61 966.043 1033.35 965.779C1034.09 965.491 1034.89 965.059 1035.73 964.483L1037.63 967.111C1035.52 968.815 1033.17 969.667 1030.58 969.667C1027.67 969.667 1025.43 968.779 1023.85 967.003C1022.29 965.227 1021.51 962.803 1021.51 959.731C1021.51 957.787 1021.84 956.047 1022.51 954.511C1023.19 952.951 1024.16 951.739 1025.43 950.875C1026.7 949.987 1028.21 949.543 1029.97 949.543C1032.63 949.543 1034.69 950.395 1036.16 952.099C1037.62 953.779 1038.35 956.131 1038.35 959.155ZM1033.78 957.823C1033.78 954.487 1032.55 952.819 1030.07 952.819C1028.95 952.819 1028.06 953.239 1027.41 954.079C1026.79 954.895 1026.41 956.215 1026.29 958.039H1033.78V957.823Z" fill="#3A453F"/>
<path d="M217.44 796.452V793.188H217.344C216.8 795.268 214.528 796.836 211.136 796.836C205.664 796.836 201.856 792.772 201.856 785.284C201.856 777.86 205.632 773.732 211.36 773.732C215.36 773.732 218.048 775.716 219.488 778.628L217.28 779.972C216.256 777.604 214.176 776.132 211.36 776.132C207.424 776.132 204.736 779.044 204.736 783.46V787.076C204.736 791.492 207.36 794.436 211.616 794.436C214.72 794.436 217.312 792.836 217.312 789.54V787.332H212.384V784.964H219.936V796.452H217.44ZM235.146 796.452V793.764H235.018C234.378 795.332 233.13 796.836 230.378 796.836C226.986 796.836 224.81 794.532 224.81 790.532V779.94H227.37V790.084C227.37 793.028 228.682 794.532 231.146 794.532C233.162 794.532 235.146 793.54 235.146 791.364V779.94H237.706V796.452H235.146ZM244.438 776.068C243.35 776.068 242.87 775.492 242.87 774.628V774.212C242.87 773.348 243.35 772.772 244.438 772.772C245.526 772.772 246.006 773.348 246.006 774.212V774.628C246.006 775.492 245.526 776.068 244.438 776.068ZM243.158 796.452V779.94H245.718V796.452H243.158ZM261.718 796.452V793.764H261.59C260.598 795.812 259.03 796.836 256.758 796.836C252.63 796.836 250.038 793.476 250.038 788.196C250.038 782.916 252.63 779.556 256.758 779.556C259.03 779.556 260.726 780.548 261.59 782.628H261.718V772.772H264.278V796.452H261.718ZM257.462 794.532C259.798 794.532 261.718 793.316 261.718 791.172V785.028C261.718 783.204 259.798 781.86 257.462 781.86C254.582 781.86 252.79 783.844 252.79 786.788V789.604C252.79 792.548 254.582 794.532 257.462 794.532ZM275.928 796.836C271.448 796.836 268.504 793.444 268.504 788.196C268.504 782.948 271.448 779.556 275.928 779.556C280.344 779.556 283.064 782.948 283.064 787.62V788.836H271.192V789.604C271.192 792.452 273.016 794.596 276.088 794.596C278.168 794.596 279.768 793.572 280.632 791.748L282.456 793.06C281.4 795.3 279.032 796.836 275.928 796.836ZM275.928 781.7C273.144 781.7 271.192 783.812 271.192 786.692V786.916H280.312V786.564C280.312 783.652 278.552 781.7 275.928 781.7ZM297.843 796.452V793.764H297.715C296.723 795.812 295.155 796.836 292.883 796.836C288.755 796.836 286.163 793.476 286.163 788.196C286.163 782.916 288.755 779.556 292.883 779.556C295.155 779.556 296.851 780.548 297.715 782.628H297.843V772.772H300.403V796.452H297.843ZM293.587 794.532C295.923 794.532 297.843 793.316 297.843 791.172V785.028C297.843 783.204 295.923 781.86 293.587 781.86C290.707 781.86 288.915 783.844 288.915 786.788V789.604C288.915 792.548 290.707 794.532 293.587 794.532ZM313.408 796.452V772.772H315.968V782.628H316.096C316.96 780.548 318.656 779.556 320.928 779.556C325.056 779.556 327.648 782.916 327.648 788.196C327.648 793.476 325.056 796.836 320.928 796.836C318.656 796.836 317.088 795.812 316.096 793.764H315.968V796.452H313.408ZM320.224 794.532C323.104 794.532 324.896 792.548 324.896 789.604V786.788C324.896 783.844 323.104 781.86 320.224 781.86C317.888 781.86 315.968 783.204 315.968 785.028V791.172C315.968 793.316 317.888 794.532 320.224 794.532ZM337.99 791.172L341.99 779.94H344.518L337.126 800.292C336.39 802.276 335.718 802.852 333.286 802.852H331.974V800.612H334.566L335.814 797.092L329.638 779.94H332.198L336.166 791.172L336.934 793.86H337.094L337.99 791.172ZM358.289 796.452H355.601V774.116H364.497C368.497 774.116 370.737 776.58 370.737 780.516C370.737 784.452 368.497 786.916 364.497 786.916H358.289V796.452ZM358.289 776.484V784.548H364.497C366.609 784.548 367.857 783.396 367.857 781.348V779.684C367.857 777.636 366.609 776.484 364.497 776.484H358.289ZM376.999 796.452H374.439V779.94H376.999V782.98H377.159C377.735 781.412 379.239 779.94 381.927 779.94H382.919V782.5H381.415C378.663 782.5 376.999 783.684 376.999 785.252V796.452ZM392.273 796.836C387.857 796.836 384.817 793.444 384.817 788.196C384.817 782.948 387.857 779.556 392.273 779.556C396.689 779.556 399.729 782.948 399.729 788.196C399.729 793.444 396.689 796.836 392.273 796.836ZM392.273 794.564C395.025 794.564 396.977 792.868 396.977 789.38V787.012C396.977 783.524 395.025 781.828 392.273 781.828C389.521 781.828 387.569 783.524 387.569 787.012V789.38C387.569 792.868 389.521 794.564 392.273 794.564ZM404.647 796.452V782.18H401.959V779.94H404.647V776.612C404.647 774.34 405.831 772.772 408.263 772.772H410.759V775.012H407.207V779.94H410.759V782.18H407.207V796.452H404.647ZM414.79 796.836C413.446 796.836 412.838 796.068 412.838 794.98V794.564C412.838 793.476 413.446 792.708 414.79 792.708C416.134 792.708 416.742 793.476 416.742 794.564V794.98C416.742 796.068 416.134 796.836 414.79 796.836ZM438.047 796.452H434.783L427.359 774.116H430.239L433.919 785.38L436.383 793.764H436.543L439.071 785.38L442.783 774.116H445.567L438.047 796.452ZM450.219 776.068C449.131 776.068 448.651 775.492 448.651 774.628V774.212C448.651 773.348 449.131 772.772 450.219 772.772C451.307 772.772 451.787 773.348 451.787 774.212V774.628C451.787 775.492 451.307 776.068 450.219 776.068ZM448.939 796.452V779.94H451.499V796.452H448.939ZM467.499 796.452V793.764H467.371C466.379 795.812 464.811 796.836 462.539 796.836C458.411 796.836 455.819 793.476 455.819 788.196C455.819 782.916 458.411 779.556 462.539 779.556C464.811 779.556 466.507 780.548 467.371 782.628H467.499V772.772H470.059V796.452H467.499ZM463.243 794.532C465.579 794.532 467.499 793.316 467.499 791.172V785.028C467.499 783.204 465.579 781.86 463.243 781.86C460.363 781.86 458.571 783.844 458.571 786.788V789.604C458.571 792.548 460.363 794.532 463.243 794.532ZM481.677 791.172L485.677 779.94H488.205L480.813 800.292C480.077 802.276 479.405 802.852 476.973 802.852H475.661V800.612H478.253L479.501 797.092L473.325 779.94H475.885L479.853 791.172L480.621 793.86H480.781L481.677 791.172ZM504.472 796.452H503.033C501.145 796.452 500.377 795.3 500.185 793.764H500.025C499.321 795.78 497.561 796.836 495.257 796.836C491.769 796.836 489.721 794.916 489.721 791.844C489.721 788.74 491.961 787.012 496.76 787.012H500.025V785.38C500.025 783.044 498.745 781.764 496.121 781.764C494.137 781.764 492.825 782.724 491.929 784.228L490.393 782.788C491.289 781.028 493.273 779.556 496.249 779.556C500.217 779.556 502.585 781.636 502.585 785.124V794.212H504.472V796.452ZM495.673 794.66C498.201 794.66 500.025 793.348 500.025 791.652V788.932H496.633C493.721 788.932 492.409 789.828 492.409 791.428V792.1C492.409 793.732 493.689 794.66 495.673 794.66ZM531.017 796.452L528.617 793.828C527.721 794.948 525.737 796.836 522.121 796.836C517.705 796.836 515.273 794.084 515.273 790.66C515.273 787.332 517.545 785.604 519.849 784.356C518.313 782.756 517.321 781.092 517.321 779.108C517.321 776.1 519.625 773.732 523.113 773.732C526.281 773.732 528.489 775.684 528.489 778.532C528.489 781.476 526.185 783.14 523.369 784.708L528.393 790.116C529.033 788.484 529.353 786.596 529.449 784.708H533.801V786.884H531.529C531.241 788.74 530.697 790.404 529.993 791.812L534.345 796.452H531.017ZM522.985 775.876C521.161 775.876 519.849 777.188 519.849 778.884V779.268C519.849 780.548 520.713 781.828 521.993 783.268C524.009 782.18 526.025 780.74 526.025 778.98V778.596C526.025 776.868 524.617 775.876 522.985 775.876ZM522.345 794.596C524.489 794.596 526.057 793.7 527.177 792.292L521.193 785.828C519.465 786.756 517.929 787.812 517.929 790.308V790.788C517.929 793.124 519.657 794.596 522.345 794.596ZM548.414 796.452H545.726V774.116H554.622C558.622 774.116 560.862 776.58 560.862 780.516C560.862 784.452 558.622 786.916 554.622 786.916H548.414V796.452ZM548.414 776.484V784.548H554.622C556.734 784.548 557.982 783.396 557.982 781.348V779.684C557.982 777.636 556.734 776.484 554.622 776.484H548.414ZM567.124 796.452H564.564V779.94H567.124V782.98H567.284C567.86 781.412 569.364 779.94 572.052 779.94H573.044V782.5H571.54C568.788 782.5 567.124 783.684 567.124 785.252V796.452ZM582.398 796.836C577.982 796.836 574.942 793.444 574.942 788.196C574.942 782.948 577.982 779.556 582.398 779.556C586.814 779.556 589.854 782.948 589.854 788.196C589.854 793.444 586.814 796.836 582.398 796.836ZM582.398 794.564C585.15 794.564 587.102 792.868 587.102 789.38V787.012C587.102 783.524 585.15 781.828 582.398 781.828C579.646 781.828 577.694 783.524 577.694 787.012V789.38C577.694 792.868 579.646 794.564 582.398 794.564ZM594.772 796.452V782.18H592.084V779.94H594.772V776.612C594.772 774.34 595.956 772.772 598.388 772.772H600.884V775.012H597.332V779.94H600.884V782.18H597.332V796.452H594.772ZM604.915 796.836C603.571 796.836 602.963 796.068 602.963 794.98V794.564C602.963 793.476 603.571 792.708 604.915 792.708C606.259 792.708 606.867 793.476 606.867 794.564V794.98C606.867 796.068 606.259 796.836 604.915 796.836ZM625.9 796.452H622.924L617.484 774.116H620.332L622.732 784.868L624.588 793.22H624.652L626.732 784.868L629.548 774.116H632.62L635.34 784.868L637.42 793.188H637.516L639.436 784.868L641.964 774.116H644.716L638.988 796.452H636.012L633.1 785.316L631.052 777.124H630.988L628.876 785.316L625.9 796.452ZM650.311 796.452H647.751V779.94H650.311V782.98H650.471C651.047 781.412 652.551 779.94 655.239 779.94H656.231V782.5H654.727C651.975 782.5 650.311 783.684 650.311 785.252V796.452ZM660.781 776.068C659.693 776.068 659.213 775.492 659.213 774.628V774.212C659.213 773.348 659.693 772.772 660.781 772.772C661.869 772.772 662.349 773.348 662.349 774.212V774.628C662.349 775.492 661.869 776.068 660.781 776.068ZM659.501 796.452V779.94H662.061V796.452H659.501ZM673.645 796.836C669.005 796.836 666.285 793.476 666.285 788.196C666.285 782.916 669.005 779.556 673.645 779.556C676.909 779.556 678.861 781.156 679.821 783.428L677.677 784.516C677.069 782.82 675.661 781.828 673.645 781.828C670.605 781.828 669.037 783.908 669.037 786.788V789.604C669.037 792.484 670.605 794.564 673.645 794.564C675.725 794.564 677.229 793.572 678.125 791.684L679.981 792.932C678.925 795.3 676.781 796.836 673.645 796.836ZM683.595 796.452V772.772H686.155V782.628H686.283C687.083 780.772 688.491 779.556 690.955 779.556C694.347 779.556 696.491 781.86 696.491 785.86V796.452H693.931V786.308C693.931 783.364 692.651 781.86 690.187 781.86C688.139 781.86 686.155 782.884 686.155 784.996V796.452H683.595ZM715.222 796.452H713.783C711.895 796.452 711.127 795.3 710.935 793.764H710.775C710.071 795.78 708.311 796.836 706.007 796.836C702.519 796.836 700.471 794.916 700.471 791.844C700.471 788.74 702.711 787.012 707.51 787.012H710.775V785.38C710.775 783.044 709.495 781.764 706.871 781.764C704.887 781.764 703.575 782.724 702.679 784.228L701.143 782.788C702.039 781.028 704.023 779.556 706.999 779.556C710.967 779.556 713.335 781.636 713.335 785.124V794.212H715.222V796.452ZM706.423 794.66C708.951 794.66 710.775 793.348 710.775 791.652V788.932H707.383C704.471 788.932 703.159 789.828 703.159 791.428V792.1C703.159 793.732 704.439 794.66 706.423 794.66Z" fill="#3A453F"/>
<path d="M203.696 743V709.496H216.32C219.296 709.496 221.888 710.12 224.096 711.368C226.304 712.616 228.016 714.488 229.232 716.984C230.448 719.448 231.056 722.536 231.056 726.248C231.056 729.96 230.448 733.064 229.232 735.56C228.016 738.024 226.304 739.88 224.096 741.128C221.888 742.376 219.296 743 216.32 743H203.696ZM210.992 736.52H216.32C217.76 736.52 219.008 736.248 220.064 735.704C221.12 735.16 221.92 734.328 222.464 733.208C223.04 732.056 223.328 730.6 223.328 728.84V723.656C223.328 721.864 223.04 720.408 222.464 719.288C221.92 718.168 221.12 717.336 220.064 716.792C219.008 716.248 217.76 715.976 216.32 715.976H210.992V736.52ZM247.293 743.576C244.733 743.576 242.541 743.048 240.717 741.992C238.925 740.904 237.549 739.368 236.589 737.384C235.661 735.4 235.197 733.064 235.197 730.376C235.197 727.72 235.645 725.416 236.541 723.464C237.469 721.48 238.813 719.944 240.573 718.856C242.333 717.768 244.477 717.224 247.005 717.224C249.789 717.224 252.029 717.832 253.725 719.048C255.453 720.232 256.717 721.8 257.517 723.752C258.317 725.704 258.717 727.816 258.717 730.088V732.2H242.541V732.584C242.541 734.248 242.989 735.576 243.885 736.568C244.813 737.528 246.221 738.008 248.109 738.008C249.613 738.008 250.813 737.704 251.709 737.096C252.637 736.488 253.501 735.784 254.301 734.984L257.853 739.4C256.733 740.68 255.261 741.704 253.437 742.472C251.645 743.208 249.597 743.576 247.293 743.576ZM247.149 722.456C246.189 722.456 245.357 722.68 244.653 723.128C243.981 723.544 243.453 724.136 243.069 724.904C242.717 725.672 242.541 726.584 242.541 727.64V728.024H251.373V727.592C251.373 726.568 251.213 725.672 250.893 724.904C250.605 724.136 250.141 723.544 249.501 723.128C248.893 722.68 248.109 722.456 247.149 722.456ZM272.278 743.576C269.846 743.576 267.798 743.192 266.134 742.424C264.47 741.624 262.982 740.504 261.67 739.064L265.846 734.84C266.742 735.832 267.734 736.616 268.822 737.192C269.91 737.768 271.142 738.056 272.518 738.056C273.926 738.056 274.902 737.848 275.446 737.432C275.99 736.984 276.262 736.392 276.262 735.656C276.262 735.016 276.054 734.536 275.638 734.216C275.254 733.896 274.614 733.672 273.718 733.544L270.982 733.208C269.094 732.952 267.51 732.504 266.23 731.864C264.982 731.224 264.038 730.376 263.398 729.32C262.79 728.232 262.486 726.936 262.486 725.432C262.486 723 263.366 721.032 265.126 719.528C266.886 717.992 269.27 717.224 272.278 717.224C274.038 717.224 275.526 717.384 276.742 717.704C277.958 717.992 279.014 718.44 279.91 719.048C280.838 719.624 281.718 720.328 282.55 721.16L278.47 725.336C277.67 724.536 276.758 723.912 275.734 723.464C274.742 722.984 273.718 722.744 272.662 722.744C271.478 722.744 270.614 722.936 270.07 723.32C269.558 723.704 269.302 724.216 269.302 724.856C269.302 725.528 269.478 726.056 269.83 726.44C270.214 726.792 270.918 727.048 271.942 727.208L274.774 727.592C277.526 727.944 279.59 728.76 280.966 730.04C282.374 731.288 283.078 733 283.078 735.176C283.078 736.776 282.63 738.216 281.734 739.496C280.838 740.776 279.574 741.784 277.942 742.52C276.342 743.224 274.454 743.576 272.278 743.576ZM291.473 715.112C290.033 715.112 288.977 714.776 288.305 714.104C287.665 713.432 287.345 712.6 287.345 711.608V710.552C287.345 709.528 287.665 708.696 288.305 708.056C288.977 707.384 290.033 707.048 291.473 707.048C292.913 707.048 293.953 707.384 294.593 708.056C295.265 708.696 295.601 709.528 295.601 710.552V711.608C295.601 712.6 295.265 713.432 294.593 714.104C293.953 714.776 292.913 715.112 291.473 715.112ZM287.921 743V717.8H295.025V743H287.921ZM324.984 744.824C324.984 746.584 324.552 748.088 323.688 749.336C322.856 750.584 321.448 751.528 319.464 752.168C317.48 752.84 314.776 753.176 311.352 753.176C308.44 753.176 306.104 752.936 304.344 752.456C302.616 752.008 301.352 751.336 300.552 750.44C299.784 749.576 299.4 748.536 299.4 747.32C299.4 745.912 299.816 744.808 300.648 744.008C301.48 743.208 302.632 742.712 304.104 742.52V741.992C302.92 741.768 302.008 741.256 301.368 740.456C300.76 739.624 300.456 738.664 300.456 737.576C300.456 736.264 300.936 735.256 301.896 734.552C302.888 733.816 303.976 733.336 305.16 733.112V732.92C303.656 732.216 302.52 731.256 301.752 730.04C301.016 728.792 300.648 727.352 300.648 725.72C300.648 724.024 301.048 722.536 301.848 721.256C302.648 719.976 303.848 718.984 305.448 718.28C307.048 717.576 309.048 717.224 311.448 717.224C312.248 717.224 313 717.272 313.704 717.368C314.44 717.432 315.112 717.544 315.72 717.704V716.744C315.72 715.432 316.056 714.472 316.728 713.864C317.4 713.256 318.328 712.952 319.512 712.952H323.496V718.232H317.928V718.52C319.4 719.224 320.488 720.2 321.192 721.448C321.896 722.696 322.248 724.12 322.248 725.72C322.248 727.384 321.848 728.856 321.048 730.136C320.28 731.384 319.096 732.36 317.496 733.064C315.896 733.736 313.88 734.072 311.448 734.072C310.616 734.072 309.816 734.024 309.048 733.928C308.312 733.832 307.624 733.704 306.984 733.544C306.664 733.768 306.392 734.056 306.168 734.408C305.976 734.728 305.88 735.112 305.88 735.56C305.88 736.168 306.104 736.648 306.552 737C307.032 737.32 307.816 737.48 308.904 737.48H316.2C319.272 737.48 321.496 738.12 322.872 739.4C324.28 740.68 324.984 742.488 324.984 744.824ZM318.312 745.784C318.312 745.048 318.008 744.488 317.4 744.104C316.824 743.72 315.832 743.528 314.424 743.528H305.784C305.464 743.848 305.224 744.2 305.064 744.584C304.936 745 304.872 745.4 304.872 745.784C304.872 746.68 305.272 747.352 306.072 747.8C306.872 748.248 308.232 748.472 310.152 748.472H313.032C314.952 748.472 316.312 748.248 317.112 747.8C317.912 747.352 318.312 746.68 318.312 745.784ZM311.448 729.416C312.856 729.416 313.896 729.112 314.568 728.504C315.272 727.896 315.624 727.048 315.624 725.96V725.384C315.624 724.264 315.272 723.416 314.568 722.84C313.896 722.232 312.856 721.928 311.448 721.928C310.072 721.928 309.032 722.232 308.328 722.84C307.624 723.416 307.272 724.264 307.272 725.384V725.96C307.272 727.048 307.624 727.896 308.328 728.504C309.032 729.112 310.072 729.416 311.448 729.416ZM335.244 743H328.14V717.8H335.244V722.072H335.532C335.98 720.76 336.764 719.624 337.884 718.664C339.004 717.704 340.556 717.224 342.54 717.224C345.1 717.224 347.052 718.104 348.396 719.864C349.74 721.592 350.412 724.04 350.412 727.208V743H343.308V727.784C343.308 726.184 343.052 724.984 342.54 724.184C342.028 723.384 341.116 722.984 339.804 722.984C339.036 722.984 338.3 723.128 337.596 723.416C336.924 723.672 336.364 724.072 335.916 724.616C335.468 725.16 335.244 725.848 335.244 726.68V743ZM391.262 743H368.462V709.496H391.262V715.976H375.758V722.84H389.054V729.272H375.758V736.52H391.262V743ZM411.058 743H402.61L394.354 717.8H401.362L404.482 727.976L406.834 737.096H407.218L409.57 727.976L412.594 717.8H419.314L411.058 743ZM445.2 743H441.264C440.4 743 439.584 742.792 438.816 742.376C438.08 741.928 437.488 741.288 437.04 740.456C436.592 739.592 436.368 738.568 436.368 737.384V736.76L437.904 738.584H436.176C435.792 740.216 434.944 741.464 433.632 742.328C432.32 743.16 430.704 743.576 428.784 743.576C426.256 743.576 424.32 742.904 422.976 741.56C421.632 740.184 420.96 738.408 420.96 736.232C420.96 734.44 421.392 732.968 422.256 731.816C423.152 730.664 424.4 729.8 426 729.224C427.632 728.648 429.552 728.36 431.76 728.36H435.744V726.776C435.744 725.56 435.424 724.6 434.784 723.896C434.144 723.16 433.072 722.792 431.568 722.792C430.16 722.792 429.04 723.096 428.208 723.704C427.376 724.312 426.688 725 426.144 725.768L421.92 722.024C422.944 720.52 424.24 719.352 425.808 718.52C427.376 717.656 429.472 717.224 432.096 717.224C435.648 717.224 438.32 718.024 440.112 719.624C441.936 721.192 442.848 723.464 442.848 726.44V737.48H445.2V743ZM435.744 732.392H432.288C430.912 732.392 429.872 732.632 429.168 733.112C428.464 733.592 428.112 734.296 428.112 735.224V735.944C428.112 736.84 428.4 737.512 428.976 737.96C429.552 738.408 430.368 738.632 431.424 738.632C432.224 738.632 432.944 738.52 433.584 738.296C434.224 738.072 434.736 737.72 435.12 737.24C435.536 736.76 435.744 736.136 435.744 735.368V732.392ZM460.24 743H457.024C454.592 743 452.8 742.408 451.648 741.224C450.528 740.04 449.968 738.328 449.968 736.088V707.48H457.072V737.48H460.24V743ZM479.38 743V738.776H479.14C478.724 740.056 477.956 741.176 476.836 742.136C475.748 743.096 474.164 743.576 472.084 743.576C469.524 743.576 467.572 742.712 466.228 740.984C464.884 739.256 464.212 736.808 464.212 733.64V717.8H471.316V733.016C471.316 734.552 471.588 735.736 472.132 736.568C472.708 737.4 473.636 737.816 474.916 737.816C475.652 737.816 476.356 737.688 477.028 737.432C477.732 737.144 478.292 736.728 478.708 736.184C479.156 735.64 479.38 734.968 479.38 734.168V717.8H486.484V743H479.38ZM515.653 743H511.717C510.853 743 510.037 742.792 509.269 742.376C508.533 741.928 507.941 741.288 507.493 740.456C507.045 739.592 506.821 738.568 506.821 737.384V736.76L508.357 738.584H506.629C506.245 740.216 505.397 741.464 504.085 742.328C502.773 743.16 501.157 743.576 499.237 743.576C496.709 743.576 494.773 742.904 493.429 741.56C492.085 740.184 491.413 738.408 491.413 736.232C491.413 734.44 491.845 732.968 492.709 731.816C493.605 730.664 494.853 729.8 496.453 729.224C498.085 728.648 500.005 728.36 502.213 728.36H506.197V726.776C506.197 725.56 505.877 724.6 505.237 723.896C504.597 723.16 503.525 722.792 502.021 722.792C500.613 722.792 499.493 723.096 498.661 723.704C497.829 724.312 497.141 725 496.597 725.768L492.373 722.024C493.397 720.52 494.693 719.352 496.261 718.52C497.829 717.656 499.925 717.224 502.549 717.224C506.101 717.224 508.773 718.024 510.565 719.624C512.389 721.192 513.301 723.464 513.301 726.44V737.48H515.653V743ZM506.197 732.392H502.741C501.365 732.392 500.325 732.632 499.621 733.112C498.917 733.592 498.565 734.296 498.565 735.224V735.944C498.565 736.84 498.853 737.512 499.429 737.96C500.005 738.408 500.821 738.632 501.877 738.632C502.677 738.632 503.397 738.52 504.037 738.296C504.677 738.072 505.189 737.72 505.573 737.24C505.989 736.76 506.197 736.136 506.197 735.368V732.392ZM533.196 743H528.972C526.54 743 524.684 742.376 523.404 741.128C522.124 739.88 521.484 738.056 521.484 735.656V723.32H517.932V717.8H519.708C520.668 717.8 521.324 717.576 521.676 717.128C522.028 716.648 522.204 715.976 522.204 715.112V710.984H528.588V717.8H533.58V723.32H528.588V737.48H533.196V743ZM542.067 715.112C540.627 715.112 539.571 714.776 538.899 714.104C538.259 713.432 537.939 712.6 537.939 711.608V710.552C537.939 709.528 538.259 708.696 538.899 708.056C539.571 707.384 540.627 707.048 542.067 707.048C543.507 707.048 544.547 707.384 545.187 708.056C545.859 708.696 546.195 709.528 546.195 710.552V711.608C546.195 712.6 545.859 713.432 545.187 714.104C544.547 714.776 543.507 715.112 542.067 715.112ZM538.515 743V717.8H545.619V743H538.515ZM562.474 743.576C560.01 743.576 557.898 743.048 556.138 741.992C554.378 740.904 553.018 739.368 552.058 737.384C551.13 735.4 550.666 733.064 550.666 730.376C550.666 727.656 551.13 725.32 552.058 723.368C553.018 721.416 554.378 719.912 556.138 718.856C557.898 717.768 560.01 717.224 562.474 717.224C564.938 717.224 567.05 717.768 568.81 718.856C570.57 719.912 571.914 721.416 572.842 723.368C573.802 725.32 574.281 727.656 574.281 730.376C574.281 733.064 573.802 735.4 572.842 737.384C571.914 739.368 570.57 740.904 568.81 741.992C567.05 743.048 564.938 743.576 562.474 743.576ZM562.474 737.96C563.882 737.96 564.97 737.528 565.738 736.664C566.506 735.768 566.89 734.536 566.89 732.968V727.832C566.89 726.232 566.506 725 565.738 724.136C564.97 723.272 563.882 722.84 562.474 722.84C561.098 722.84 560.01 723.272 559.21 724.136C558.442 725 558.058 726.232 558.058 727.832V732.968C558.058 734.536 558.442 735.768 559.21 736.664C560.01 737.528 561.098 737.96 562.474 737.96ZM586.447 743H579.343V717.8H586.447V722.072H586.735C587.183 720.76 587.967 719.624 589.087 718.664C590.207 717.704 591.759 717.224 593.743 717.224C596.303 717.224 598.255 718.104 599.599 719.864C600.943 721.592 601.615 724.04 601.615 727.208V743H594.511V727.784C594.511 726.184 594.255 724.984 593.743 724.184C593.231 723.384 592.319 722.984 591.007 722.984C590.239 722.984 589.503 723.128 588.799 723.416C588.127 723.672 587.567 724.072 587.119 724.616C586.671 725.16 586.447 725.848 586.447 726.68V743ZM641.841 743H637.905C637.041 743 636.225 742.792 635.457 742.376C634.721 741.928 634.129 741.288 633.681 740.456C633.233 739.592 633.009 738.568 633.009 737.384V736.76L634.545 738.584H632.817C632.433 740.216 631.585 741.464 630.273 742.328C628.961 743.16 627.345 743.576 625.425 743.576C622.897 743.576 620.961 742.904 619.617 741.56C618.273 740.184 617.601 738.408 617.601 736.232C617.601 734.44 618.033 732.968 618.897 731.816C619.793 730.664 621.041 729.8 622.641 729.224C624.273 728.648 626.193 728.36 628.401 728.36H632.385V726.776C632.385 725.56 632.065 724.6 631.425 723.896C630.785 723.16 629.713 722.792 628.209 722.792C626.801 722.792 625.681 723.096 624.849 723.704C624.017 724.312 623.329 725 622.785 725.768L618.561 722.024C619.585 720.52 620.881 719.352 622.449 718.52C624.017 717.656 626.113 717.224 628.737 717.224C632.289 717.224 634.961 718.024 636.753 719.624C638.577 721.192 639.489 723.464 639.489 726.44V737.48H641.841V743ZM632.385 732.392H628.929C627.553 732.392 626.513 732.632 625.809 733.112C625.105 733.592 624.753 734.296 624.753 735.224V735.944C624.753 736.84 625.041 737.512 625.617 737.96C626.193 738.408 627.009 738.632 628.065 738.632C628.865 738.632 629.585 738.52 630.225 738.296C630.865 738.072 631.377 737.72 631.761 737.24C632.177 736.76 632.385 736.136 632.385 735.368V732.392ZM653.713 743H646.609V717.8H653.713V722.072H654.001C654.449 720.76 655.233 719.624 656.353 718.664C657.473 717.704 659.025 717.224 661.009 717.224C663.569 717.224 665.521 718.104 666.865 719.864C668.209 721.592 668.881 724.04 668.881 727.208V743H661.777V727.784C661.777 726.184 661.521 724.984 661.009 724.184C660.497 723.384 659.585 722.984 658.273 722.984C657.505 722.984 656.769 723.128 656.065 723.416C655.393 723.672 654.833 724.072 654.385 724.616C653.937 725.16 653.713 725.848 653.713 726.68V743ZM690.659 743V738.776H690.419C690.067 740.152 689.251 741.304 687.971 742.232C686.723 743.128 685.283 743.576 683.651 743.576C681.539 743.576 679.763 743.08 678.323 742.088C676.883 741.064 675.795 739.576 675.059 737.624C674.323 735.64 673.955 733.224 673.955 730.376C673.955 727.528 674.323 725.128 675.059 723.176C675.795 721.224 676.883 719.752 678.323 718.76C679.763 717.736 681.539 717.224 683.651 717.224C685.283 717.224 686.723 717.672 687.971 718.568C689.251 719.464 690.067 720.616 690.419 722.024H690.659V707.48H697.763V743H690.659ZM686.003 737.816C686.899 737.816 687.699 737.672 688.403 737.384C689.107 737.096 689.651 736.68 690.035 736.136C690.451 735.56 690.659 734.888 690.659 734.12V726.68C690.659 725.912 690.451 725.256 690.035 724.712C689.651 724.136 689.107 723.704 688.403 723.416C687.699 723.128 686.899 722.984 686.003 722.984C684.659 722.984 683.539 723.464 682.643 724.424C681.779 725.352 681.347 726.616 681.347 728.216V732.584C681.347 734.152 681.779 735.416 682.643 736.376C683.539 737.336 684.659 737.816 686.003 737.816ZM723.43 730.712V743H716.134V709.496H732.022C734.102 709.496 735.894 709.944 737.398 710.84C738.902 711.736 740.07 712.984 740.902 714.584C741.734 716.184 742.15 718.056 742.15 720.2C742.15 722.44 741.638 724.424 740.614 726.152C739.622 727.848 738.102 729.08 736.054 729.848L742.63 743H734.518L728.662 730.712H723.43ZM723.43 724.568H731.11C731.846 724.568 732.47 724.44 732.982 724.184C733.494 723.928 733.894 723.56 734.182 723.08C734.47 722.568 734.614 721.96 734.614 721.256V719.144C734.614 718.408 734.47 717.8 734.182 717.32C733.894 716.84 733.494 716.472 732.982 716.216C732.47 715.96 731.846 715.832 731.11 715.832H723.43V724.568ZM757.902 743.576C755.342 743.576 753.15 743.048 751.326 741.992C749.534 740.904 748.158 739.368 747.198 737.384C746.27 735.4 745.806 733.064 745.806 730.376C745.806 727.72 746.254 725.416 747.15 723.464C748.078 721.48 749.422 719.944 751.182 718.856C752.942 717.768 755.086 717.224 757.614 717.224C760.398 717.224 762.638 717.832 764.334 719.048C766.062 720.232 767.326 721.8 768.126 723.752C768.926 725.704 769.326 727.816 769.326 730.088V732.2H753.15V732.584C753.15 734.248 753.598 735.576 754.494 736.568C755.422 737.528 756.83 738.008 758.718 738.008C760.222 738.008 761.422 737.704 762.318 737.096C763.246 736.488 764.11 735.784 764.91 734.984L768.462 739.4C767.342 740.68 765.87 741.704 764.046 742.472C762.254 743.208 760.206 743.576 757.902 743.576ZM757.758 722.456C756.798 722.456 755.966 722.68 755.262 723.128C754.59 723.544 754.062 724.136 753.678 724.904C753.326 725.672 753.15 726.584 753.15 727.64V728.024H761.982V727.592C761.982 726.568 761.822 725.672 761.502 724.904C761.214 724.136 760.75 723.544 760.11 723.128C759.502 722.68 758.718 722.456 757.758 722.456ZM789.799 743V738.776H789.559C789.207 740.152 788.391 741.304 787.111 742.232C785.863 743.128 784.423 743.576 782.791 743.576C780.679 743.576 778.903 743.08 777.463 742.088C776.023 741.064 774.935 739.576 774.199 737.624C773.463 735.64 773.095 733.224 773.095 730.376C773.095 727.528 773.463 725.128 774.199 723.176C774.935 721.224 776.023 719.752 777.463 718.76C778.903 717.736 780.679 717.224 782.791 717.224C784.423 717.224 785.863 717.672 787.111 718.568C788.391 719.464 789.207 720.616 789.559 722.024H789.799V707.48H796.903V743H789.799ZM785.143 737.816C786.039 737.816 786.839 737.672 787.543 737.384C788.247 737.096 788.791 736.68 789.175 736.136C789.591 735.56 789.799 734.888 789.799 734.12V726.68C789.799 725.912 789.591 725.256 789.175 724.712C788.791 724.136 788.247 723.704 787.543 723.416C786.839 723.128 786.039 722.984 785.143 722.984C783.799 722.984 782.679 723.464 781.783 724.424C780.919 725.352 780.487 726.616 780.487 728.216V732.584C780.487 734.152 780.919 735.416 781.783 736.376C782.679 737.336 783.799 737.816 785.143 737.816ZM814.058 743.576C811.498 743.576 809.306 743.048 807.482 741.992C805.69 740.904 804.314 739.368 803.354 737.384C802.426 735.4 801.962 733.064 801.962 730.376C801.962 727.72 802.41 725.416 803.306 723.464C804.234 721.48 805.578 719.944 807.338 718.856C809.098 717.768 811.242 717.224 813.77 717.224C816.554 717.224 818.794 717.832 820.49 719.048C822.218 720.232 823.482 721.8 824.282 723.752C825.082 725.704 825.482 727.816 825.482 730.088V732.2H809.306V732.584C809.306 734.248 809.754 735.576 810.65 736.568C811.578 737.528 812.986 738.008 814.874 738.008C816.378 738.008 817.578 737.704 818.474 737.096C819.402 736.488 820.266 735.784 821.066 734.984L824.618 739.4C823.498 740.68 822.026 741.704 820.202 742.472C818.41 743.208 816.362 743.576 814.058 743.576ZM813.914 722.456C812.954 722.456 812.122 722.68 811.418 723.128C810.746 723.544 810.218 724.136 809.834 724.904C809.482 725.672 809.306 726.584 809.306 727.64V728.024H818.138V727.592C818.138 726.568 817.978 725.672 817.658 724.904C817.37 724.136 816.906 723.544 816.266 723.128C815.658 722.68 814.874 722.456 813.914 722.456ZM839.044 743.576C836.612 743.576 834.564 743.192 832.9 742.424C831.236 741.624 829.748 740.504 828.436 739.064L832.612 734.84C833.508 735.832 834.5 736.616 835.588 737.192C836.676 737.768 837.908 738.056 839.284 738.056C840.692 738.056 841.668 737.848 842.212 737.432C842.756 736.984 843.028 736.392 843.028 735.656C843.028 735.016 842.82 734.536 842.404 734.216C842.02 733.896 841.38 733.672 840.484 733.544L837.748 733.208C835.86 732.952 834.276 732.504 832.996 731.864C831.748 731.224 830.804 730.376 830.164 729.32C829.556 728.232 829.252 726.936 829.252 725.432C829.252 723 830.132 721.032 831.892 719.528C833.652 717.992 836.036 717.224 839.044 717.224C840.804 717.224 842.292 717.384 843.508 717.704C844.724 717.992 845.78 718.44 846.676 719.048C847.604 719.624 848.484 720.328 849.316 721.16L845.236 725.336C844.436 724.536 843.524 723.912 842.5 723.464C841.508 722.984 840.484 722.744 839.428 722.744C838.244 722.744 837.38 722.936 836.836 723.32C836.324 723.704 836.068 724.216 836.068 724.856C836.068 725.528 836.244 726.056 836.596 726.44C836.98 726.792 837.684 727.048 838.708 727.208L841.54 727.592C844.292 727.944 846.356 728.76 847.732 730.04C849.14 731.288 849.844 733 849.844 735.176C849.844 736.776 849.396 738.216 848.5 739.496C847.604 740.776 846.34 741.784 844.708 742.52C843.108 743.224 841.22 743.576 839.044 743.576ZM858.239 715.112C856.799 715.112 855.743 714.776 855.071 714.104C854.431 713.432 854.111 712.6 854.111 711.608V710.552C854.111 709.528 854.431 708.696 855.071 708.056C855.743 707.384 856.799 707.048 858.239 707.048C859.679 707.048 860.719 707.384 861.359 708.056C862.031 708.696 862.367 709.528 862.367 710.552V711.608C862.367 712.6 862.031 713.432 861.359 714.104C860.719 714.776 859.679 715.112 858.239 715.112ZM854.687 743V717.8H861.791V743H854.687ZM891.749 744.824C891.749 746.584 891.317 748.088 890.453 749.336C889.621 750.584 888.213 751.528 886.229 752.168C884.245 752.84 881.541 753.176 878.117 753.176C875.205 753.176 872.869 752.936 871.109 752.456C869.381 752.008 868.117 751.336 867.317 750.44C866.549 749.576 866.165 748.536 866.165 747.32C866.165 745.912 866.581 744.808 867.413 744.008C868.245 743.208 869.397 742.712 870.869 742.52V741.992C869.685 741.768 868.773 741.256 868.133 740.456C867.525 739.624 867.221 738.664 867.221 737.576C867.221 736.264 867.701 735.256 868.661 734.552C869.653 733.816 870.741 733.336 871.925 733.112V732.92C870.421 732.216 869.285 731.256 868.517 730.04C867.781 728.792 867.413 727.352 867.413 725.72C867.413 724.024 867.813 722.536 868.613 721.256C869.413 719.976 870.613 718.984 872.213 718.28C873.813 717.576 875.813 717.224 878.213 717.224C879.013 717.224 879.765 717.272 880.469 717.368C881.205 717.432 881.877 717.544 882.485 717.704V716.744C882.485 715.432 882.821 714.472 883.493 713.864C884.165 713.256 885.093 712.952 886.277 712.952H890.261V718.232H884.693V718.52C886.165 719.224 887.253 720.2 887.957 721.448C888.661 722.696 889.013 724.12 889.013 725.72C889.013 727.384 888.613 728.856 887.813 730.136C887.045 731.384 885.861 732.36 884.261 733.064C882.661 733.736 880.645 734.072 878.213 734.072C877.381 734.072 876.581 734.024 875.813 733.928C875.077 733.832 874.389 733.704 873.749 733.544C873.429 733.768 873.157 734.056 872.933 734.408C872.741 734.728 872.645 735.112 872.645 735.56C872.645 736.168 872.869 736.648 873.317 737C873.797 737.32 874.581 737.48 875.669 737.48H882.965C886.037 737.48 888.261 738.12 889.637 739.4C891.045 740.68 891.749 742.488 891.749 744.824ZM885.077 745.784C885.077 745.048 884.773 744.488 884.165 744.104C883.589 743.72 882.597 743.528 881.189 743.528H872.549C872.229 743.848 871.989 744.2 871.829 744.584C871.701 745 871.637 745.4 871.637 745.784C871.637 746.68 872.037 747.352 872.837 747.8C873.637 748.248 874.997 748.472 876.917 748.472H879.797C881.717 748.472 883.077 748.248 883.877 747.8C884.677 747.352 885.077 746.68 885.077 745.784ZM878.213 729.416C879.621 729.416 880.661 729.112 881.333 728.504C882.037 727.896 882.389 727.048 882.389 725.96V725.384C882.389 724.264 882.037 723.416 881.333 722.84C880.661 722.232 879.621 721.928 878.213 721.928C876.837 721.928 875.797 722.232 875.093 722.84C874.389 723.416 874.037 724.264 874.037 725.384V725.96C874.037 727.048 874.389 727.896 875.093 728.504C875.797 729.112 876.837 729.416 878.213 729.416ZM902.01 743H894.906V717.8H902.01V722.072H902.298C902.746 720.76 903.53 719.624 904.65 718.664C905.77 717.704 907.322 717.224 909.306 717.224C911.866 717.224 913.818 718.104 915.162 719.864C916.506 721.592 917.178 724.04 917.178 727.208V743H910.074V727.784C910.074 726.184 909.818 724.984 909.306 724.184C908.794 723.384 907.882 722.984 906.57 722.984C905.802 722.984 905.066 723.128 904.362 723.416C903.69 723.672 903.13 724.072 902.682 724.616C902.234 725.16 902.01 725.848 902.01 726.68V743Z" fill="#3A453F"/>
<g clip-path="url(#clip1_94_4134)">
<path d="M342.019 330.774C341.296 316.902 335.564 303.759 325.88 293.769C312.33 279.439 295.209 273.011 275.654 272.884C252.913 272.757 230.183 272.884 207.442 272.884C199.793 272.884 199.793 272.884 199.793 280.684C199.793 311.833 199.793 342.978 199.793 374.119C199.793 405.683 199.793 437.252 199.793 468.824C199.793 475.252 200.328 475.837 206.588 475.926C213.178 476.015 219.769 475.989 226.346 475.926C231.853 475.862 232.057 475.621 232.249 470.171C232.249 468.901 232.249 467.63 232.249 466.36C232.249 447.931 232.249 429.498 232.249 411.061C232.249 405.167 232.516 404.887 238.266 404.862C249.101 404.862 259.937 404.963 270.772 404.773C277.122 404.761 283.464 404.366 289.766 403.591C315.593 399.996 334.574 381.563 340.476 357.337C342.605 348.508 342.516 339.654 342.019 330.774ZM294.852 370.244C290.625 373.114 285.651 374.694 280.537 374.792C266.31 374.852 252.084 374.852 237.858 374.792C233.154 374.792 232.389 374.055 232.338 369.19C232.236 359.027 232.338 348.864 232.338 338.701C232.338 328.754 232.274 318.807 232.338 308.848C232.338 302.572 233.472 301.594 239.884 301.581C251.141 301.581 262.41 301.264 273.64 301.696C288.938 302.293 301.277 308.467 307.307 323.292C313.987 339.819 310.06 360.412 294.814 370.244H294.852Z" fill="#02B562"/>
<path d="M656.67 475.9C653.062 475.9 649.442 475.9 645.834 475.9C640.658 475.837 640.212 475.557 638.364 470.819C633.482 458.179 628.714 445.501 623.793 432.886C618.873 420.271 613.774 407.72 608.84 395.105C602.458 378.777 596.118 362.432 589.821 346.069C586.931 338.591 584.063 331.096 581.216 323.584C580.26 321.043 578.871 318.706 575.99 318.668C572.866 318.668 571.273 320.992 570.202 323.749C558.415 354.077 546.61 384.4 534.789 414.72C528.738 430.269 522.692 445.827 516.649 461.393C515.196 465.115 513.704 468.812 512.264 472.547C511.985 473.572 511.359 474.47 510.493 475.091C509.627 475.711 508.573 476.015 507.509 475.951C498.802 475.951 490.096 476.027 481.389 475.951C478.1 475.951 477.259 474.439 478.457 471.467C487.992 447.8 497.579 424.158 507.076 400.453C513.271 384.942 519.16 369.304 525.356 353.78C535.465 328.449 545.752 303.169 555.95 277.876C557.913 273.023 557.926 272.985 563.331 272.96C570.98 272.96 578.628 272.96 586.277 272.96C593.084 272.96 593.122 272.96 595.621 279.07C601.842 294.315 608.033 309.601 614.194 324.93C622.897 346.518 631.582 368.114 640.251 389.719C648.473 410.337 656.555 431.006 664.726 451.649C667.072 457.544 669.57 463.375 671.89 469.282C674.21 475.189 673.777 475.913 667.556 476.027C663.898 475.951 660.277 475.9 656.67 475.9Z" fill="#02B562"/>
<path d="M709.623 432.34C709.623 420.258 709.509 408.203 709.623 396.109C709.709 392.515 708.72 388.977 706.781 385.946C694.585 366.357 682.424 346.743 670.297 327.103C660.239 310.918 650.104 294.785 640.059 278.588C637.51 274.421 638.287 272.985 643.323 272.922C652.029 272.808 660.736 272.922 669.443 272.795C670.713 272.693 671.985 272.967 673.101 273.581C674.216 274.196 675.125 275.124 675.715 276.25C681.961 286.731 688.131 297.275 694.454 307.717C703.122 322.021 711.858 336.283 720.663 350.503C723.862 355.584 727.113 355.305 730.632 349.575C738.051 337.499 745.423 325.379 752.749 313.218C759.964 301.251 767.179 289.297 774.178 277.203C774.842 275.775 775.934 274.587 777.304 273.802C778.673 273.017 780.253 272.674 781.826 272.82C790.329 273.011 798.832 272.82 807.322 272.935C812.421 273.023 812.969 274.307 810.292 278.588C801.203 293.121 792.024 307.59 783.025 322.186C769.805 343.605 756.764 365.137 743.507 386.556C741.771 389.465 740.925 392.816 741.072 396.198C741.072 419.712 741.187 443.201 741.072 466.754C741.072 476.548 742.079 475.9 731.664 475.913C726.348 475.913 721.033 475.913 715.729 475.837C709.713 475.773 709.56 475.672 709.521 469.853C709.458 459.043 709.521 448.257 709.521 437.434V432.352L709.623 432.34Z" fill="#02B562"/>
<path d="M371.606 374.373V282.31C371.606 280.62 371.606 278.918 371.606 277.228C371.504 274.37 372.741 272.871 375.711 272.884C383.784 272.884 391.858 272.884 399.931 272.884C402.889 272.884 404.125 274.472 404.202 277.228C404.202 278.499 404.202 279.769 404.202 281.039C404.202 333.734 404.202 386.433 404.202 439.136C404.202 439.771 404.202 440.406 404.202 441.042C404.355 446.187 405.477 447.241 410.652 447.216C422.754 447.148 434.852 447.118 446.945 447.127C448.221 447.051 449.502 447.098 450.769 447.266C453.51 447.762 454.466 449.235 453.599 451.763C451.33 458.331 448.844 464.835 446.652 471.429C445.543 474.77 443.529 475.9 440.036 475.888C419.231 475.786 398.427 475.888 377.572 475.888C371.976 475.888 371.734 475.659 371.67 470.234C371.606 459.881 371.606 449.451 371.606 439.136V374.348V374.373Z" fill="#02B562"/>
<path d="M913.268 270.051C852.869 269.06 808.915 319.087 807.87 372.95C806.799 427.715 853.111 478.695 912.401 478.949C971.333 479.203 1017.2 432.073 1018.72 377.32C1020.46 317.423 970.237 268.234 913.268 270.051ZM888.805 301.81C890.819 301.2 893.037 300.882 895.982 300.209C895.089 302.534 882.941 326.785 879.333 338.726C875.509 351.43 871.825 364.21 867.618 376.837C866.489 380.267 864.661 383.426 862.248 386.117C859.834 388.809 856.889 390.973 853.596 392.476C851.686 393.381 849.655 394.005 847.566 394.33C841.919 395.156 838.528 393.06 837.738 387.458C835.813 373.928 836.17 360.551 841.498 347.619C850.422 325.794 865.476 310.156 887.976 302.127L888.805 301.81ZM931.229 442.477C932.172 447.952 931.229 448.829 925.62 449.858C910.03 452.741 895.281 449.769 881.003 443.836C878.789 442.737 876.242 442.506 873.865 443.188H873.724C868.077 444.954 862.251 446.377 856.566 447.774C851.582 449.045 848.777 446.352 849.542 441.296C850.169 436.068 851.097 430.881 852.321 425.759C852.371 425.597 852.41 425.431 852.436 425.264C852.726 424.036 852.736 422.76 852.465 421.529C852.193 420.297 851.647 419.142 850.868 418.15C847.91 413.602 844.583 409.193 843.219 402.905C844.638 402.595 846.072 402.358 847.515 402.194C857.331 401.648 864.724 397.023 870.27 389.071C875.076 382.16 877.663 374.297 880.2 366.446C884.585 352.789 887.657 338.663 893.075 325.388C896.632 316.673 901.667 304.986 909.265 298.342C910.234 298.342 911.203 298.278 912.184 298.278C930.297 298.276 947.841 304.575 961.791 316.088C975.741 327.6 985.221 343.605 988.594 361.339C988.147 362.609 986.707 363.079 983.571 364.108C961.212 371.4 944.589 385.234 935.525 407.123C930.731 418.256 929.24 430.525 931.229 442.477ZM988.351 391.383C988.359 391.476 988.359 391.569 988.351 391.662C987.816 393.886 987.191 396.096 986.529 398.294C983.163 409.486 976.126 418.416 968.784 427.182C962.831 434.296 955.169 439.123 947.113 443.315C942.689 445.615 941.529 444.725 941.287 439.796C941.16 437.256 941.287 434.715 941.287 432.174C941.287 414.834 947.202 399.971 960.332 388.372C967.981 381.589 977.108 377.091 986.72 373.687C988.645 373.014 989.639 373.687 990.034 375.072C990.171 375.56 990.244 376.064 990.251 376.571C990.262 381.573 989.601 386.555 988.288 391.383H988.351Z" fill="#02B562"/>
</g>
</g>
<defs>
<clipPath id="clip0_94_4134">
<rect width="1920" height="1080" fill="white"/>
</clipPath>
<clipPath id="clip1_94_4134">
<rect width="819" height="209" fill="white" transform="translate(199.806 270)"/>
</clipPath>
</defs>
</svg>
