<svg width="1920" height="674" viewBox="0 0 1920 674" fill="none" xmlns="http://www.w3.org/2000/svg">
<rect width="1920" height="674" fill="#F1F3F2"/>
<rect x="200" y="162" width="8.06934" height="68.4336" fill="#02B562"/>
<path d="M256.504 219.109V174.437H265.08L277.048 197.157H277.432L289.4 174.437H297.592V219.109H290.68V184.933H290.36L286.84 192.165L277.048 210.021L267.256 192.165L263.736 184.933H263.416V219.109H256.504ZM319.893 219.877C310.421 219.877 304.597 213.093 304.597 202.469C304.597 191.845 310.421 185.061 319.893 185.061C329.685 185.061 334.677 192.421 334.677 201.637V204.261H311.829V205.349C311.829 210.469 314.965 214.117 320.597 214.117C324.693 214.117 327.445 212.197 329.365 209.125L333.461 213.157C330.965 217.189 326.101 219.877 319.893 219.877ZM319.893 190.501C315.093 190.501 311.829 194.085 311.829 199.205V199.653H327.317V199.013C327.317 193.893 324.501 190.501 319.893 190.501ZM356.416 219.109H350.336C345.536 219.109 342.976 216.421 342.976 211.877V191.525H337.792V185.829H340.608C342.912 185.829 343.68 184.869 343.68 182.565V176.741H349.952V185.829H356.928V191.525H349.952V213.413H356.416V219.109ZM363.215 219.109V171.749H370.191V191.333H370.511C371.919 187.749 374.735 185.061 379.855 185.061C386.639 185.061 390.671 189.797 390.671 197.989V219.109H383.695V198.821C383.695 193.701 381.711 191.077 377.423 191.077C373.775 191.077 370.191 192.933 370.191 196.773V219.109H363.215ZM412.116 219.877C402.836 219.877 396.82 213.093 396.82 202.469C396.82 191.845 402.836 185.061 412.116 185.061C421.396 185.061 427.412 191.845 427.412 202.469C427.412 213.093 421.396 219.877 412.116 219.877ZM412.116 214.117C416.852 214.117 420.052 211.173 420.052 205.285V199.653C420.052 193.765 416.852 190.821 412.116 190.821C407.38 190.821 404.18 193.765 404.18 199.653V205.285C404.18 211.173 407.38 214.117 412.116 214.117ZM454.833 219.109V213.605H454.513C453.105 217.509 449.585 219.877 445.169 219.877C436.785 219.877 431.921 213.413 431.921 202.469C431.921 191.525 436.785 185.061 445.169 185.061C449.585 185.061 453.105 187.365 454.513 191.333H454.833V171.749H461.809V219.109H454.833ZM447.281 213.861C451.505 213.861 454.833 211.557 454.833 208.165V196.773C454.833 193.381 451.505 191.077 447.281 191.077C442.481 191.077 439.281 194.469 439.281 199.589V205.349C439.281 210.469 442.481 213.861 447.281 213.861ZM481.06 219.877C474.788 219.877 470.692 217.509 467.556 213.605L472.036 209.509C474.468 212.453 477.476 214.245 481.444 214.245C485.476 214.245 487.524 212.581 487.524 209.765C487.524 207.653 486.244 206.053 482.788 205.605L479.716 205.221C472.932 204.389 468.772 201.445 468.772 195.301C468.772 188.837 473.828 185.061 481.124 185.061C487.14 185.061 490.532 187.045 493.54 190.373L489.252 194.469C487.524 192.421 484.708 190.693 481.124 190.693C477.284 190.693 475.492 192.357 475.492 194.853C475.492 197.413 477.092 198.565 480.612 199.141L483.684 199.525C490.98 200.613 494.244 203.813 494.244 209.189C494.244 215.589 489.06 219.877 481.06 219.877ZM514.946 174.437H522.05V201.957C522.05 209.509 524.674 213.413 531.65 213.413C538.626 213.413 541.25 209.509 541.25 201.957V174.437H548.354V200.805C548.354 213.861 543.874 219.877 531.65 219.877C519.426 219.877 514.946 213.861 514.946 200.805V174.437ZM567.845 219.877C561.573 219.877 557.477 217.509 554.341 213.605L558.821 209.509C561.253 212.453 564.261 214.245 568.229 214.245C572.261 214.245 574.309 212.581 574.309 209.765C574.309 207.653 573.029 206.053 569.573 205.605L566.501 205.221C559.717 204.389 555.557 201.445 555.557 195.301C555.557 188.837 560.613 185.061 567.909 185.061C573.925 185.061 577.317 187.045 580.325 190.373L576.037 194.469C574.309 192.421 571.493 190.693 567.909 190.693C564.069 190.693 562.277 192.357 562.277 194.853C562.277 197.413 563.877 198.565 567.397 199.141L570.469 199.525C577.765 200.613 581.029 203.813 581.029 209.189C581.029 215.589 575.845 219.877 567.845 219.877ZM600.686 219.877C591.214 219.877 585.39 213.093 585.39 202.469C585.39 191.845 591.214 185.061 600.686 185.061C610.478 185.061 615.47 192.421 615.47 201.637V204.261H592.622V205.349C592.622 210.469 595.758 214.117 601.39 214.117C605.486 214.117 608.238 212.197 610.158 209.125L614.254 213.157C611.758 217.189 606.894 219.877 600.686 219.877ZM600.686 190.501C595.886 190.501 592.622 194.085 592.622 199.205V199.653H608.11V199.013C608.11 193.893 605.294 190.501 600.686 190.501ZM642.84 219.109V213.605H642.52C641.112 217.509 637.592 219.877 633.176 219.877C624.792 219.877 619.928 213.413 619.928 202.469C619.928 191.525 624.792 185.061 633.176 185.061C637.592 185.061 641.112 187.365 642.52 191.333H642.84V171.749H649.816V219.109H642.84ZM635.288 213.861C639.512 213.861 642.84 211.557 642.84 208.165V196.773C642.84 193.381 639.512 191.077 635.288 191.077C630.488 191.077 627.288 194.469 627.288 199.589V205.349C627.288 210.469 630.488 213.861 635.288 213.861ZM687.648 219.109H681.568C676.768 219.109 674.208 216.421 674.208 211.877V191.525H669.024V185.829H671.84C674.144 185.829 674.912 184.869 674.912 182.565V176.741H681.184V185.829H688.16V191.525H681.184V213.413H687.648V219.109ZM707.253 219.877C697.973 219.877 691.957 213.093 691.957 202.469C691.957 191.845 697.973 185.061 707.253 185.061C716.533 185.061 722.549 191.845 722.549 202.469C722.549 213.093 716.533 219.877 707.253 219.877ZM707.253 214.117C711.989 214.117 715.189 211.173 715.189 205.285V199.653C715.189 193.765 711.989 190.821 707.253 190.821C702.517 190.821 699.317 193.765 699.317 199.653V205.285C699.317 211.173 702.517 214.117 707.253 214.117ZM760.935 219.109H741.479V213.221H747.559V180.325H741.479V174.437H760.935V180.325H754.791V213.221H760.935V219.109ZM775.208 219.109H768.232V185.829H775.208V191.333H775.528C776.936 187.749 779.752 185.061 784.872 185.061C791.656 185.061 795.688 189.797 795.688 197.989V219.109H788.712V198.885C788.712 193.701 786.728 191.077 782.44 191.077C778.792 191.077 775.208 192.933 775.208 196.837V219.109ZM814.637 219.877C808.365 219.877 804.269 217.509 801.133 213.605L805.613 209.509C808.045 212.453 811.053 214.245 815.021 214.245C819.053 214.245 821.101 212.581 821.101 209.765C821.101 207.653 819.821 206.053 816.365 205.605L813.293 205.221C806.509 204.389 802.349 201.445 802.349 195.301C802.349 188.837 807.405 185.061 814.701 185.061C820.717 185.061 824.109 187.045 827.117 190.373L822.829 194.469C821.101 192.421 818.285 190.693 814.701 190.693C810.861 190.693 809.069 192.357 809.069 194.853C809.069 197.413 810.669 198.565 814.189 199.141L817.261 199.525C824.557 200.613 827.821 203.813 827.821 209.189C827.821 215.589 822.637 219.877 814.637 219.877ZM834.422 231.909V185.829H841.398V191.333H841.718C843.126 187.365 846.646 185.061 851.062 185.061C859.446 185.061 864.31 191.525 864.31 202.469C864.31 213.413 859.446 219.877 851.062 219.877C846.646 219.877 843.126 217.509 841.718 213.605H841.398V231.909H834.422ZM848.95 213.861C853.75 213.861 856.95 210.469 856.95 205.349V199.589C856.95 194.469 853.75 191.077 848.95 191.077C844.726 191.077 841.398 193.381 841.398 196.773V208.165C841.398 211.557 844.726 213.861 848.95 213.861ZM884.073 219.877C874.601 219.877 868.777 213.093 868.777 202.469C868.777 191.845 874.601 185.061 884.073 185.061C893.865 185.061 898.857 192.421 898.857 201.637V204.261H876.009V205.349C876.009 210.469 879.145 214.117 884.777 214.117C888.873 214.117 891.625 212.197 893.545 209.125L897.641 213.157C895.145 217.189 890.281 219.877 884.073 219.877ZM884.073 190.501C879.273 190.501 876.009 194.085 876.009 199.205V199.653H891.497V199.013C891.497 193.893 888.681 190.501 884.073 190.501ZM918.163 219.877C908.563 219.877 903.059 213.093 903.059 202.469C903.059 191.845 908.563 185.061 918.163 185.061C924.819 185.061 929.043 188.325 931.027 193.253L925.267 195.941C924.307 192.869 921.939 190.885 918.163 190.885C913.043 190.885 910.419 194.405 910.419 199.525V205.477C910.419 210.597 913.043 214.117 918.163 214.117C922.195 214.117 924.563 211.941 925.971 208.613L931.283 211.429C929.107 216.869 924.563 219.877 918.163 219.877ZM951.941 219.109H945.861C941.061 219.109 938.501 216.421 938.501 211.877V191.525H933.317V185.829H936.133C938.437 185.829 939.205 184.869 939.205 182.565V176.741H945.477V185.829H952.453V191.525H945.477V213.413H951.941V219.109ZM987.881 219.109H981.801C977.001 219.109 974.441 216.421 974.441 211.877V191.525H969.257V185.829H972.073C974.377 185.829 975.145 184.869 975.145 182.565V176.741H981.417V185.829H988.393V191.525H981.417V213.413H987.881V219.109ZM994.68 219.109V171.749H1001.66V191.333H1001.98C1003.38 187.749 1006.2 185.061 1011.32 185.061C1018.1 185.061 1022.14 189.797 1022.14 197.989V219.109H1015.16V198.821C1015.16 193.701 1013.18 191.077 1008.89 191.077C1005.24 191.077 1001.66 192.933 1001.66 196.773V219.109H994.68ZM1043.58 219.877C1034.11 219.877 1028.28 213.093 1028.28 202.469C1028.28 191.845 1034.11 185.061 1043.58 185.061C1053.37 185.061 1058.36 192.421 1058.36 201.637V204.261H1035.52V205.349C1035.52 210.469 1038.65 214.117 1044.28 214.117C1048.38 214.117 1051.13 212.197 1053.05 209.125L1057.15 213.157C1054.65 217.189 1049.79 219.877 1043.58 219.877ZM1043.58 190.501C1038.78 190.501 1035.52 194.085 1035.52 199.205V199.653H1051V199.013C1051 193.893 1048.19 190.501 1043.58 190.501ZM1106.94 219.109H1103.04C1099.39 219.109 1097.47 216.805 1097.02 213.541H1096.7C1095.42 217.701 1091.84 219.877 1086.97 219.877C1080.12 219.877 1076.22 215.973 1076.22 209.957C1076.22 203.365 1081.15 199.973 1090.43 199.973H1096.44V197.157C1096.44 193.125 1094.27 190.757 1089.6 190.757C1085.69 190.757 1083.32 192.677 1081.66 195.301L1077.5 191.525C1079.68 187.813 1083.58 185.061 1090.04 185.061C1098.62 185.061 1103.42 189.285 1103.42 196.709V213.413H1106.94V219.109ZM1088.96 214.565C1093.24 214.565 1096.44 212.517 1096.44 209.253V204.453H1090.56C1085.69 204.453 1083.32 206.053 1083.32 208.933V210.085C1083.32 213.029 1085.5 214.565 1088.96 214.565ZM1112.5 231.909V185.829H1119.47V191.333H1119.79C1121.2 187.365 1124.72 185.061 1129.14 185.061C1137.52 185.061 1142.39 191.525 1142.39 202.469C1142.39 213.413 1137.52 219.877 1129.14 219.877C1124.72 219.877 1121.2 217.509 1119.79 213.605H1119.47V231.909H1112.5ZM1127.03 213.861C1131.83 213.861 1135.03 210.469 1135.03 205.349V199.589C1135.03 194.469 1131.83 191.077 1127.03 191.077C1122.8 191.077 1119.47 193.381 1119.47 196.773V208.165C1119.47 211.557 1122.8 213.861 1127.03 213.861ZM1149.09 231.909V185.829H1156.07V191.333H1156.39C1157.8 187.365 1161.32 185.061 1165.73 185.061C1174.12 185.061 1178.98 191.525 1178.98 202.469C1178.98 213.413 1174.12 219.877 1165.73 219.877C1161.32 219.877 1157.8 217.509 1156.39 213.605H1156.07V231.909H1149.09ZM1163.62 213.861C1168.42 213.861 1171.62 210.469 1171.62 205.349V199.589C1171.62 194.469 1168.42 191.077 1163.62 191.077C1159.4 191.077 1156.07 193.381 1156.07 196.773V208.165C1156.07 211.557 1159.4 213.861 1163.62 213.861Z" fill="#3A453F"/>
<rect x="498.5" y="325.5" width="261" height="87" rx="24.5" stroke="black"/>
<path d="M617.128 368.728H606.376V379H603.72V356.6H606.376V366.36H617.128V356.6H619.784V379H617.128V368.728ZM639.684 358.968H632.708V379H630.052V358.968H623.076V356.6H639.684V358.968ZM651.47 372.792H643.214L640.974 379H638.35L646.83 356.248H648.046L656.558 379H653.774L651.47 372.792ZM644.078 370.488H650.67L648.174 363.672L647.374 360.28H647.342L646.542 363.736L644.078 370.488Z" fill="black"/>
<rect x="803.5" y="325.5" width="282" height="87" rx="24.5" stroke="black"/>
<path d="M902.332 373.304C902.332 372.408 902.065 371.683 901.532 371.128C900.999 370.552 900.327 370.051 899.516 369.624C898.727 369.176 897.863 368.76 896.924 368.376C895.985 367.992 895.111 367.533 894.3 367C893.511 366.445 892.849 365.773 892.316 364.984C891.783 364.173 891.516 363.149 891.516 361.912C891.516 360.163 892.124 358.776 893.34 357.752C894.556 356.728 896.284 356.216 898.524 356.216C899.825 356.216 901.009 356.312 902.076 356.504C903.143 356.696 903.975 356.941 904.572 357.24L903.772 359.576C903.281 359.341 902.556 359.117 901.596 358.904C900.657 358.691 899.591 358.584 898.396 358.584C896.988 358.584 895.932 358.904 895.228 359.544C894.524 360.163 894.172 360.899 894.172 361.752C894.172 362.584 894.439 363.277 894.972 363.832C895.505 364.387 896.167 364.888 896.956 365.336C897.767 365.763 898.641 366.189 899.58 366.616C900.519 367.043 901.383 367.544 902.172 368.12C902.983 368.675 903.655 369.347 904.188 370.136C904.721 370.925 904.988 371.907 904.988 373.08C904.988 374.04 904.817 374.904 904.476 375.672C904.135 376.44 903.633 377.101 902.972 377.656C902.311 378.211 901.511 378.637 900.572 378.936C899.633 379.235 898.567 379.384 897.372 379.384C895.772 379.384 894.449 379.256 893.404 379C892.359 378.765 891.548 378.499 890.972 378.2L891.868 375.8C892.359 376.077 893.084 376.355 894.044 376.632C895.004 376.888 896.081 377.016 897.276 377.016C897.98 377.016 898.641 376.952 899.26 376.824C899.879 376.675 900.412 376.451 900.86 376.152C901.308 375.832 901.66 375.437 901.916 374.968C902.193 374.499 902.332 373.944 902.332 373.304ZM922.628 368.728H911.876V379H909.22V356.6H911.876V366.36H922.628V356.6H925.284V379H922.628V368.728ZM930.72 356.6H942.912V358.968H933.376V366.296H942.112V368.664H933.376V376.632H943.072V379H930.72V356.6ZM947.876 356.824C948.687 356.675 949.615 356.557 950.66 356.472C951.727 356.387 952.698 356.344 953.572 356.344C954.554 356.344 955.482 356.451 956.356 356.664C957.252 356.877 958.031 357.229 958.692 357.72C959.375 358.211 959.919 358.851 960.324 359.64C960.73 360.429 960.932 361.389 960.932 362.52C960.932 364.269 960.452 365.688 959.492 366.776C958.532 367.864 957.316 368.589 955.844 368.952L957.38 370.136L962.948 379H959.844L953.668 369.336L950.532 368.856V379H947.876V356.824ZM953.636 358.648C953.359 358.648 953.071 358.648 952.772 358.648C952.474 358.648 952.186 358.659 951.908 358.68C951.631 358.701 951.364 358.723 951.108 358.744C950.874 358.765 950.682 358.797 950.532 358.84V367.096H953.028C954.5 367.096 955.716 366.733 956.676 366.008C957.636 365.283 958.116 364.152 958.116 362.616C958.116 361.464 957.722 360.515 956.932 359.768C956.143 359.021 955.044 358.648 953.636 358.648ZM966.908 356.824C967.718 356.632 968.593 356.504 969.532 356.44C970.47 356.376 971.398 356.344 972.316 356.344C973.297 356.344 974.289 356.44 975.292 356.632C976.316 356.824 977.244 357.176 978.076 357.688C978.908 358.2 979.58 358.904 980.092 359.8C980.625 360.696 980.892 361.837 980.892 363.224C980.892 364.589 980.646 365.741 980.156 366.68C979.665 367.619 979.014 368.387 978.204 368.984C977.393 369.56 976.465 369.976 975.42 370.232C974.374 370.488 973.297 370.616 972.188 370.616C972.081 370.616 971.9 370.616 971.644 370.616C971.409 370.616 971.153 370.616 970.876 370.616C970.62 370.595 970.364 370.573 970.108 370.552C969.852 370.531 969.67 370.509 969.564 370.488V379H966.908V356.824ZM972.38 358.648C971.825 358.648 971.292 358.659 970.78 358.68C970.268 358.701 969.862 358.755 969.564 358.84V368.12C969.67 368.163 969.841 368.195 970.076 368.216C970.31 368.216 970.556 368.227 970.812 368.248C971.068 368.248 971.313 368.248 971.548 368.248C971.782 368.248 971.953 368.248 972.06 368.248C972.785 368.248 973.5 368.184 974.204 368.056C974.929 367.907 975.58 367.651 976.156 367.288C976.732 366.925 977.19 366.413 977.532 365.752C977.894 365.091 978.076 364.248 978.076 363.224C978.076 362.349 977.905 361.624 977.564 361.048C977.244 360.451 976.806 359.981 976.252 359.64C975.718 359.277 975.11 359.021 974.428 358.872C973.745 358.723 973.062 358.648 972.38 358.648ZM993.407 372.792H985.151L982.911 379H980.287L988.767 356.248H989.983L998.495 379H995.711L993.407 372.792ZM986.015 370.488H992.607L990.111 363.672L989.311 360.28H989.279L988.479 363.736L986.015 370.488Z" fill="black"/>
<rect x="498.5" y="480.5" width="405" height="87" rx="24.5" stroke="black"/>
<path d="M579.628 523.728H568.876V534H566.22V511.6H568.876V521.36H579.628V511.6H582.284V534H579.628V523.728ZM599.144 532.72C598.504 533.232 597.693 533.637 596.712 533.936C595.752 534.235 594.728 534.384 593.64 534.384C592.424 534.384 591.368 534.192 590.472 533.808C589.576 533.403 588.84 532.837 588.264 532.112C587.688 531.365 587.261 530.48 586.984 529.456C586.707 528.432 586.568 527.28 586.568 526C586.568 523.269 587.176 521.189 588.392 519.76C589.608 518.331 591.347 517.616 593.608 517.616C594.333 517.616 595.059 517.701 595.784 517.872C596.509 518.021 597.16 518.32 597.736 518.768C598.312 519.216 598.781 519.856 599.144 520.688C599.507 521.499 599.688 522.576 599.688 523.92C599.688 524.624 599.624 525.403 599.496 526.256H589.224C589.224 527.195 589.32 528.027 589.512 528.752C589.704 529.477 590.003 530.096 590.408 530.608C590.813 531.099 591.336 531.483 591.976 531.76C592.637 532.016 593.437 532.144 594.376 532.144C595.101 532.144 595.827 532.016 596.552 531.76C597.277 531.504 597.821 531.205 598.184 530.864L599.144 532.72ZM593.64 519.856C592.381 519.856 591.368 520.187 590.6 520.848C589.853 521.509 589.405 522.64 589.256 524.24H597.192C597.192 522.619 596.883 521.488 596.264 520.848C595.645 520.187 594.771 519.856 593.64 519.856ZM606.018 518V527.12C606.018 527.952 606.061 528.688 606.146 529.328C606.253 529.947 606.423 530.469 606.658 530.896C606.893 531.301 607.213 531.611 607.618 531.824C608.023 532.037 608.535 532.144 609.154 532.144C609.73 532.144 610.242 532.059 610.69 531.888C611.138 531.696 611.533 531.44 611.874 531.12C612.237 530.8 612.546 530.437 612.802 530.032C613.079 529.605 613.303 529.157 613.474 528.688V518H616.034V529.456C616.034 530.224 616.055 531.024 616.098 531.856C616.162 532.667 616.258 533.381 616.386 534H614.626L613.986 531.472H613.826C613.335 532.304 612.674 532.997 611.842 533.552C611.01 534.107 609.954 534.384 608.674 534.384C607.821 534.384 607.063 534.277 606.402 534.064C605.762 533.872 605.218 533.52 604.77 533.008C604.343 532.496 604.013 531.813 603.778 530.96C603.565 530.085 603.458 528.987 603.458 527.664V518H606.018ZM628.516 520.464C627.876 520.251 627.268 520.144 626.692 520.144C625.775 520.144 625.049 520.4 624.516 520.912C623.983 521.403 623.652 522.032 623.524 522.8V534H620.964V518H622.756L623.236 519.952H623.364C623.769 519.227 624.249 518.672 624.804 518.288C625.38 517.883 626.105 517.68 626.98 517.68C627.599 517.68 628.292 517.787 629.06 518L628.516 520.464ZM632.383 518H634.943V534H632.383V518ZM631.839 513.136C631.839 512.645 631.999 512.229 632.319 511.888C632.66 511.525 633.087 511.344 633.599 511.344C634.111 511.344 634.548 511.525 634.911 511.888C635.274 512.229 635.455 512.645 635.455 513.136C635.455 513.627 635.274 514.032 634.911 514.352C634.548 514.672 634.111 514.832 633.599 514.832C633.087 514.832 632.66 514.672 632.319 514.352C631.999 514.032 631.839 513.627 631.839 513.136ZM647.442 529.648C647.442 529.008 647.25 528.507 646.866 528.144C646.482 527.781 646.002 527.483 645.426 527.248C644.871 526.992 644.252 526.757 643.57 526.544C642.908 526.309 642.29 526.021 641.714 525.68C641.159 525.317 640.69 524.859 640.306 524.304C639.922 523.749 639.73 523.003 639.73 522.064C639.73 520.528 640.167 519.408 641.042 518.704C641.916 517.979 643.132 517.616 644.69 517.616C645.842 517.616 646.802 517.723 647.57 517.936C648.359 518.128 649.042 518.363 649.618 518.64L649.01 520.752C648.519 520.517 647.922 520.315 647.218 520.144C646.535 519.952 645.799 519.856 645.01 519.856C644.071 519.856 643.378 520.016 642.93 520.336C642.503 520.656 642.29 521.211 642.29 522C642.29 522.555 642.482 522.992 642.866 523.312C643.25 523.611 643.719 523.888 644.274 524.144C644.85 524.379 645.468 524.613 646.13 524.848C646.812 525.083 647.431 525.392 647.986 525.776C648.562 526.16 649.042 526.651 649.426 527.248C649.81 527.824 650.002 528.592 650.002 529.552C650.002 530.235 649.884 530.875 649.65 531.472C649.436 532.069 649.095 532.581 648.626 533.008C648.156 533.435 647.57 533.765 646.866 534C646.183 534.256 645.372 534.384 644.434 534.384C643.218 534.384 642.183 534.267 641.33 534.032C640.476 533.797 639.762 533.52 639.186 533.2L639.954 531.024C640.444 531.301 641.084 531.557 641.874 531.792C642.663 532.027 643.463 532.144 644.274 532.144C645.191 532.144 645.948 531.963 646.546 531.6C647.143 531.237 647.442 530.587 647.442 529.648ZM651.758 518H654.254V514.832L656.814 514.096V518H661.166V520.24H656.814V529.104C656.814 530.213 656.953 531.003 657.23 531.472C657.508 531.92 657.977 532.144 658.638 532.144C659.193 532.144 659.662 532.091 660.046 531.984C660.43 531.856 660.857 531.696 661.326 531.504L661.902 533.456C661.326 533.733 660.697 533.957 660.014 534.128C659.332 534.299 658.596 534.384 657.806 534.384C656.505 534.384 655.588 534.021 655.054 533.296C654.521 532.549 654.254 531.312 654.254 529.584V520.24H651.758V518ZM665.258 518H667.818V534H665.258V518ZM664.714 513.136C664.714 512.645 664.874 512.229 665.194 511.888C665.535 511.525 665.962 511.344 666.474 511.344C666.986 511.344 667.423 511.525 667.786 511.888C668.149 512.229 668.33 512.645 668.33 513.136C668.33 513.627 668.149 514.032 667.786 514.352C667.423 514.672 666.986 514.832 666.474 514.832C665.962 514.832 665.535 514.672 665.194 514.352C664.874 514.032 664.714 513.627 664.714 513.136ZM684.189 532.944C683.549 533.413 682.791 533.765 681.917 534C681.042 534.256 680.125 534.384 679.165 534.384C677.927 534.384 676.882 534.192 676.029 533.808C675.175 533.403 674.471 532.837 673.917 532.112C673.383 531.365 672.989 530.48 672.733 529.456C672.498 528.411 672.381 527.259 672.381 526C672.381 523.291 672.978 521.221 674.173 519.792C675.367 518.341 677.085 517.616 679.325 517.616C680.349 517.616 681.213 517.701 681.917 517.872C682.642 518.021 683.293 518.245 683.869 518.544L683.133 520.752C682.642 520.475 682.098 520.261 681.501 520.112C680.903 519.941 680.263 519.856 679.581 519.856C676.551 519.856 675.036 521.904 675.036 526C675.036 526.811 675.111 527.589 675.261 528.336C675.431 529.061 675.698 529.712 676.061 530.288C676.445 530.843 676.935 531.291 677.533 531.632C678.151 531.973 678.909 532.144 679.805 532.144C680.573 532.144 681.255 532.027 681.853 531.792C682.471 531.557 682.973 531.291 683.357 530.992L684.189 532.944ZM695.72 511.6H707.912V513.968H698.376V521.296H707.112V523.664H698.376V531.632H708.072V534H695.72V511.6ZM717.228 527.376L718.124 530.416H718.156L718.956 527.312L722.54 518H725.292L718.476 534.352H717.388L710.444 518H713.388L717.228 527.376ZM727.802 519.184C728.612 518.693 729.551 518.331 730.618 518.096C731.706 517.861 732.836 517.744 734.01 517.744C735.119 517.744 736.004 517.893 736.666 518.192C737.348 518.491 737.86 518.885 738.202 519.376C738.564 519.845 738.799 520.368 738.906 520.944C739.034 521.52 739.098 522.096 739.098 522.672C739.098 523.952 739.066 525.2 739.002 526.416C738.938 527.632 738.906 528.784 738.906 529.872C738.906 530.661 738.938 531.408 739.002 532.112C739.066 532.816 739.183 533.467 739.354 534.064H737.466L736.794 531.824H736.634C736.442 532.123 736.196 532.421 735.898 532.72C735.62 532.997 735.279 533.253 734.874 533.488C734.468 533.701 733.999 533.883 733.466 534.032C732.932 534.181 732.324 534.256 731.642 534.256C730.959 534.256 730.319 534.149 729.722 533.936C729.146 533.723 728.644 533.424 728.218 533.04C727.791 532.635 727.45 532.155 727.194 531.6C726.959 531.045 726.842 530.416 726.842 529.712C726.842 528.773 727.034 527.995 727.418 527.376C727.802 526.736 728.335 526.235 729.018 525.872C729.722 525.488 730.554 525.221 731.514 525.072C732.495 524.901 733.572 524.816 734.746 524.816C735.044 524.816 735.332 524.816 735.61 524.816C735.908 524.816 736.207 524.837 736.506 524.88C736.57 524.24 736.602 523.664 736.602 523.152C736.602 521.979 736.367 521.157 735.898 520.688C735.428 520.219 734.575 519.984 733.338 519.984C732.975 519.984 732.58 520.016 732.154 520.08C731.748 520.123 731.322 520.197 730.874 520.304C730.447 520.389 730.031 520.507 729.626 520.656C729.242 520.784 728.9 520.933 728.602 521.104L727.802 519.184ZM732.346 532.016C732.943 532.016 733.476 531.941 733.946 531.792C734.415 531.621 734.82 531.419 735.162 531.184C735.503 530.928 735.78 530.651 735.994 530.352C736.228 530.053 736.399 529.765 736.506 529.488V526.832C736.207 526.811 735.898 526.8 735.578 526.8C735.279 526.779 734.98 526.768 734.682 526.768C734.02 526.768 733.37 526.811 732.73 526.896C732.111 526.96 731.556 527.099 731.066 527.312C730.596 527.504 730.212 527.781 729.914 528.144C729.636 528.485 729.498 528.923 729.498 529.456C729.498 530.203 729.764 530.821 730.298 531.312C730.831 531.781 731.514 532.016 732.346 532.016ZM746.781 530.064C746.781 530.811 746.909 531.344 747.165 531.664C747.421 531.984 747.783 532.144 748.253 532.144C748.53 532.144 748.829 532.123 749.149 532.08C749.469 532.037 749.831 531.941 750.237 531.792L750.525 533.808C750.183 533.979 749.703 534.117 749.085 534.224C748.487 534.331 747.965 534.384 747.517 534.384C746.557 534.384 745.767 534.117 745.149 533.584C744.53 533.029 744.221 532.101 744.221 530.8V511.6H746.781V530.064ZM755.581 518V527.12C755.581 527.952 755.623 528.688 755.709 529.328C755.815 529.947 755.986 530.469 756.221 530.896C756.455 531.301 756.775 531.611 757.181 531.824C757.586 532.037 758.098 532.144 758.717 532.144C759.293 532.144 759.805 532.059 760.253 531.888C760.701 531.696 761.095 531.44 761.437 531.12C761.799 530.8 762.109 530.437 762.365 530.032C762.642 529.605 762.866 529.157 763.037 528.688V518H765.597V529.456C765.597 530.224 765.618 531.024 765.661 531.856C765.725 532.667 765.821 533.381 765.949 534H764.189L763.549 531.472H763.389C762.898 532.304 762.237 532.997 761.405 533.552C760.573 534.107 759.517 534.384 758.237 534.384C757.383 534.384 756.626 534.277 755.965 534.064C755.325 533.872 754.781 533.52 754.333 533.008C753.906 532.496 753.575 531.813 753.341 530.96C753.127 530.085 753.021 528.987 753.021 527.664V518H755.581ZM770.271 519.184C771.081 518.693 772.02 518.331 773.087 518.096C774.175 517.861 775.305 517.744 776.479 517.744C777.588 517.744 778.473 517.893 779.135 518.192C779.817 518.491 780.329 518.885 780.671 519.376C781.033 519.845 781.268 520.368 781.375 520.944C781.503 521.52 781.567 522.096 781.567 522.672C781.567 523.952 781.535 525.2 781.471 526.416C781.407 527.632 781.375 528.784 781.375 529.872C781.375 530.661 781.407 531.408 781.471 532.112C781.535 532.816 781.652 533.467 781.823 534.064H779.935L779.263 531.824H779.103C778.911 532.123 778.665 532.421 778.367 532.72C778.089 532.997 777.748 533.253 777.343 533.488C776.937 533.701 776.468 533.883 775.935 534.032C775.401 534.181 774.793 534.256 774.111 534.256C773.428 534.256 772.788 534.149 772.191 533.936C771.615 533.723 771.113 533.424 770.687 533.04C770.26 532.635 769.919 532.155 769.663 531.6C769.428 531.045 769.311 530.416 769.311 529.712C769.311 528.773 769.503 527.995 769.887 527.376C770.271 526.736 770.804 526.235 771.487 525.872C772.191 525.488 773.023 525.221 773.983 525.072C774.964 524.901 776.041 524.816 777.215 524.816C777.513 524.816 777.801 524.816 778.079 524.816C778.377 524.816 778.676 524.837 778.975 524.88C779.039 524.24 779.071 523.664 779.071 523.152C779.071 521.979 778.836 521.157 778.367 520.688C777.897 520.219 777.044 519.984 775.807 519.984C775.444 519.984 775.049 520.016 774.623 520.08C774.217 520.123 773.791 520.197 773.343 520.304C772.916 520.389 772.5 520.507 772.095 520.656C771.711 520.784 771.369 520.933 771.071 521.104L770.271 519.184ZM774.815 532.016C775.412 532.016 775.945 531.941 776.415 531.792C776.884 531.621 777.289 531.419 777.631 531.184C777.972 530.928 778.249 530.651 778.463 530.352C778.697 530.053 778.868 529.765 778.975 529.488V526.832C778.676 526.811 778.367 526.8 778.047 526.8C777.748 526.779 777.449 526.768 777.151 526.768C776.489 526.768 775.839 526.811 775.199 526.896C774.58 526.96 774.025 527.099 773.535 527.312C773.065 527.504 772.681 527.781 772.383 528.144C772.105 528.485 771.967 528.923 771.967 529.456C771.967 530.203 772.233 530.821 772.766 531.312C773.3 531.781 773.983 532.016 774.815 532.016ZM784.29 518H786.786V514.832L789.346 514.096V518H793.698V520.24H789.346V529.104C789.346 530.213 789.484 531.003 789.762 531.472C790.039 531.92 790.508 532.144 791.17 532.144C791.724 532.144 792.194 532.091 792.578 531.984C792.962 531.856 793.388 531.696 793.858 531.504L794.434 533.456C793.858 533.733 793.228 533.957 792.546 534.128C791.863 534.299 791.127 534.384 790.338 534.384C789.036 534.384 788.119 534.021 787.586 533.296C787.052 532.549 786.786 531.312 786.786 529.584V520.24H784.29V518ZM797.789 518H800.349V534H797.789V518ZM797.245 513.136C797.245 512.645 797.405 512.229 797.725 511.888C798.067 511.525 798.493 511.344 799.005 511.344C799.517 511.344 799.955 511.525 800.317 511.888C800.68 512.229 800.861 512.645 800.861 513.136C800.861 513.627 800.68 514.032 800.317 514.352C799.955 514.672 799.517 514.832 799.005 514.832C798.493 514.832 798.067 514.672 797.725 514.352C797.405 514.032 797.245 513.627 797.245 513.136ZM804.912 526C804.912 523.291 805.509 521.221 806.704 519.792C807.92 518.341 809.658 517.616 811.92 517.616C813.114 517.616 814.149 517.819 815.024 518.224C815.92 518.608 816.656 519.173 817.232 519.92C817.808 520.645 818.234 521.531 818.512 522.576C818.789 523.6 818.928 524.741 818.928 526C818.928 528.709 818.32 530.789 817.104 532.24C815.909 533.669 814.181 534.384 811.92 534.384C810.725 534.384 809.68 534.192 808.784 533.808C807.909 533.403 807.184 532.837 806.608 532.112C806.032 531.365 805.605 530.48 805.328 529.456C805.05 528.411 804.912 527.259 804.912 526ZM807.568 526C807.568 526.811 807.642 527.589 807.792 528.336C807.962 529.083 808.218 529.733 808.56 530.288C808.901 530.843 809.349 531.291 809.904 531.632C810.458 531.973 811.13 532.144 811.92 532.144C814.821 532.165 816.272 530.117 816.272 526C816.272 525.168 816.186 524.379 816.016 523.632C815.866 522.885 815.621 522.235 815.28 521.68C814.938 521.125 814.49 520.688 813.936 520.368C813.381 520.027 812.709 519.856 811.92 519.856C809.018 519.835 807.568 521.883 807.568 526ZM833.236 534V524.88C833.236 523.216 832.991 521.968 832.5 521.136C832.031 520.283 831.156 519.856 829.876 519.856C828.745 519.856 827.807 520.165 827.06 520.784C826.335 521.381 825.823 522.139 825.524 523.056V534H822.964V518H824.756L825.236 519.952H825.364C825.876 519.269 826.559 518.715 827.412 518.288C828.287 517.84 829.321 517.616 830.516 517.616C831.391 517.616 832.159 517.723 832.82 517.936C833.481 518.128 834.025 518.48 834.452 518.992C834.9 519.504 835.231 520.197 835.444 521.072C835.679 521.925 835.796 523.013 835.796 524.336V534H833.236Z" fill="black"/>
<rect x="951.5" y="480.5" width="470" height="87" rx="24.5" stroke="black"/>
<path d="M1022.33 511.6H1024.98V534H1022.33V511.6ZM1041.05 534V524.88C1041.05 523.216 1040.8 521.968 1040.31 521.136C1039.84 520.283 1038.97 519.856 1037.69 519.856C1036.56 519.856 1035.62 520.165 1034.87 520.784C1034.15 521.381 1033.64 522.139 1033.34 523.056V534H1030.78V518H1032.57L1033.05 519.952H1033.18C1033.69 519.269 1034.37 518.715 1035.22 518.288C1036.1 517.84 1037.13 517.616 1038.33 517.616C1039.2 517.616 1039.97 517.723 1040.63 517.936C1041.29 518.128 1041.84 518.48 1042.26 518.992C1042.71 519.504 1043.04 520.197 1043.26 521.072C1043.49 521.925 1043.61 523.013 1043.61 524.336V534H1041.05ZM1046.52 518H1049.01V517.104C1049.01 516.123 1049.09 515.269 1049.24 514.544C1049.41 513.819 1049.67 513.232 1050.04 512.784C1050.4 512.315 1050.87 511.973 1051.44 511.76C1052.02 511.525 1052.74 511.408 1053.59 511.408C1054.27 511.408 1054.87 511.451 1055.38 511.536C1055.91 511.621 1056.47 511.781 1057.04 512.016L1056.47 514.16C1055.98 513.947 1055.51 513.808 1055.06 513.744C1054.63 513.68 1054.23 513.648 1053.84 513.648C1053.29 513.648 1052.85 513.733 1052.53 513.904C1052.23 514.075 1052.01 514.331 1051.86 514.672C1051.73 514.992 1051.65 515.397 1051.6 515.888C1051.58 516.357 1051.57 516.912 1051.57 517.552V518H1055.83V520.24H1051.57V534H1049.01V520.24H1046.52V518ZM1057.26 526C1057.26 523.291 1057.85 521.221 1059.05 519.792C1060.26 518.341 1062 517.616 1064.26 517.616C1065.46 517.616 1066.49 517.819 1067.37 518.224C1068.26 518.608 1069 519.173 1069.58 519.92C1070.15 520.645 1070.58 521.531 1070.86 522.576C1071.13 523.6 1071.27 524.741 1071.27 526C1071.27 528.709 1070.66 530.789 1069.45 532.24C1068.25 533.669 1066.52 534.384 1064.26 534.384C1063.07 534.384 1062.02 534.192 1061.13 533.808C1060.25 533.403 1059.53 532.837 1058.95 532.112C1058.38 531.365 1057.95 530.48 1057.67 529.456C1057.39 528.411 1057.26 527.259 1057.26 526ZM1059.91 526C1059.91 526.811 1059.99 527.589 1060.14 528.336C1060.31 529.083 1060.56 529.733 1060.9 530.288C1061.24 530.843 1061.69 531.291 1062.25 531.632C1062.8 531.973 1063.47 532.144 1064.26 532.144C1067.16 532.165 1068.62 530.117 1068.62 526C1068.62 525.168 1068.53 524.379 1068.36 523.632C1068.21 522.885 1067.96 522.235 1067.62 521.68C1067.28 521.125 1066.83 520.688 1066.28 520.368C1065.72 520.027 1065.05 519.856 1064.26 519.856C1061.36 519.835 1059.91 521.883 1059.91 526ZM1082.86 520.464C1082.22 520.251 1081.61 520.144 1081.04 520.144C1080.12 520.144 1079.39 520.4 1078.86 520.912C1078.33 521.403 1078 522.032 1077.87 522.8V534H1075.31V518H1077.1L1077.58 519.952H1077.71C1078.11 519.227 1078.59 518.672 1079.15 518.288C1079.72 517.883 1080.45 517.68 1081.32 517.68C1081.94 517.68 1082.64 517.787 1083.4 518L1082.86 520.464ZM1095.56 534V524.944C1095.56 524.091 1095.52 523.355 1095.43 522.736C1095.37 522.096 1095.23 521.563 1095.01 521.136C1094.8 520.709 1094.49 520.389 1094.09 520.176C1093.7 519.963 1093.19 519.856 1092.55 519.856C1091.57 519.856 1090.75 520.155 1090.09 520.752C1089.45 521.349 1089 522.096 1088.74 522.992V534H1086.18V518H1087.97L1088.45 519.952H1088.58C1089.16 519.269 1089.82 518.715 1090.57 518.288C1091.33 517.84 1092.33 517.616 1093.54 517.616C1094.57 517.616 1095.4 517.819 1096.04 518.224C1096.7 518.608 1097.21 519.291 1097.57 520.272C1098.07 519.44 1098.74 518.789 1099.59 518.32C1100.47 517.851 1101.45 517.616 1102.53 517.616C1103.43 517.616 1104.19 517.723 1104.81 517.936C1105.43 518.128 1105.94 518.48 1106.34 518.992C1106.75 519.504 1107.04 520.197 1107.21 521.072C1107.4 521.947 1107.49 523.056 1107.49 524.4V534H1104.93V524.368C1104.93 523.6 1104.89 522.939 1104.81 522.384C1104.74 521.808 1104.59 521.339 1104.36 520.976C1104.15 520.592 1103.84 520.315 1103.43 520.144C1103.05 519.952 1102.53 519.856 1101.89 519.856C1100.83 519.856 1100 520.155 1099.4 520.752C1098.8 521.349 1098.37 522.203 1098.12 523.312V534H1095.56ZM1111.9 519.184C1112.71 518.693 1113.64 518.331 1114.71 518.096C1115.8 517.861 1116.93 517.744 1118.1 517.744C1119.21 517.744 1120.1 517.893 1120.76 518.192C1121.44 518.491 1121.95 518.885 1122.3 519.376C1122.66 519.845 1122.89 520.368 1123 520.944C1123.13 521.52 1123.19 522.096 1123.19 522.672C1123.19 523.952 1123.16 525.2 1123.1 526.416C1123.03 527.632 1123 528.784 1123 529.872C1123 530.661 1123.03 531.408 1123.1 532.112C1123.16 532.816 1123.28 533.467 1123.45 534.064H1121.56L1120.89 531.824H1120.73C1120.54 532.123 1120.29 532.421 1119.99 532.72C1119.71 532.997 1119.37 533.253 1118.97 533.488C1118.56 533.701 1118.09 533.883 1117.56 534.032C1117.03 534.181 1116.42 534.256 1115.74 534.256C1115.05 534.256 1114.41 534.149 1113.82 533.936C1113.24 533.723 1112.74 533.424 1112.31 533.04C1111.88 532.635 1111.54 532.155 1111.29 531.6C1111.05 531.045 1110.94 530.416 1110.94 529.712C1110.94 528.773 1111.13 527.995 1111.51 527.376C1111.9 526.736 1112.43 526.235 1113.11 525.872C1113.82 525.488 1114.65 525.221 1115.61 525.072C1116.59 524.901 1117.67 524.816 1118.84 524.816C1119.14 524.816 1119.43 524.816 1119.7 524.816C1120 524.816 1120.3 524.837 1120.6 524.88C1120.66 524.24 1120.7 523.664 1120.7 523.152C1120.7 521.979 1120.46 521.157 1119.99 520.688C1119.52 520.219 1118.67 519.984 1117.43 519.984C1117.07 519.984 1116.67 520.016 1116.25 520.08C1115.84 520.123 1115.42 520.197 1114.97 520.304C1114.54 520.389 1114.12 520.507 1113.72 520.656C1113.34 520.784 1112.99 520.933 1112.7 521.104L1111.9 519.184ZM1116.44 532.016C1117.04 532.016 1117.57 531.941 1118.04 531.792C1118.51 531.621 1118.91 531.419 1119.26 531.184C1119.6 530.928 1119.87 530.651 1120.09 530.352C1120.32 530.053 1120.49 529.765 1120.6 529.488V526.832C1120.3 526.811 1119.99 526.8 1119.67 526.8C1119.37 526.779 1119.07 526.768 1118.78 526.768C1118.11 526.768 1117.46 526.811 1116.82 526.896C1116.2 526.96 1115.65 527.099 1115.16 527.312C1114.69 527.504 1114.31 527.781 1114.01 528.144C1113.73 528.485 1113.59 528.923 1113.59 529.456C1113.59 530.203 1113.86 530.821 1114.39 531.312C1114.92 531.781 1115.61 532.016 1116.44 532.016ZM1125.91 518H1128.41V514.832L1130.97 514.096V518H1135.32V520.24H1130.97V529.104C1130.97 530.213 1131.11 531.003 1131.39 531.472C1131.66 531.92 1132.13 532.144 1132.79 532.144C1133.35 532.144 1133.82 532.091 1134.2 531.984C1134.59 531.856 1135.01 531.696 1135.48 531.504L1136.06 533.456C1135.48 533.733 1134.85 533.957 1134.17 534.128C1133.49 534.299 1132.75 534.384 1131.96 534.384C1130.66 534.384 1129.74 534.021 1129.21 533.296C1128.68 532.549 1128.41 531.312 1128.41 529.584V520.24H1125.91V518ZM1139.41 518H1141.97V534H1139.41V518ZM1138.87 513.136C1138.87 512.645 1139.03 512.229 1139.35 511.888C1139.69 511.525 1140.12 511.344 1140.63 511.344C1141.14 511.344 1141.58 511.525 1141.94 511.888C1142.3 512.229 1142.49 512.645 1142.49 513.136C1142.49 513.627 1142.3 514.032 1141.94 514.352C1141.58 514.672 1141.14 514.832 1140.63 514.832C1140.12 514.832 1139.69 514.672 1139.35 514.352C1139.03 514.032 1138.87 513.627 1138.87 513.136ZM1146.54 526C1146.54 523.291 1147.13 521.221 1148.33 519.792C1149.54 518.341 1151.28 517.616 1153.54 517.616C1154.74 517.616 1155.77 517.819 1156.65 518.224C1157.54 518.608 1158.28 519.173 1158.86 519.92C1159.43 520.645 1159.86 521.531 1160.14 522.576C1160.41 523.6 1160.55 524.741 1160.55 526C1160.55 528.709 1159.94 530.789 1158.73 532.24C1157.53 533.669 1155.81 534.384 1153.54 534.384C1152.35 534.384 1151.3 534.192 1150.41 533.808C1149.53 533.403 1148.81 532.837 1148.23 532.112C1147.66 531.365 1147.23 530.48 1146.95 529.456C1146.68 528.411 1146.54 527.259 1146.54 526ZM1149.19 526C1149.19 526.811 1149.27 527.589 1149.42 528.336C1149.59 529.083 1149.84 529.733 1150.18 530.288C1150.53 530.843 1150.97 531.291 1151.53 531.632C1152.08 531.973 1152.76 532.144 1153.54 532.144C1156.45 532.165 1157.9 530.117 1157.9 526C1157.9 525.168 1157.81 524.379 1157.64 523.632C1157.49 522.885 1157.25 522.235 1156.9 521.68C1156.56 521.125 1156.12 520.688 1155.56 520.368C1155.01 520.027 1154.33 519.856 1153.54 519.856C1150.64 519.835 1149.19 521.883 1149.19 526ZM1174.86 534V524.88C1174.86 523.216 1174.62 521.968 1174.13 521.136C1173.66 520.283 1172.78 519.856 1171.5 519.856C1170.37 519.856 1169.43 520.165 1168.69 520.784C1167.96 521.381 1167.45 522.139 1167.15 523.056V534H1164.59V518H1166.38L1166.86 519.952H1166.99C1167.5 519.269 1168.18 518.715 1169.04 518.288C1169.91 517.84 1170.95 517.616 1172.14 517.616C1173.02 517.616 1173.78 517.723 1174.45 517.936C1175.11 518.128 1175.65 518.48 1176.08 518.992C1176.53 519.504 1176.86 520.197 1177.07 521.072C1177.3 521.925 1177.42 523.013 1177.42 524.336V534H1174.86ZM1200.5 527.792H1192.25L1190.01 534H1187.38L1195.86 511.248H1197.08L1205.59 534H1202.81L1200.5 527.792ZM1193.11 525.488H1199.7L1197.21 518.672L1196.41 515.28H1196.37L1195.57 518.736L1193.11 525.488ZM1215.86 520.464C1215.22 520.251 1214.61 520.144 1214.04 520.144C1213.12 520.144 1212.39 520.4 1211.86 520.912C1211.33 521.403 1211 522.032 1210.87 522.8V534H1208.31V518H1210.1L1210.58 519.952H1210.71C1211.11 519.227 1211.59 518.672 1212.15 518.288C1212.72 517.883 1213.45 517.68 1214.32 517.68C1214.94 517.68 1215.64 517.787 1216.4 518L1215.86 520.464ZM1230.09 532.944C1229.45 533.413 1228.7 533.765 1227.82 534C1226.95 534.256 1226.03 534.384 1225.07 534.384C1223.83 534.384 1222.79 534.192 1221.93 533.808C1221.08 533.403 1220.38 532.837 1219.82 532.112C1219.29 531.365 1218.89 530.48 1218.64 529.456C1218.4 528.411 1218.29 527.259 1218.29 526C1218.29 523.291 1218.88 521.221 1220.08 519.792C1221.27 518.341 1222.99 517.616 1225.23 517.616C1226.25 517.616 1227.12 517.701 1227.82 517.872C1228.55 518.021 1229.2 518.245 1229.77 518.544L1229.04 520.752C1228.55 520.475 1228 520.261 1227.41 520.112C1226.81 519.941 1226.17 519.856 1225.49 519.856C1222.46 519.856 1220.94 521.904 1220.94 526C1220.94 526.811 1221.02 527.589 1221.17 528.336C1221.34 529.061 1221.6 529.712 1221.97 530.288C1222.35 530.843 1222.84 531.291 1223.44 531.632C1224.06 531.973 1224.81 532.144 1225.71 532.144C1226.48 532.144 1227.16 532.027 1227.76 531.792C1228.38 531.557 1228.88 531.291 1229.26 530.992L1230.09 532.944ZM1243.89 534V524.88C1243.89 524.048 1243.84 523.323 1243.73 522.704C1243.65 522.064 1243.48 521.541 1243.22 521.136C1242.96 520.709 1242.61 520.389 1242.16 520.176C1241.74 519.963 1241.17 519.856 1240.47 519.856C1239.47 519.856 1238.56 520.187 1237.75 520.848C1236.94 521.488 1236.41 522.32 1236.18 523.344V534H1233.62V511.6H1236.18V519.792H1236.31C1236.86 519.131 1237.52 518.608 1238.29 518.224C1239.08 517.819 1240.05 517.616 1241.2 517.616C1242.1 517.616 1242.88 517.723 1243.54 517.936C1244.2 518.128 1244.75 518.48 1245.17 518.992C1245.62 519.504 1245.94 520.197 1246.13 521.072C1246.35 521.925 1246.45 523.013 1246.45 524.336V534H1243.89ZM1251.66 518H1254.22V534H1251.66V518ZM1251.12 513.136C1251.12 512.645 1251.28 512.229 1251.6 511.888C1251.94 511.525 1252.37 511.344 1252.88 511.344C1253.39 511.344 1253.83 511.525 1254.19 511.888C1254.55 512.229 1254.74 512.645 1254.74 513.136C1254.74 513.627 1254.55 514.032 1254.19 514.352C1253.83 514.672 1253.39 514.832 1252.88 514.832C1252.37 514.832 1251.94 514.672 1251.6 514.352C1251.28 514.032 1251.12 513.627 1251.12 513.136ZM1257.57 518H1260.07V514.832L1262.63 514.096V518H1266.98V520.24H1262.63V529.104C1262.63 530.213 1262.77 531.003 1263.04 531.472C1263.32 531.92 1263.79 532.144 1264.45 532.144C1265.01 532.144 1265.47 532.091 1265.86 531.984C1266.24 531.856 1266.67 531.696 1267.14 531.504L1267.71 533.456C1267.14 533.733 1266.51 533.957 1265.83 534.128C1265.14 534.299 1264.41 534.384 1263.62 534.384C1262.32 534.384 1261.4 534.021 1260.87 533.296C1260.33 532.549 1260.07 531.312 1260.07 529.584V520.24H1257.57V518ZM1281.86 532.72C1281.22 533.232 1280.41 533.637 1279.43 533.936C1278.47 534.235 1277.45 534.384 1276.36 534.384C1275.14 534.384 1274.09 534.192 1273.19 533.808C1272.29 533.403 1271.56 532.837 1270.98 532.112C1270.41 531.365 1269.98 530.48 1269.7 529.456C1269.43 528.432 1269.29 527.28 1269.29 526C1269.29 523.269 1269.89 521.189 1271.11 519.76C1272.33 518.331 1274.07 517.616 1276.33 517.616C1277.05 517.616 1277.78 517.701 1278.5 517.872C1279.23 518.021 1279.88 518.32 1280.45 518.768C1281.03 519.216 1281.5 519.856 1281.86 520.688C1282.23 521.499 1282.41 522.576 1282.41 523.92C1282.41 524.624 1282.34 525.403 1282.21 526.256H1271.94C1271.94 527.195 1272.04 528.027 1272.23 528.752C1272.42 529.477 1272.72 530.096 1273.13 530.608C1273.53 531.099 1274.05 531.483 1274.69 531.76C1275.36 532.016 1276.16 532.144 1277.09 532.144C1277.82 532.144 1278.55 532.016 1279.27 531.76C1280 531.504 1280.54 531.205 1280.9 530.864L1281.86 532.72ZM1276.36 519.856C1275.1 519.856 1274.09 520.187 1273.32 520.848C1272.57 521.509 1272.12 522.64 1271.97 524.24H1279.91C1279.91 522.619 1279.6 521.488 1278.98 520.848C1278.36 520.187 1277.49 519.856 1276.36 519.856ZM1297 532.944C1296.36 533.413 1295.6 533.765 1294.73 534C1293.85 534.256 1292.94 534.384 1291.98 534.384C1290.74 534.384 1289.69 534.192 1288.84 533.808C1287.99 533.403 1287.28 532.837 1286.73 532.112C1286.2 531.365 1285.8 530.48 1285.55 529.456C1285.31 528.411 1285.19 527.259 1285.19 526C1285.19 523.291 1285.79 521.221 1286.99 519.792C1288.18 518.341 1289.9 517.616 1292.14 517.616C1293.16 517.616 1294.03 517.701 1294.73 517.872C1295.45 518.021 1296.11 518.245 1296.68 518.544L1295.95 520.752C1295.45 520.475 1294.91 520.261 1294.31 520.112C1293.72 519.941 1293.08 519.856 1292.39 519.856C1289.36 519.856 1287.85 521.904 1287.85 526C1287.85 526.811 1287.92 527.589 1288.07 528.336C1288.24 529.061 1288.51 529.712 1288.87 530.288C1289.26 530.843 1289.75 531.291 1290.35 531.632C1290.96 531.973 1291.72 532.144 1292.62 532.144C1293.39 532.144 1294.07 532.027 1294.67 531.792C1295.28 531.557 1295.79 531.291 1296.17 530.992L1297 532.944ZM1298.41 518H1300.91V514.832L1303.47 514.096V518H1307.82V520.24H1303.47V529.104C1303.47 530.213 1303.61 531.003 1303.89 531.472C1304.16 531.92 1304.63 532.144 1305.29 532.144C1305.85 532.144 1306.32 532.091 1306.7 531.984C1307.09 531.856 1307.51 531.696 1307.98 531.504L1308.56 533.456C1307.98 533.733 1307.35 533.957 1306.67 534.128C1305.99 534.299 1305.25 534.384 1304.46 534.384C1303.16 534.384 1302.24 534.021 1301.71 533.296C1301.18 532.549 1300.91 531.312 1300.91 529.584V520.24H1298.41V518ZM1313.67 518V527.12C1313.67 527.952 1313.72 528.688 1313.8 529.328C1313.91 529.947 1314.08 530.469 1314.31 530.896C1314.55 531.301 1314.87 531.611 1315.27 531.824C1315.68 532.037 1316.19 532.144 1316.81 532.144C1317.39 532.144 1317.9 532.059 1318.35 531.888C1318.79 531.696 1319.19 531.44 1319.53 531.12C1319.89 530.8 1320.2 530.437 1320.46 530.032C1320.74 529.605 1320.96 529.157 1321.13 528.688V518H1323.69V529.456C1323.69 530.224 1323.71 531.024 1323.75 531.856C1323.82 532.667 1323.91 533.381 1324.04 534H1322.28L1321.64 531.472H1321.48C1320.99 532.304 1320.33 532.997 1319.5 533.552C1318.67 534.107 1317.61 534.384 1316.33 534.384C1315.48 534.384 1314.72 534.277 1314.06 534.064C1313.42 533.872 1312.87 533.52 1312.43 533.008C1312 532.496 1311.67 531.813 1311.43 530.96C1311.22 530.085 1311.11 528.987 1311.11 527.664V518H1313.67ZM1336.17 520.464C1335.53 520.251 1334.92 520.144 1334.35 520.144C1333.43 520.144 1332.71 520.4 1332.17 520.912C1331.64 521.403 1331.31 522.032 1331.18 522.8V534H1328.62V518H1330.41L1330.89 519.952H1331.02C1331.43 519.227 1331.91 518.672 1332.46 518.288C1333.04 517.883 1333.76 517.68 1334.64 517.68C1335.25 517.68 1335.95 517.787 1336.72 518L1336.17 520.464ZM1351.18 532.72C1350.54 533.232 1349.72 533.637 1348.74 533.936C1347.78 534.235 1346.76 534.384 1345.67 534.384C1344.46 534.384 1343.4 534.192 1342.5 533.808C1341.61 533.403 1340.87 532.837 1340.3 532.112C1339.72 531.365 1339.29 530.48 1339.02 529.456C1338.74 528.432 1338.6 527.28 1338.6 526C1338.6 523.269 1339.21 521.189 1340.42 519.76C1341.64 518.331 1343.38 517.616 1345.64 517.616C1346.36 517.616 1347.09 517.701 1347.82 517.872C1348.54 518.021 1349.19 518.32 1349.77 518.768C1350.34 519.216 1350.81 519.856 1351.18 520.688C1351.54 521.499 1351.72 522.576 1351.72 523.92C1351.72 524.624 1351.66 525.403 1351.53 526.256H1341.26C1341.26 527.195 1341.35 528.027 1341.54 528.752C1341.74 529.477 1342.03 530.096 1342.44 530.608C1342.84 531.099 1343.37 531.483 1344.01 531.76C1344.67 532.016 1345.47 532.144 1346.41 532.144C1347.13 532.144 1347.86 532.016 1348.58 531.76C1349.31 531.504 1349.85 531.205 1350.22 530.864L1351.18 532.72ZM1345.67 519.856C1344.41 519.856 1343.4 520.187 1342.63 520.848C1341.88 521.509 1341.44 522.64 1341.29 524.24H1349.22C1349.22 522.619 1348.91 521.488 1348.3 520.848C1347.68 520.187 1346.8 519.856 1345.67 519.856Z" fill="black"/>
<rect x="1129.5" y="325.5" width="292" height="87" rx="24.5" stroke="black"/>
<path d="M1199.77 367.832H1207.29V377.688C1206.95 377.944 1206.53 378.179 1206.04 378.392C1205.57 378.605 1205.06 378.787 1204.51 378.936C1203.97 379.085 1203.41 379.192 1202.81 379.256C1202.24 379.341 1201.67 379.384 1201.12 379.384C1199.69 379.384 1198.37 379.16 1197.18 378.712C1195.99 378.243 1194.95 377.539 1194.08 376.6C1193.2 375.64 1192.52 374.435 1192.03 372.984C1191.54 371.512 1191.29 369.784 1191.29 367.8C1191.29 365.731 1191.59 363.96 1192.19 362.488C1192.79 361.016 1193.56 359.821 1194.52 358.904C1195.48 357.965 1196.56 357.283 1197.76 356.856C1198.95 356.429 1200.15 356.216 1201.34 356.216C1202.62 356.216 1203.68 356.291 1204.51 356.44C1205.34 356.568 1206.04 356.749 1206.62 356.984L1205.95 359.32C1204.92 358.829 1203.46 358.584 1201.56 358.584C1200.67 358.584 1199.77 358.744 1198.88 359.064C1198 359.363 1197.21 359.875 1196.51 360.6C1195.8 361.325 1195.23 362.275 1194.78 363.448C1194.33 364.621 1194.11 366.072 1194.11 367.8C1194.11 369.379 1194.29 370.744 1194.65 371.896C1195.01 373.048 1195.52 374.008 1196.16 374.776C1196.82 375.523 1197.61 376.088 1198.52 376.472C1199.44 376.835 1200.44 377.016 1201.53 377.016C1202.9 377.016 1204.06 376.749 1205.02 376.216V369.976L1199.77 369.336V367.832ZM1210.89 367.8C1210.89 364.067 1211.68 361.208 1213.25 359.224C1214.83 357.219 1217.08 356.216 1220.01 356.216C1221.58 356.216 1222.95 356.493 1224.1 357.048C1225.25 357.603 1226.2 358.392 1226.95 359.416C1227.72 360.419 1228.28 361.635 1228.65 363.064C1229.01 364.472 1229.19 366.051 1229.19 367.8C1229.19 371.533 1228.39 374.403 1226.79 376.408C1225.21 378.392 1222.95 379.384 1220.01 379.384C1218.45 379.384 1217.09 379.107 1215.94 378.552C1214.81 377.997 1213.86 377.219 1213.09 376.216C1212.35 375.192 1211.79 373.976 1211.43 372.568C1211.07 371.139 1210.89 369.549 1210.89 367.8ZM1213.7 367.8C1213.7 369.037 1213.82 370.211 1214.05 371.32C1214.31 372.429 1214.69 373.411 1215.21 374.264C1215.72 375.096 1216.37 375.768 1217.16 376.28C1217.97 376.771 1218.92 377.016 1220.01 377.016C1221.99 377.016 1223.55 376.269 1224.68 374.776C1225.81 373.261 1226.37 370.936 1226.37 367.8C1226.37 366.584 1226.25 365.421 1225.99 364.312C1225.76 363.181 1225.37 362.2 1224.84 361.368C1224.33 360.515 1223.66 359.843 1222.85 359.352C1222.06 358.84 1221.12 358.584 1220.01 358.584C1218.04 358.584 1216.5 359.341 1215.37 360.856C1214.26 362.349 1213.7 364.664 1213.7 367.8ZM1250.9 363.96L1251.22 360.6H1251.06L1249.85 363.672L1244.02 373.784H1243.22L1237.05 363.64L1235.9 360.6H1235.74L1236.18 363.928V379H1233.69V356.6H1235.67L1242.68 368.056L1243.74 370.552H1243.8L1244.79 367.992L1251.48 356.6H1253.56V379H1250.9V363.96ZM1269.11 373.304C1269.11 372.408 1268.85 371.683 1268.31 371.128C1267.78 370.552 1267.11 370.051 1266.3 369.624C1265.51 369.176 1264.64 368.76 1263.71 368.376C1262.77 367.992 1261.89 367.533 1261.08 367C1260.29 366.445 1259.63 365.773 1259.1 364.984C1258.56 364.173 1258.3 363.149 1258.3 361.912C1258.3 360.163 1258.91 358.776 1260.12 357.752C1261.34 356.728 1263.07 356.216 1265.31 356.216C1266.61 356.216 1267.79 356.312 1268.86 356.504C1269.92 356.696 1270.76 356.941 1271.35 357.24L1270.55 359.576C1270.06 359.341 1269.34 359.117 1268.38 358.904C1267.44 358.691 1266.37 358.584 1265.18 358.584C1263.77 358.584 1262.71 358.904 1262.01 359.544C1261.31 360.163 1260.95 360.899 1260.95 361.752C1260.95 362.584 1261.22 363.277 1261.75 363.832C1262.29 364.387 1262.95 364.888 1263.74 365.336C1264.55 365.763 1265.42 366.189 1266.36 366.616C1267.3 367.043 1268.16 367.544 1268.95 368.12C1269.76 368.675 1270.44 369.347 1270.97 370.136C1271.5 370.925 1271.77 371.907 1271.77 373.08C1271.77 374.04 1271.6 374.904 1271.26 375.672C1270.92 376.44 1270.41 377.101 1269.75 377.656C1269.09 378.211 1268.29 378.637 1267.35 378.936C1266.41 379.235 1265.35 379.384 1264.15 379.384C1262.55 379.384 1261.23 379.256 1260.19 379C1259.14 378.765 1258.33 378.499 1257.75 378.2L1258.65 375.8C1259.14 376.077 1259.87 376.355 1260.83 376.632C1261.79 376.888 1262.86 377.016 1264.06 377.016C1264.76 377.016 1265.42 376.952 1266.04 376.824C1266.66 376.675 1267.19 376.451 1267.64 376.152C1268.09 375.832 1268.44 375.437 1268.7 374.968C1268.97 374.499 1269.11 373.944 1269.11 373.304ZM1289.08 386.04C1288.1 385.016 1287.26 383.885 1286.58 382.648C1285.9 381.432 1285.34 380.184 1284.92 378.904C1284.51 377.603 1284.21 376.301 1284.02 375C1283.83 373.677 1283.73 372.419 1283.73 371.224C1283.73 370.051 1283.83 368.813 1284.02 367.512C1284.21 366.211 1284.52 364.909 1284.95 363.608C1285.38 362.285 1285.93 360.995 1286.61 359.736C1287.32 358.477 1288.17 357.304 1289.17 356.216L1290.71 357.336C1289.86 358.424 1289.14 359.555 1288.56 360.728C1288.01 361.88 1287.56 363.053 1287.22 364.248C1286.88 365.443 1286.63 366.637 1286.48 367.832C1286.36 369.005 1286.29 370.136 1286.29 371.224C1286.29 372.248 1286.37 373.368 1286.52 374.584C1286.69 375.779 1286.94 376.984 1287.28 378.2C1287.65 379.395 1288.11 380.568 1288.66 381.72C1289.24 382.872 1289.92 383.917 1290.71 384.856L1289.08 386.04ZM1297.66 368.632H1296.16V379H1293.5V356.6H1296.16V367.032L1297.6 366.584L1305.12 356.6H1308.19L1300.7 366.232L1299.36 367.288L1300.99 368.568L1309.18 379H1305.82L1297.66 368.632ZM1326.28 379H1313.03V356.6H1315.69V376.632H1326.28V379ZM1346.78 363.96L1347.1 360.6H1346.94L1345.72 363.672L1339.9 373.784H1339.1L1332.92 363.64L1331.77 360.6H1331.61L1332.06 363.928V379H1329.56V356.6H1331.55L1338.56 368.056L1339.61 370.552H1339.68L1340.67 367.992L1347.36 356.6H1349.44V379H1346.78V363.96ZM1353.85 356.216C1354.83 357.24 1355.67 358.371 1356.35 359.608C1357.03 360.824 1357.57 362.083 1357.98 363.384C1358.41 364.664 1358.72 365.965 1358.91 367.288C1359.1 368.589 1359.2 369.837 1359.2 371.032C1359.2 372.205 1359.1 373.443 1358.91 374.744C1358.72 376.045 1358.41 377.357 1357.98 378.68C1357.55 379.981 1356.99 381.261 1356.28 382.52C1355.6 383.779 1354.76 384.952 1353.76 386.04L1352.22 384.92C1353.07 383.832 1353.79 382.701 1354.36 381.528C1354.94 380.355 1355.39 379.171 1355.71 377.976C1356.05 376.781 1356.28 375.597 1356.41 374.424C1356.56 373.251 1356.64 372.12 1356.64 371.032C1356.64 370.008 1356.55 368.899 1356.38 367.704C1356.21 366.509 1355.94 365.304 1355.58 364.088C1355.24 362.872 1354.79 361.688 1354.24 360.536C1353.68 359.384 1353.01 358.339 1352.22 357.4L1353.85 356.216Z" fill="black"/>
</svg>
