<svg width="1920" height="721" viewBox="0 0 1920 721" fill="none" xmlns="http://www.w3.org/2000/svg">
<rect width="1920" height="721" fill="#F1F3F2"/>
<path d="M493.268 117.864C493.268 119.544 492.908 121.044 492.188 122.364C491.492 123.66 490.436 124.68 489.02 125.424C487.628 126.168 485.948 126.54 483.98 126.54C481.004 126.54 478.724 125.76 477.14 124.2C475.556 122.616 474.764 120.504 474.764 117.864V101.124H479.516V117.612C479.516 119.364 479.876 120.672 480.596 121.536C481.34 122.4 482.468 122.832 483.98 122.832C485.516 122.832 486.644 122.4 487.364 121.536C488.108 120.672 488.48 119.364 488.48 117.612V101.124H493.268V117.864ZM504.441 106.416C507.009 106.416 509.265 107.172 511.209 108.684L509.409 111.384C507.777 110.352 506.181 109.836 504.621 109.836C503.709 109.836 503.001 110.016 502.497 110.376C501.993 110.712 501.741 111.168 501.741 111.744C501.741 112.176 501.849 112.536 502.065 112.824C502.281 113.112 502.665 113.388 503.217 113.652C503.793 113.892 504.633 114.168 505.737 114.48C507.801 115.032 509.325 115.764 510.309 116.676C511.317 117.588 511.821 118.86 511.821 120.492C511.821 122.388 511.053 123.876 509.517 124.956C507.981 126.012 506.073 126.54 503.793 126.54C502.233 126.54 500.805 126.3 499.509 125.82C498.237 125.34 497.133 124.68 496.197 123.84L498.501 121.248C500.157 122.496 501.885 123.12 503.685 123.12C504.717 123.12 505.533 122.916 506.133 122.508C506.757 122.1 507.069 121.536 507.069 120.816C507.069 120.264 506.949 119.832 506.709 119.52C506.493 119.184 506.085 118.896 505.485 118.656C504.909 118.392 503.997 118.08 502.749 117.72C500.805 117.192 499.377 116.46 498.465 115.524C497.553 114.564 497.097 113.376 497.097 111.96C497.097 110.904 497.397 109.956 497.997 109.116C498.621 108.276 499.485 107.616 500.589 107.136C501.717 106.656 503.001 106.416 504.441 106.416ZM520.158 106.956V126H515.55V106.956H520.158ZM517.818 97.308C518.682 97.308 519.378 97.584 519.906 98.136C520.458 98.664 520.734 99.324 520.734 100.116C520.734 100.908 520.458 101.568 519.906 102.096C519.378 102.624 518.682 102.888 517.818 102.888C516.978 102.888 516.282 102.624 515.73 102.096C515.202 101.568 514.938 100.908 514.938 100.116C514.938 99.324 515.202 98.664 515.73 98.136C516.282 97.584 516.978 97.308 517.818 97.308ZM535.862 106.416C537.566 106.416 538.886 106.932 539.822 107.964C540.782 108.972 541.262 110.388 541.262 112.212V126H536.654V112.932C536.654 111.804 536.45 111.012 536.042 110.556C535.658 110.1 535.082 109.872 534.314 109.872C533.522 109.872 532.802 110.124 532.154 110.628C531.53 111.108 530.918 111.816 530.318 112.752V126H525.71V106.956H529.706L530.066 109.44C531.626 107.424 533.558 106.416 535.862 106.416ZM563.188 107.964C561.964 108.396 560.128 108.612 557.68 108.612C558.856 109.14 559.72 109.8 560.272 110.592C560.848 111.36 561.136 112.332 561.136 113.508C561.136 114.756 560.824 115.86 560.2 116.82C559.6 117.78 558.712 118.536 557.536 119.088C556.384 119.64 555.028 119.916 553.468 119.916C552.604 119.916 551.848 119.82 551.2 119.628C550.672 119.988 550.408 120.456 550.408 121.032C550.408 121.92 551.176 122.364 552.712 122.364H555.628C557.02 122.364 558.232 122.592 559.264 123.048C560.32 123.504 561.136 124.152 561.712 124.992C562.288 125.808 562.576 126.732 562.576 127.764C562.576 129.684 561.76 131.172 560.128 132.228C558.496 133.308 556.144 133.848 553.072 133.848C550.864 133.848 549.124 133.62 547.852 133.164C546.604 132.708 545.716 132.048 545.188 131.184C544.66 130.32 544.396 129.216 544.396 127.872H548.536C548.536 128.544 548.656 129.072 548.896 129.456C549.16 129.84 549.616 130.128 550.264 130.32C550.936 130.512 551.896 130.608 553.144 130.608C554.896 130.608 556.132 130.392 556.852 129.96C557.572 129.528 557.932 128.904 557.932 128.088C557.932 127.368 557.656 126.804 557.104 126.396C556.552 126.012 555.748 125.82 554.692 125.82H551.812C550.012 125.82 548.656 125.472 547.744 124.776C546.832 124.08 546.376 123.204 546.376 122.148C546.376 121.476 546.568 120.828 546.952 120.204C547.36 119.58 547.912 119.052 548.608 118.62C547.456 118.02 546.604 117.288 546.052 116.424C545.524 115.536 545.26 114.48 545.26 113.256C545.26 111.888 545.596 110.688 546.268 109.656C546.94 108.624 547.864 107.832 549.04 107.28C550.24 106.704 551.608 106.416 553.144 106.416C555.16 106.464 556.78 106.32 558.004 105.984C559.252 105.624 560.596 105.06 562.036 104.292L563.188 107.964ZM553.216 109.548C552.184 109.548 551.368 109.884 550.768 110.556C550.192 111.204 549.904 112.08 549.904 113.184C549.904 114.336 550.204 115.248 550.804 115.92C551.404 116.592 552.232 116.928 553.288 116.928C554.392 116.928 555.232 116.604 555.808 115.956C556.384 115.284 556.672 114.348 556.672 113.148C556.672 110.748 555.52 109.548 553.216 109.548ZM585.152 100.584C586.784 100.584 588.224 100.836 589.472 101.34C590.744 101.82 591.944 102.54 593.072 103.5L590.516 106.164C589.628 105.468 588.788 104.964 587.996 104.652C587.228 104.34 586.328 104.184 585.296 104.184C583.376 104.184 581.804 104.952 580.58 106.488C579.356 108.024 578.744 110.376 578.744 113.544C578.744 116.856 579.224 119.244 580.184 120.708C581.168 122.172 582.656 122.904 584.648 122.904C586.16 122.904 587.48 122.58 588.608 121.932V115.452H584.864L584.36 111.924H593.288V124.092C590.6 125.724 587.744 126.54 584.72 126.54C581.168 126.54 578.444 125.436 576.548 123.228C574.676 121.02 573.74 117.792 573.74 113.544C573.74 110.832 574.244 108.504 575.252 106.56C576.284 104.592 577.664 103.104 579.392 102.096C581.12 101.088 583.04 100.584 585.152 100.584ZM607.605 100.584C609.837 100.584 611.769 101.088 613.401 102.096C615.033 103.104 616.281 104.58 617.145 106.524C618.033 108.468 618.477 110.808 618.477 113.544C618.477 116.256 618.033 118.584 617.145 120.528C616.257 122.472 614.997 123.96 613.365 124.992C611.733 126.024 609.813 126.54 607.605 126.54C605.373 126.54 603.441 126.036 601.809 125.028C600.177 124.02 598.917 122.544 598.029 120.6C597.141 118.656 596.697 116.316 596.697 113.58C596.697 110.892 597.141 108.576 598.029 106.632C598.917 104.664 600.177 103.164 601.809 102.132C603.465 101.1 605.397 100.584 607.605 100.584ZM607.605 104.22C605.685 104.22 604.221 104.976 603.213 106.488C602.205 107.976 601.701 110.34 601.701 113.58C601.701 119.796 603.669 122.904 607.605 122.904C609.525 122.904 610.977 122.16 611.961 120.672C612.969 119.184 613.473 116.808 613.473 113.544C613.473 110.304 612.969 107.94 611.961 106.452C610.977 104.964 609.525 104.22 607.605 104.22ZM646.254 126H641.61L640.962 115.596C640.746 111.876 640.638 108.924 640.638 106.74V105.444L636.102 123.3H631.602L626.778 105.408C626.826 106.992 626.85 108.192 626.85 109.008C626.85 111.192 626.778 113.436 626.634 115.74L626.022 126H621.414L623.394 101.124H629.514L633.942 118.548L638.118 101.124H644.31L646.254 126ZM657.471 100.584C659.223 100.584 660.747 100.836 662.043 101.34C663.339 101.844 664.551 102.612 665.679 103.644L663.339 106.344C662.451 105.6 661.551 105.06 660.639 104.724C659.751 104.388 658.791 104.22 657.759 104.22C656.607 104.22 655.671 104.484 654.951 105.012C654.255 105.516 653.907 106.236 653.907 107.172C653.907 107.796 654.039 108.312 654.303 108.72C654.591 109.128 655.095 109.512 655.815 109.872C656.535 110.232 657.603 110.628 659.019 111.06C661.467 111.828 663.303 112.788 664.527 113.94C665.775 115.068 666.399 116.724 666.399 118.908C666.399 120.396 666.015 121.716 665.247 122.868C664.503 124.02 663.423 124.92 662.007 125.568C660.591 126.216 658.911 126.54 656.967 126.54C655.071 126.54 653.367 126.24 651.855 125.64C650.367 125.016 649.083 124.176 648.003 123.12L650.451 120.384C651.411 121.2 652.407 121.824 653.439 122.256C654.471 122.664 655.611 122.868 656.859 122.868C658.227 122.868 659.331 122.544 660.171 121.896C661.011 121.248 661.431 120.336 661.431 119.16C661.431 118.44 661.287 117.852 660.999 117.396C660.711 116.916 660.219 116.496 659.523 116.136C658.827 115.752 657.819 115.356 656.499 114.948C653.859 114.132 651.951 113.148 650.775 111.996C649.599 110.844 649.011 109.332 649.011 107.46C649.011 106.092 649.371 104.892 650.091 103.86C650.811 102.828 651.807 102.024 653.079 101.448C654.375 100.872 655.839 100.584 657.471 100.584ZM694.932 116.028C694.932 116.268 694.896 116.892 694.824 117.9H682.872C683.016 119.748 683.496 121.068 684.312 121.86C685.128 122.652 686.208 123.048 687.552 123.048C688.392 123.048 689.184 122.916 689.928 122.652C690.672 122.364 691.464 121.932 692.304 121.356L694.212 123.984C692.1 125.688 689.748 126.54 687.156 126.54C684.252 126.54 682.008 125.652 680.424 123.876C678.864 122.1 678.084 119.676 678.084 116.604C678.084 114.66 678.42 112.92 679.092 111.384C679.764 109.824 680.736 108.612 682.008 107.748C683.28 106.86 684.792 106.416 686.544 106.416C689.208 106.416 691.272 107.268 692.736 108.972C694.2 110.652 694.932 113.004 694.932 116.028ZM690.36 114.696C690.36 111.36 689.124 109.692 686.652 109.692C685.524 109.692 684.636 110.112 683.988 110.952C683.364 111.768 682.992 113.088 682.872 114.912H690.36V114.696ZM714.155 106.956L707.963 126H702.455L696.155 106.956H701.159L705.227 122.292L709.403 106.956H714.155ZM730.403 120.96C730.403 121.704 730.511 122.256 730.727 122.616C730.967 122.952 731.339 123.216 731.843 123.408L730.871 126.468C729.791 126.372 728.903 126.108 728.207 125.676C727.535 125.244 727.019 124.584 726.659 123.696C726.011 124.656 725.195 125.376 724.211 125.856C723.251 126.312 722.171 126.54 720.971 126.54C719.075 126.54 717.575 126 716.471 124.92C715.367 123.84 714.815 122.424 714.815 120.672C714.815 118.608 715.559 117.036 717.047 115.956C718.559 114.852 720.707 114.3 723.491 114.3H725.867V113.22C725.867 111.996 725.579 111.144 725.003 110.664C724.451 110.16 723.551 109.908 722.303 109.908C720.911 109.908 719.231 110.244 717.263 110.916L716.183 107.784C718.559 106.872 720.863 106.416 723.095 106.416C727.967 106.416 730.403 108.6 730.403 112.968V120.96ZM722.195 123.192C723.755 123.192 724.979 122.412 725.867 120.852V117H723.959C720.983 117 719.495 118.104 719.495 120.312C719.495 121.224 719.723 121.932 720.179 122.436C720.635 122.94 721.307 123.192 722.195 123.192ZM740.128 126.54C738.664 126.54 737.512 126.12 736.672 125.28C735.856 124.416 735.448 123.204 735.448 121.644V99.324L740.056 98.82V121.5C740.056 122.388 740.416 122.832 741.136 122.832C741.496 122.832 741.856 122.772 742.216 122.652L743.188 125.892C742.228 126.324 741.208 126.54 740.128 126.54ZM761.473 126H757.477L757.225 123.336C756.529 124.416 755.701 125.22 754.741 125.748C753.805 126.276 752.689 126.54 751.393 126.54C749.689 126.54 748.369 126.024 747.433 124.992C746.521 123.936 746.065 122.484 746.065 120.636V106.956H750.673V120.06C750.673 121.14 750.853 121.908 751.213 122.364C751.597 122.82 752.197 123.048 753.013 123.048C754.477 123.048 755.761 122.148 756.865 120.348V106.956H761.473V126ZM781.098 120.96C781.098 121.704 781.206 122.256 781.422 122.616C781.662 122.952 782.034 123.216 782.538 123.408L781.566 126.468C780.486 126.372 779.598 126.108 778.902 125.676C778.23 125.244 777.714 124.584 777.354 123.696C776.706 124.656 775.89 125.376 774.906 125.856C773.946 126.312 772.866 126.54 771.666 126.54C769.77 126.54 768.27 126 767.166 124.92C766.062 123.84 765.51 122.424 765.51 120.672C765.51 118.608 766.254 117.036 767.742 115.956C769.254 114.852 771.402 114.3 774.186 114.3H776.562V113.22C776.562 111.996 776.274 111.144 775.698 110.664C775.146 110.16 774.246 109.908 772.998 109.908C771.606 109.908 769.926 110.244 767.958 110.916L766.878 107.784C769.254 106.872 771.558 106.416 773.79 106.416C778.662 106.416 781.098 108.6 781.098 112.968V120.96ZM772.89 123.192C774.45 123.192 775.674 122.412 776.562 120.852V117H774.654C771.678 117 770.19 118.104 770.19 120.312C770.19 121.224 770.418 121.932 770.874 122.436C771.33 122.94 772.002 123.192 772.89 123.192ZM797.583 125.1C796.911 125.58 796.155 125.94 795.315 126.18C794.499 126.42 793.659 126.54 792.795 126.54C790.923 126.516 789.495 125.988 788.511 124.956C787.551 123.9 787.071 122.352 787.071 120.312V110.268H784.083V106.956H787.071V102.744L791.679 102.204V106.956H796.107L795.639 110.268H791.679V120.204C791.679 121.14 791.835 121.812 792.147 122.22C792.483 122.628 792.999 122.832 793.695 122.832C794.391 122.832 795.147 122.604 795.963 122.148L797.583 125.1ZM804.783 106.956V126H800.175V106.956H804.783ZM802.443 97.308C803.307 97.308 804.003 97.584 804.531 98.136C805.083 98.664 805.359 99.324 805.359 100.116C805.359 100.908 805.083 101.568 804.531 102.096C804.003 102.624 803.307 102.888 802.443 102.888C801.603 102.888 800.907 102.624 800.355 102.096C799.827 101.568 799.563 100.908 799.563 100.116C799.563 99.324 799.827 98.664 800.355 98.136C800.907 97.584 801.603 97.308 802.443 97.308ZM818.111 106.416C820.919 106.416 823.103 107.316 824.663 109.116C826.247 110.892 827.039 113.34 827.039 116.46C827.039 118.452 826.679 120.216 825.959 121.752C825.239 123.264 824.207 124.44 822.863 125.28C821.519 126.12 819.923 126.54 818.075 126.54C815.267 126.54 813.071 125.652 811.487 123.876C809.903 122.076 809.111 119.604 809.111 116.46C809.111 114.468 809.471 112.716 810.191 111.204C810.911 109.692 811.943 108.516 813.287 107.676C814.655 106.836 816.263 106.416 818.111 106.416ZM818.111 109.908C815.351 109.908 813.971 112.092 813.971 116.46C813.971 118.716 814.307 120.384 814.979 121.464C815.675 122.52 816.707 123.048 818.075 123.048C819.443 123.048 820.463 122.508 821.135 121.428C821.831 120.348 822.179 118.692 822.179 116.46C822.179 114.228 821.831 112.584 821.135 111.528C820.463 110.448 819.455 109.908 818.111 109.908ZM841.51 106.416C843.214 106.416 844.534 106.932 845.47 107.964C846.43 108.972 846.91 110.388 846.91 112.212V126H842.302V112.932C842.302 111.804 842.098 111.012 841.69 110.556C841.306 110.1 840.73 109.872 839.962 109.872C839.17 109.872 838.45 110.124 837.802 110.628C837.178 111.108 836.566 111.816 835.966 112.752V126H831.358V106.956H835.354L835.714 109.44C837.274 107.424 839.206 106.416 841.51 106.416ZM853.788 120.708C854.628 120.708 855.324 120.984 855.876 121.536C856.452 122.088 856.74 122.784 856.74 123.624C856.74 124.08 856.668 124.548 856.524 125.028C856.38 125.508 856.14 126.12 855.804 126.864L853.464 132.192H850.656L852.132 126C851.316 125.448 850.908 124.644 850.908 123.588C850.908 122.772 851.184 122.088 851.736 121.536C852.288 120.984 852.972 120.708 853.788 120.708ZM893.181 106.956L889.041 126H883.281L880.401 111.06L877.449 126H871.797L867.585 106.956H872.193L874.857 122.616L878.169 106.956H882.885L885.909 122.616L888.753 106.956H893.181ZM911.986 116.028C911.986 116.268 911.95 116.892 911.878 117.9H899.926C900.07 119.748 900.55 121.068 901.366 121.86C902.182 122.652 903.262 123.048 904.606 123.048C905.446 123.048 906.238 122.916 906.982 122.652C907.726 122.364 908.518 121.932 909.358 121.356L911.266 123.984C909.154 125.688 906.802 126.54 904.21 126.54C901.306 126.54 899.062 125.652 897.478 123.876C895.918 122.1 895.138 119.676 895.138 116.604C895.138 114.66 895.474 112.92 896.146 111.384C896.818 109.824 897.79 108.612 899.062 107.748C900.334 106.86 901.846 106.416 903.598 106.416C906.262 106.416 908.326 107.268 909.79 108.972C911.254 110.652 911.986 113.004 911.986 116.028ZM907.414 114.696C907.414 111.36 906.178 109.692 903.706 109.692C902.578 109.692 901.69 110.112 901.042 110.952C900.418 111.768 900.046 113.088 899.926 114.912H907.414V114.696ZM941.14 99.324V126H937.072L936.748 123.588C936.148 124.5 935.38 125.22 934.444 125.748C933.532 126.276 932.488 126.54 931.312 126.54C928.984 126.54 927.196 125.64 925.948 123.84C924.7 122.04 924.076 119.592 924.076 116.496C924.076 114.552 924.388 112.824 925.012 111.312C925.636 109.776 926.524 108.576 927.676 107.712C928.852 106.848 930.208 106.416 931.744 106.416C933.568 106.416 935.164 107.1 936.532 108.468V98.82L941.14 99.324ZM932.608 123.048C933.424 123.048 934.144 122.856 934.768 122.472C935.392 122.064 935.98 121.44 936.532 120.6V111.888C935.98 111.216 935.416 110.712 934.84 110.376C934.288 110.04 933.64 109.872 932.896 109.872C931.672 109.872 930.7 110.424 929.98 111.528C929.284 112.608 928.936 114.252 928.936 116.46C928.936 118.812 929.248 120.504 929.872 121.536C930.496 122.544 931.408 123.048 932.608 123.048ZM962.295 116.028C962.295 116.268 962.259 116.892 962.187 117.9H950.235C950.379 119.748 950.859 121.068 951.675 121.86C952.491 122.652 953.571 123.048 954.915 123.048C955.755 123.048 956.547 122.916 957.291 122.652C958.035 122.364 958.827 121.932 959.667 121.356L961.575 123.984C959.463 125.688 957.111 126.54 954.519 126.54C951.615 126.54 949.371 125.652 947.787 123.876C946.227 122.1 945.447 119.676 945.447 116.604C945.447 114.66 945.783 112.92 946.455 111.384C947.127 109.824 948.099 108.612 949.371 107.748C950.643 106.86 952.155 106.416 953.907 106.416C956.571 106.416 958.635 107.268 960.099 108.972C961.563 110.652 962.295 113.004 962.295 116.028ZM957.723 114.696C957.723 111.36 956.487 109.692 954.015 109.692C952.887 109.692 951.999 110.112 951.351 110.952C950.727 111.768 950.355 113.088 950.235 114.912H957.723V114.696ZM977.337 125.1C976.665 125.58 975.909 125.94 975.069 126.18C974.253 126.42 973.413 126.54 972.549 126.54C970.677 126.516 969.249 125.988 968.265 124.956C967.305 123.9 966.825 122.352 966.825 120.312V110.268H963.837V106.956H966.825V102.744L971.433 102.204V106.956H975.861L975.393 110.268H971.433V120.204C971.433 121.14 971.589 121.812 971.901 122.22C972.237 122.628 972.753 122.832 973.449 122.832C974.145 122.832 974.901 122.604 975.717 122.148L977.337 125.1ZM994.955 116.028C994.955 116.268 994.919 116.892 994.847 117.9H982.895C983.039 119.748 983.519 121.068 984.335 121.86C985.151 122.652 986.231 123.048 987.575 123.048C988.415 123.048 989.207 122.916 989.951 122.652C990.695 122.364 991.487 121.932 992.327 121.356L994.235 123.984C992.123 125.688 989.771 126.54 987.179 126.54C984.275 126.54 982.031 125.652 980.447 123.876C978.887 122.1 978.107 119.676 978.107 116.604C978.107 114.66 978.443 112.92 979.115 111.384C979.787 109.824 980.759 108.612 982.031 107.748C983.303 106.86 984.815 106.416 986.567 106.416C989.231 106.416 991.295 107.268 992.759 108.972C994.223 110.652 994.955 113.004 994.955 116.028ZM990.383 114.696C990.383 111.36 989.147 109.692 986.675 109.692C985.547 109.692 984.659 110.112 984.011 110.952C983.387 111.768 983.015 113.088 982.895 114.912H990.383V114.696ZM1008.48 106.452C1009.18 106.452 1009.82 106.536 1010.39 106.704L1009.6 111.168C1009.02 111.024 1008.46 110.952 1007.91 110.952C1006.78 110.952 1005.89 111.36 1005.24 112.176C1004.6 112.968 1004.08 114.192 1003.7 115.848V126H999.089V106.956H1003.08L1003.52 110.7C1003.97 109.332 1004.63 108.288 1005.5 107.568C1006.36 106.824 1007.36 106.452 1008.48 106.452ZM1033.45 106.416C1034.99 106.416 1036.21 106.944 1037.12 108C1038.04 109.032 1038.49 110.436 1038.49 112.212V126H1033.88V112.932C1033.88 110.892 1033.19 109.872 1031.8 109.872C1031.05 109.872 1030.4 110.112 1029.85 110.592C1029.32 111.048 1028.77 111.768 1028.2 112.752V126H1023.59V112.932C1023.59 110.892 1022.89 109.872 1021.5 109.872C1020.73 109.872 1020.07 110.112 1019.52 110.592C1018.99 111.048 1018.44 111.768 1017.86 112.752V126H1013.26V106.956H1017.25L1017.61 109.44C1019.05 107.424 1020.89 106.416 1023.12 106.416C1024.22 106.416 1025.17 106.704 1025.96 107.28C1026.78 107.832 1027.37 108.612 1027.73 109.62C1028.5 108.588 1029.34 107.796 1030.25 107.244C1031.18 106.692 1032.25 106.416 1033.45 106.416ZM1048.45 106.956V126H1043.84V106.956H1048.45ZM1046.11 97.308C1046.97 97.308 1047.67 97.584 1048.2 98.136C1048.75 98.664 1049.03 99.324 1049.03 100.116C1049.03 100.908 1048.75 101.568 1048.2 102.096C1047.67 102.624 1046.97 102.888 1046.11 102.888C1045.27 102.888 1044.57 102.624 1044.02 102.096C1043.49 101.568 1043.23 100.908 1043.23 100.116C1043.23 99.324 1043.49 98.664 1044.02 98.136C1044.57 97.584 1045.27 97.308 1046.11 97.308ZM1064.15 106.416C1065.86 106.416 1067.18 106.932 1068.11 107.964C1069.07 108.972 1069.55 110.388 1069.55 112.212V126H1064.95V112.932C1064.95 111.804 1064.74 111.012 1064.33 110.556C1063.95 110.1 1063.37 109.872 1062.61 109.872C1061.81 109.872 1061.09 110.124 1060.45 110.628C1059.82 111.108 1059.21 111.816 1058.61 112.752V126H1054V106.956H1058L1058.36 109.44C1059.92 107.424 1061.85 106.416 1064.15 106.416ZM1090.54 116.028C1090.54 116.268 1090.51 116.892 1090.44 117.9H1078.48C1078.63 119.748 1079.11 121.068 1079.92 121.86C1080.74 122.652 1081.82 123.048 1083.16 123.048C1084 123.048 1084.8 122.916 1085.54 122.652C1086.28 122.364 1087.08 121.932 1087.92 121.356L1089.82 123.984C1087.71 125.688 1085.36 126.54 1082.77 126.54C1079.86 126.54 1077.62 125.652 1076.04 123.876C1074.48 122.1 1073.7 119.676 1073.7 116.604C1073.7 114.66 1074.03 112.92 1074.7 111.384C1075.38 109.824 1076.35 108.612 1077.62 107.748C1078.89 106.86 1080.4 106.416 1082.16 106.416C1084.82 106.416 1086.88 107.268 1088.35 108.972C1089.81 110.652 1090.54 113.004 1090.54 116.028ZM1085.97 114.696C1085.97 111.36 1084.74 109.692 1082.26 109.692C1081.14 109.692 1080.25 110.112 1079.6 110.952C1078.98 111.768 1078.6 113.088 1078.48 114.912H1085.97V114.696ZM1110.7 99.324V126H1106.63L1106.31 123.588C1105.71 124.5 1104.94 125.22 1104 125.748C1103.09 126.276 1102.05 126.54 1100.87 126.54C1098.54 126.54 1096.75 125.64 1095.51 123.84C1094.26 122.04 1093.63 119.592 1093.63 116.496C1093.63 114.552 1093.95 112.824 1094.57 111.312C1095.19 109.776 1096.08 108.576 1097.23 107.712C1098.41 106.848 1099.77 106.416 1101.3 106.416C1103.13 106.416 1104.72 107.1 1106.09 108.468V98.82L1110.7 99.324ZM1102.17 123.048C1102.98 123.048 1103.7 122.856 1104.33 122.472C1104.95 122.064 1105.54 121.44 1106.09 120.6V111.888C1105.54 111.216 1104.97 110.712 1104.4 110.376C1103.85 110.04 1103.2 109.872 1102.45 109.872C1101.23 109.872 1100.26 110.424 1099.54 111.528C1098.84 112.608 1098.49 114.252 1098.49 116.46C1098.49 118.812 1098.81 120.504 1099.43 121.536C1100.05 122.544 1100.97 123.048 1102.17 123.048ZM1136.14 125.1C1135.47 125.58 1134.71 125.94 1133.87 126.18C1133.05 126.42 1132.21 126.54 1131.35 126.54C1129.48 126.516 1128.05 125.988 1127.07 124.956C1126.11 123.9 1125.63 122.352 1125.63 120.312V110.268H1122.64V106.956H1125.63V102.744L1130.23 102.204V106.956H1134.66L1134.19 110.268H1130.23V120.204C1130.23 121.14 1130.39 121.812 1130.7 122.22C1131.04 122.628 1131.55 122.832 1132.25 122.832C1132.95 122.832 1133.7 122.604 1134.52 122.148L1136.14 125.1ZM1148.88 106.416C1150.56 106.416 1151.88 106.932 1152.84 107.964C1153.8 108.996 1154.28 110.412 1154.28 112.212V126H1149.67V112.932C1149.67 111.804 1149.47 111.012 1149.06 110.556C1148.68 110.1 1148.1 109.872 1147.33 109.872C1146.57 109.872 1145.86 110.124 1145.21 110.628C1144.56 111.108 1143.94 111.804 1143.34 112.716V126H1138.73V99.36L1143.34 98.892V109.224C1144.87 107.352 1146.72 106.416 1148.88 106.416ZM1173.72 120.96C1173.72 121.704 1173.83 122.256 1174.05 122.616C1174.29 122.952 1174.66 123.216 1175.16 123.408L1174.19 126.468C1173.11 126.372 1172.22 126.108 1171.53 125.676C1170.86 125.244 1170.34 124.584 1169.98 123.696C1169.33 124.656 1168.52 125.376 1167.53 125.856C1166.57 126.312 1165.49 126.54 1164.29 126.54C1162.4 126.54 1160.9 126 1159.79 124.92C1158.69 123.84 1158.14 122.424 1158.14 120.672C1158.14 118.608 1158.88 117.036 1160.37 115.956C1161.88 114.852 1164.03 114.3 1166.81 114.3H1169.19V113.22C1169.19 111.996 1168.9 111.144 1168.32 110.664C1167.77 110.16 1166.87 109.908 1165.62 109.908C1164.23 109.908 1162.55 110.244 1160.58 110.916L1159.5 107.784C1161.88 106.872 1164.18 106.416 1166.42 106.416C1171.29 106.416 1173.72 108.6 1173.72 112.968V120.96ZM1165.52 123.192C1167.08 123.192 1168.3 122.412 1169.19 120.852V117H1167.28C1164.3 117 1162.82 118.104 1162.82 120.312C1162.82 121.224 1163.04 121.932 1163.5 122.436C1163.96 122.94 1164.63 123.192 1165.52 123.192ZM1190.21 125.1C1189.54 125.58 1188.78 125.94 1187.94 126.18C1187.12 126.42 1186.28 126.54 1185.42 126.54C1183.55 126.516 1182.12 125.988 1181.14 124.956C1180.18 123.9 1179.7 122.352 1179.7 120.312V110.268H1176.71V106.956H1179.7V102.744L1184.3 102.204V106.956H1188.73L1188.26 110.268H1184.3V120.204C1184.3 121.14 1184.46 121.812 1184.77 122.22C1185.11 122.628 1185.62 122.832 1186.32 122.832C1187.02 122.832 1187.77 122.604 1188.59 122.148L1190.21 125.1ZM1209.58 106.416C1212.38 106.416 1214.57 107.316 1216.13 109.116C1217.71 110.892 1218.5 113.34 1218.5 116.46C1218.5 118.452 1218.14 120.216 1217.42 121.752C1216.7 123.264 1215.67 124.44 1214.33 125.28C1212.98 126.12 1211.39 126.54 1209.54 126.54C1206.73 126.54 1204.54 125.652 1202.95 123.876C1201.37 122.076 1200.58 119.604 1200.58 116.46C1200.58 114.468 1200.94 112.716 1201.66 111.204C1202.38 109.692 1203.41 108.516 1204.75 107.676C1206.12 106.836 1207.73 106.416 1209.58 106.416ZM1209.58 109.908C1206.82 109.908 1205.44 112.092 1205.44 116.46C1205.44 118.716 1205.77 120.384 1206.44 121.464C1207.14 122.52 1208.17 123.048 1209.54 123.048C1210.91 123.048 1211.93 122.508 1212.6 121.428C1213.3 120.348 1213.64 118.692 1213.64 116.46C1213.64 114.228 1213.3 112.584 1212.6 111.528C1211.93 110.448 1210.92 109.908 1209.58 109.908ZM1238.05 126H1234.06L1233.8 123.336C1233.11 124.416 1232.28 125.22 1231.32 125.748C1230.38 126.276 1229.27 126.54 1227.97 126.54C1226.27 126.54 1224.95 126.024 1224.01 124.992C1223.1 123.936 1222.64 122.484 1222.64 120.636V106.956H1227.25V120.06C1227.25 121.14 1227.43 121.908 1227.79 122.364C1228.18 122.82 1228.78 123.048 1229.59 123.048C1231.06 123.048 1232.34 122.148 1233.44 120.348V106.956H1238.05V126ZM1253 106.452C1253.69 106.452 1254.33 106.536 1254.9 106.704L1254.11 111.168C1253.54 111.024 1252.97 110.952 1252.42 110.952C1251.29 110.952 1250.4 111.36 1249.76 112.176C1249.11 112.968 1248.59 114.192 1248.21 115.848V126H1243.6V106.956H1247.6L1248.03 110.7C1248.48 109.332 1249.14 108.288 1250.01 107.568C1250.87 106.824 1251.87 106.452 1253 106.452ZM1276.16 106.452C1276.86 106.452 1277.5 106.536 1278.07 106.704L1277.28 111.168C1276.7 111.024 1276.14 110.952 1275.59 110.952C1274.46 110.952 1273.57 111.36 1272.92 112.176C1272.28 112.968 1271.76 114.192 1271.38 115.848V126H1266.77V106.956H1270.76L1271.2 110.7C1271.65 109.332 1272.31 108.288 1273.18 107.568C1274.04 106.824 1275.04 106.452 1276.16 106.452ZM1295.47 116.028C1295.47 116.268 1295.43 116.892 1295.36 117.9H1283.41C1283.55 119.748 1284.03 121.068 1284.85 121.86C1285.67 122.652 1286.75 123.048 1288.09 123.048C1288.93 123.048 1289.72 122.916 1290.47 122.652C1291.21 122.364 1292 121.932 1292.84 121.356L1294.75 123.984C1292.64 125.688 1290.29 126.54 1287.69 126.54C1284.79 126.54 1282.55 125.652 1280.96 123.876C1279.4 122.1 1278.62 119.676 1278.62 116.604C1278.62 114.66 1278.96 112.92 1279.63 111.384C1280.3 109.824 1281.27 108.612 1282.55 107.748C1283.82 106.86 1285.33 106.416 1287.08 106.416C1289.75 106.416 1291.81 107.268 1293.27 108.972C1294.74 110.652 1295.47 113.004 1295.47 116.028ZM1290.9 114.696C1290.9 111.36 1289.66 109.692 1287.19 109.692C1286.06 109.692 1285.17 110.112 1284.53 110.952C1283.9 111.768 1283.53 113.088 1283.41 114.912H1290.9V114.696ZM1315.62 99.324V126H1311.56L1311.23 123.588C1310.63 124.5 1309.86 125.22 1308.93 125.748C1308.02 126.276 1306.97 126.54 1305.8 126.54C1303.47 126.54 1301.68 125.64 1300.43 123.84C1299.18 122.04 1298.56 119.592 1298.56 116.496C1298.56 114.552 1298.87 112.824 1299.5 111.312C1300.12 109.776 1301.01 108.576 1302.16 107.712C1303.34 106.848 1304.69 106.416 1306.23 106.416C1308.05 106.416 1309.65 107.1 1311.02 108.468V98.82L1315.62 99.324ZM1307.09 123.048C1307.91 123.048 1308.63 122.856 1309.25 122.472C1309.88 122.064 1310.46 121.44 1311.02 120.6V111.888C1310.46 111.216 1309.9 110.712 1309.32 110.376C1308.77 110.04 1308.12 109.872 1307.38 109.872C1306.16 109.872 1305.18 110.424 1304.46 111.528C1303.77 112.608 1303.42 114.252 1303.42 116.46C1303.42 118.812 1303.73 120.504 1304.36 121.536C1304.98 122.544 1305.89 123.048 1307.09 123.048ZM1336.78 116.028C1336.78 116.268 1336.74 116.892 1336.67 117.9H1324.72C1324.86 119.748 1325.34 121.068 1326.16 121.86C1326.98 122.652 1328.06 123.048 1329.4 123.048C1330.24 123.048 1331.03 122.916 1331.78 122.652C1332.52 122.364 1333.31 121.932 1334.15 121.356L1336.06 123.984C1333.95 125.688 1331.6 126.54 1329 126.54C1326.1 126.54 1323.86 125.652 1322.27 123.876C1320.71 122.1 1319.93 119.676 1319.93 116.604C1319.93 114.66 1320.27 112.92 1320.94 111.384C1321.61 109.824 1322.58 108.612 1323.86 107.748C1325.13 106.86 1326.64 106.416 1328.39 106.416C1331.06 106.416 1333.12 107.268 1334.58 108.972C1336.05 110.652 1336.78 113.004 1336.78 116.028ZM1332.21 114.696C1332.21 111.36 1330.97 109.692 1328.5 109.692C1327.37 109.692 1326.48 110.112 1325.84 110.952C1325.21 111.768 1324.84 113.088 1324.72 114.912H1332.21V114.696ZM1346.93 106.416C1349.49 106.416 1351.75 107.172 1353.69 108.684L1351.89 111.384C1350.26 110.352 1348.67 109.836 1347.11 109.836C1346.19 109.836 1345.49 110.016 1344.98 110.376C1344.48 110.712 1344.23 111.168 1344.23 111.744C1344.23 112.176 1344.33 112.536 1344.55 112.824C1344.77 113.112 1345.15 113.388 1345.7 113.652C1346.28 113.892 1347.12 114.168 1348.22 114.48C1350.29 115.032 1351.81 115.764 1352.79 116.676C1353.8 117.588 1354.31 118.86 1354.31 120.492C1354.31 122.388 1353.54 123.876 1352 124.956C1350.47 126.012 1348.56 126.54 1346.28 126.54C1344.72 126.54 1343.29 126.3 1341.99 125.82C1340.72 125.34 1339.62 124.68 1338.68 123.84L1340.99 121.248C1342.64 122.496 1344.37 123.12 1346.17 123.12C1347.2 123.12 1348.02 122.916 1348.62 122.508C1349.24 122.1 1349.55 121.536 1349.55 120.816C1349.55 120.264 1349.43 119.832 1349.19 119.52C1348.98 119.184 1348.57 118.896 1347.97 118.656C1347.39 118.392 1346.48 118.08 1345.23 117.72C1343.29 117.192 1341.86 116.46 1340.95 115.524C1340.04 114.564 1339.58 113.376 1339.58 111.96C1339.58 110.904 1339.88 109.956 1340.48 109.116C1341.11 108.276 1341.97 107.616 1343.07 107.136C1344.2 106.656 1345.49 106.416 1346.93 106.416ZM1362.64 106.956V126H1358.03V106.956H1362.64ZM1360.3 97.308C1361.17 97.308 1361.86 97.584 1362.39 98.136C1362.94 98.664 1363.22 99.324 1363.22 100.116C1363.22 100.908 1362.94 101.568 1362.39 102.096C1361.86 102.624 1361.17 102.888 1360.3 102.888C1359.46 102.888 1358.77 102.624 1358.21 102.096C1357.69 101.568 1357.42 100.908 1357.42 100.116C1357.42 99.324 1357.69 98.664 1358.21 98.136C1358.77 97.584 1359.46 97.308 1360.3 97.308ZM1384.75 107.964C1383.53 108.396 1381.69 108.612 1379.25 108.612C1380.42 109.14 1381.29 109.8 1381.84 110.592C1382.41 111.36 1382.7 112.332 1382.7 113.508C1382.7 114.756 1382.39 115.86 1381.77 116.82C1381.17 117.78 1380.28 118.536 1379.1 119.088C1377.95 119.64 1376.59 119.916 1375.03 119.916C1374.17 119.916 1373.41 119.82 1372.77 119.628C1372.24 119.988 1371.97 120.456 1371.97 121.032C1371.97 121.92 1372.74 122.364 1374.28 122.364H1377.19C1378.59 122.364 1379.8 122.592 1380.83 123.048C1381.89 123.504 1382.7 124.152 1383.28 124.992C1383.85 125.808 1384.14 126.732 1384.14 127.764C1384.14 129.684 1383.33 131.172 1381.69 132.228C1380.06 133.308 1377.71 133.848 1374.64 133.848C1372.43 133.848 1370.69 133.62 1369.42 133.164C1368.17 132.708 1367.28 132.048 1366.75 131.184C1366.23 130.32 1365.96 129.216 1365.96 127.872H1370.1C1370.1 128.544 1370.22 129.072 1370.46 129.456C1370.73 129.84 1371.18 130.128 1371.83 130.32C1372.5 130.512 1373.46 130.608 1374.71 130.608C1376.46 130.608 1377.7 130.392 1378.42 129.96C1379.14 129.528 1379.5 128.904 1379.5 128.088C1379.5 127.368 1379.22 126.804 1378.67 126.396C1378.12 126.012 1377.31 125.82 1376.26 125.82H1373.38C1371.58 125.82 1370.22 125.472 1369.31 124.776C1368.4 124.08 1367.94 123.204 1367.94 122.148C1367.94 121.476 1368.13 120.828 1368.52 120.204C1368.93 119.58 1369.48 119.052 1370.17 118.62C1369.02 118.02 1368.17 117.288 1367.62 116.424C1367.09 115.536 1366.83 114.48 1366.83 113.256C1366.83 111.888 1367.16 110.688 1367.83 109.656C1368.51 108.624 1369.43 107.832 1370.61 107.28C1371.81 106.704 1373.17 106.416 1374.71 106.416C1376.73 106.464 1378.35 106.32 1379.57 105.984C1380.82 105.624 1382.16 105.06 1383.6 104.292L1384.75 107.964ZM1374.78 109.548C1373.75 109.548 1372.93 109.884 1372.33 110.556C1371.76 111.204 1371.47 112.08 1371.47 113.184C1371.47 114.336 1371.77 115.248 1372.37 115.92C1372.97 116.592 1373.8 116.928 1374.85 116.928C1375.96 116.928 1376.8 116.604 1377.37 115.956C1377.95 115.284 1378.24 114.348 1378.24 113.148C1378.24 110.748 1377.09 109.548 1374.78 109.548ZM1397.68 106.416C1399.39 106.416 1400.71 106.932 1401.64 107.964C1402.6 108.972 1403.08 110.388 1403.08 112.212V126H1398.47V112.932C1398.47 111.804 1398.27 111.012 1397.86 110.556C1397.48 110.1 1396.9 109.872 1396.13 109.872C1395.34 109.872 1394.62 110.124 1393.97 110.628C1393.35 111.108 1392.74 111.816 1392.14 112.752V126H1387.53V106.956H1391.53L1391.89 109.44C1393.45 107.424 1395.38 106.416 1397.68 106.416ZM1424.07 116.028C1424.07 116.268 1424.04 116.892 1423.96 117.9H1412.01C1412.16 119.748 1412.64 121.068 1413.45 121.86C1414.27 122.652 1415.35 123.048 1416.69 123.048C1417.53 123.048 1418.32 122.916 1419.07 122.652C1419.81 122.364 1420.6 121.932 1421.44 121.356L1423.35 123.984C1421.24 125.688 1418.89 126.54 1416.3 126.54C1413.39 126.54 1411.15 125.652 1409.56 123.876C1408 122.1 1407.22 119.676 1407.22 116.604C1407.22 114.66 1407.56 112.92 1408.23 111.384C1408.9 109.824 1409.88 108.612 1411.15 107.748C1412.42 106.86 1413.93 106.416 1415.68 106.416C1418.35 106.416 1420.41 107.268 1421.88 108.972C1423.34 110.652 1424.07 113.004 1424.07 116.028ZM1419.5 114.696C1419.5 111.36 1418.26 109.692 1415.79 109.692C1414.66 109.692 1413.78 110.112 1413.13 110.952C1412.5 111.768 1412.13 113.088 1412.01 114.912H1419.5V114.696ZM1444.23 99.324V126H1440.16L1439.83 123.588C1439.23 124.5 1438.47 125.22 1437.53 125.748C1436.62 126.276 1435.57 126.54 1434.4 126.54C1432.07 126.54 1430.28 125.64 1429.03 123.84C1427.79 122.04 1427.16 119.592 1427.16 116.496C1427.16 114.552 1427.47 112.824 1428.1 111.312C1428.72 109.776 1429.61 108.576 1430.76 107.712C1431.94 106.848 1433.29 106.416 1434.83 106.416C1436.65 106.416 1438.25 107.1 1439.62 108.468V98.82L1444.23 99.324ZM1435.69 123.048C1436.51 123.048 1437.23 122.856 1437.85 122.472C1438.48 122.064 1439.07 121.44 1439.62 120.6V111.888C1439.07 111.216 1438.5 110.712 1437.93 110.376C1437.37 110.04 1436.73 109.872 1435.98 109.872C1434.76 109.872 1433.79 110.424 1433.07 111.528C1432.37 112.608 1432.02 114.252 1432.02 116.46C1432.02 118.812 1432.33 120.504 1432.96 121.536C1433.58 122.544 1434.49 123.048 1435.69 123.048ZM485.913 154.416C488.481 154.416 490.737 155.172 492.681 156.684L490.881 159.384C489.249 158.352 487.653 157.836 486.093 157.836C485.181 157.836 484.473 158.016 483.969 158.376C483.465 158.712 483.213 159.168 483.213 159.744C483.213 160.176 483.321 160.536 483.537 160.824C483.753 161.112 484.137 161.388 484.689 161.652C485.265 161.892 486.105 162.168 487.209 162.48C489.273 163.032 490.797 163.764 491.781 164.676C492.789 165.588 493.293 166.86 493.293 168.492C493.293 170.388 492.525 171.876 490.989 172.956C489.453 174.012 487.545 174.54 485.265 174.54C483.705 174.54 482.277 174.3 480.981 173.82C479.709 173.34 478.605 172.68 477.669 171.84L479.973 169.248C481.629 170.496 483.357 171.12 485.157 171.12C486.189 171.12 487.005 170.916 487.605 170.508C488.229 170.1 488.541 169.536 488.541 168.816C488.541 168.264 488.421 167.832 488.181 167.52C487.965 167.184 487.557 166.896 486.957 166.656C486.381 166.392 485.469 166.08 484.221 165.72C482.277 165.192 480.849 164.46 479.937 163.524C479.025 162.564 478.569 161.376 478.569 159.96C478.569 158.904 478.869 157.956 479.469 157.116C480.093 156.276 480.957 155.616 482.061 155.136C483.189 154.656 484.473 154.416 485.913 154.416ZM504.69 154.416C505.938 154.416 507.054 154.596 508.038 154.956C509.046 155.316 509.994 155.88 510.882 156.648L508.83 159.42C508.182 158.94 507.558 158.592 506.958 158.376C506.358 158.16 505.698 158.052 504.978 158.052C502.122 158.052 500.694 160.224 500.694 164.568C500.694 166.776 501.066 168.372 501.81 169.356C502.554 170.316 503.61 170.796 504.978 170.796C505.65 170.796 506.262 170.688 506.814 170.472C507.39 170.256 508.062 169.908 508.83 169.428L510.882 172.344C509.082 173.808 507.03 174.54 504.726 174.54C502.902 174.54 501.318 174.144 499.974 173.352C498.63 172.536 497.598 171.384 496.878 169.896C496.158 168.408 495.798 166.656 495.798 164.64C495.798 162.624 496.158 160.848 496.878 159.312C497.598 157.752 498.63 156.552 499.974 155.712C501.318 154.848 502.89 154.416 504.69 154.416ZM523.61 154.452C524.306 154.452 524.942 154.536 525.518 154.704L524.726 159.168C524.15 159.024 523.586 158.952 523.034 158.952C521.906 158.952 521.018 159.36 520.37 160.176C519.722 160.968 519.206 162.192 518.822 163.848V174H514.214V154.956H518.21L518.642 158.7C519.098 157.332 519.758 156.288 520.622 155.568C521.486 154.824 522.482 154.452 523.61 154.452ZM542.916 164.028C542.916 164.268 542.88 164.892 542.808 165.9H530.856C531 167.748 531.48 169.068 532.296 169.86C533.112 170.652 534.192 171.048 535.536 171.048C536.376 171.048 537.168 170.916 537.912 170.652C538.656 170.364 539.448 169.932 540.288 169.356L542.196 171.984C540.084 173.688 537.732 174.54 535.14 174.54C532.236 174.54 529.992 173.652 528.408 171.876C526.848 170.1 526.068 167.676 526.068 164.604C526.068 162.66 526.404 160.92 527.076 159.384C527.748 157.824 528.72 156.612 529.992 155.748C531.264 154.86 532.776 154.416 534.528 154.416C537.192 154.416 539.256 155.268 540.72 156.972C542.184 158.652 542.916 161.004 542.916 164.028ZM538.344 162.696C538.344 159.36 537.108 157.692 534.636 157.692C533.508 157.692 532.62 158.112 531.972 158.952C531.348 159.768 530.976 161.088 530.856 162.912H538.344V162.696ZM562.674 164.028C562.674 164.268 562.638 164.892 562.566 165.9H550.614C550.758 167.748 551.238 169.068 552.054 169.86C552.87 170.652 553.95 171.048 555.294 171.048C556.134 171.048 556.926 170.916 557.67 170.652C558.414 170.364 559.206 169.932 560.046 169.356L561.954 171.984C559.842 173.688 557.49 174.54 554.898 174.54C551.994 174.54 549.75 173.652 548.166 171.876C546.606 170.1 545.826 167.676 545.826 164.604C545.826 162.66 546.162 160.92 546.834 159.384C547.506 157.824 548.478 156.612 549.75 155.748C551.022 154.86 552.534 154.416 554.286 154.416C556.95 154.416 559.014 155.268 560.478 156.972C561.942 158.652 562.674 161.004 562.674 164.028ZM558.102 162.696C558.102 159.36 556.866 157.692 554.394 157.692C553.266 157.692 552.378 158.112 551.73 158.952C551.106 159.768 550.734 161.088 550.614 162.912H558.102V162.696ZM576.96 154.416C578.664 154.416 579.984 154.932 580.92 155.964C581.88 156.972 582.36 158.388 582.36 160.212V174H577.752V160.932C577.752 159.804 577.548 159.012 577.14 158.556C576.756 158.1 576.18 157.872 575.412 157.872C574.62 157.872 573.9 158.124 573.252 158.628C572.628 159.108 572.016 159.816 571.416 160.752V174H566.808V154.956H570.804L571.164 157.44C572.724 155.424 574.656 154.416 576.96 154.416ZM602.738 154.416C605.306 154.416 607.562 155.172 609.506 156.684L607.706 159.384C606.074 158.352 604.478 157.836 602.918 157.836C602.006 157.836 601.298 158.016 600.794 158.376C600.29 158.712 600.038 159.168 600.038 159.744C600.038 160.176 600.146 160.536 600.362 160.824C600.578 161.112 600.962 161.388 601.514 161.652C602.09 161.892 602.93 162.168 604.034 162.48C606.098 163.032 607.622 163.764 608.606 164.676C609.614 165.588 610.118 166.86 610.118 168.492C610.118 170.388 609.35 171.876 607.814 172.956C606.278 174.012 604.37 174.54 602.09 174.54C600.53 174.54 599.102 174.3 597.806 173.82C596.534 173.34 595.43 172.68 594.494 171.84L596.798 169.248C598.454 170.496 600.182 171.12 601.982 171.12C603.014 171.12 603.83 170.916 604.43 170.508C605.054 170.1 605.366 169.536 605.366 168.816C605.366 168.264 605.246 167.832 605.006 167.52C604.79 167.184 604.382 166.896 603.782 166.656C603.206 166.392 602.294 166.08 601.046 165.72C599.102 165.192 597.674 164.46 596.762 163.524C595.85 162.564 595.394 161.376 595.394 159.96C595.394 158.904 595.694 157.956 596.294 157.116C596.918 156.276 597.782 155.616 598.886 155.136C600.014 154.656 601.298 154.416 602.738 154.416ZM618.455 154.956V174H613.847V154.956H618.455ZM616.115 145.308C616.979 145.308 617.675 145.584 618.203 146.136C618.755 146.664 619.031 147.324 619.031 148.116C619.031 148.908 618.755 149.568 618.203 150.096C617.675 150.624 616.979 150.888 616.115 150.888C615.275 150.888 614.579 150.624 614.027 150.096C613.499 149.568 613.235 148.908 613.235 148.116C613.235 147.324 613.499 146.664 614.027 146.136C614.579 145.584 615.275 145.308 616.115 145.308ZM640.567 155.964C639.343 156.396 637.507 156.612 635.059 156.612C636.235 157.14 637.099 157.8 637.651 158.592C638.227 159.36 638.515 160.332 638.515 161.508C638.515 162.756 638.203 163.86 637.579 164.82C636.979 165.78 636.091 166.536 634.915 167.088C633.763 167.64 632.407 167.916 630.847 167.916C629.983 167.916 629.227 167.82 628.579 167.628C628.051 167.988 627.787 168.456 627.787 169.032C627.787 169.92 628.555 170.364 630.091 170.364H633.007C634.399 170.364 635.611 170.592 636.643 171.048C637.699 171.504 638.515 172.152 639.091 172.992C639.667 173.808 639.955 174.732 639.955 175.764C639.955 177.684 639.139 179.172 637.507 180.228C635.875 181.308 633.523 181.848 630.451 181.848C628.243 181.848 626.503 181.62 625.231 181.164C623.983 180.708 623.095 180.048 622.567 179.184C622.039 178.32 621.775 177.216 621.775 175.872H625.915C625.915 176.544 626.035 177.072 626.275 177.456C626.539 177.84 626.995 178.128 627.643 178.32C628.315 178.512 629.275 178.608 630.523 178.608C632.275 178.608 633.511 178.392 634.231 177.96C634.951 177.528 635.311 176.904 635.311 176.088C635.311 175.368 635.035 174.804 634.483 174.396C633.931 174.012 633.127 173.82 632.071 173.82H629.191C627.391 173.82 626.035 173.472 625.123 172.776C624.211 172.08 623.755 171.204 623.755 170.148C623.755 169.476 623.947 168.828 624.331 168.204C624.739 167.58 625.291 167.052 625.987 166.62C624.835 166.02 623.983 165.288 623.431 164.424C622.903 163.536 622.639 162.48 622.639 161.256C622.639 159.888 622.975 158.688 623.647 157.656C624.319 156.624 625.243 155.832 626.419 155.28C627.619 154.704 628.987 154.416 630.523 154.416C632.539 154.464 634.159 154.32 635.383 153.984C636.631 153.624 637.975 153.06 639.415 152.292L640.567 155.964ZM630.595 157.548C629.563 157.548 628.747 157.884 628.147 158.556C627.571 159.204 627.283 160.08 627.283 161.184C627.283 162.336 627.583 163.248 628.183 163.92C628.783 164.592 629.611 164.928 630.667 164.928C631.771 164.928 632.611 164.604 633.187 163.956C633.763 163.284 634.051 162.348 634.051 161.148C634.051 158.748 632.899 157.548 630.595 157.548ZM653.495 154.416C655.199 154.416 656.519 154.932 657.455 155.964C658.415 156.972 658.895 158.388 658.895 160.212V174H654.287V160.932C654.287 159.804 654.083 159.012 653.675 158.556C653.291 158.1 652.715 157.872 651.947 157.872C651.155 157.872 650.435 158.124 649.787 158.628C649.163 159.108 648.551 159.816 647.951 160.752V174H643.343V154.956H647.339L647.699 157.44C649.259 155.424 651.191 154.416 653.495 154.416ZM668.869 154.956V174H664.261V154.956H668.869ZM666.529 145.308C667.393 145.308 668.089 145.584 668.617 146.136C669.169 146.664 669.445 147.324 669.445 148.116C669.445 148.908 669.169 149.568 668.617 150.096C668.089 150.624 667.393 150.888 666.529 150.888C665.689 150.888 664.993 150.624 664.441 150.096C663.913 149.568 663.649 148.908 663.649 148.116C663.649 147.324 663.913 146.664 664.441 146.136C664.993 145.584 665.689 145.308 666.529 145.308ZM682.161 146.82C684.177 146.82 686.121 147.276 687.993 148.188L686.589 151.248C685.317 150.648 683.973 150.348 682.557 150.348C681.381 150.348 680.565 150.564 680.109 150.996C679.677 151.404 679.461 152.076 679.461 153.012V154.956H690.045V174H685.437V158.268H679.461V174H674.853V158.268H671.865V154.956H674.853V152.94C674.853 151.092 675.453 149.616 676.653 148.512C677.853 147.384 679.689 146.82 682.161 146.82ZM703.253 154.416C704.501 154.416 705.617 154.596 706.601 154.956C707.609 155.316 708.557 155.88 709.445 156.648L707.393 159.42C706.745 158.94 706.121 158.592 705.521 158.376C704.921 158.16 704.261 158.052 703.541 158.052C700.685 158.052 699.257 160.224 699.257 164.568C699.257 166.776 699.629 168.372 700.373 169.356C701.117 170.316 702.173 170.796 703.541 170.796C704.213 170.796 704.825 170.688 705.377 170.472C705.953 170.256 706.625 169.908 707.393 169.428L709.445 172.344C707.645 173.808 705.593 174.54 703.289 174.54C701.465 174.54 699.881 174.144 698.537 173.352C697.193 172.536 696.161 171.384 695.441 169.896C694.721 168.408 694.361 166.656 694.361 164.64C694.361 162.624 694.721 160.848 695.441 159.312C696.161 157.752 697.193 156.552 698.537 155.712C699.881 154.848 701.453 154.416 703.253 154.416ZM726.501 168.96C726.501 169.704 726.609 170.256 726.825 170.616C727.065 170.952 727.437 171.216 727.941 171.408L726.969 174.468C725.889 174.372 725.001 174.108 724.305 173.676C723.633 173.244 723.117 172.584 722.757 171.696C722.109 172.656 721.293 173.376 720.309 173.856C719.349 174.312 718.269 174.54 717.069 174.54C715.173 174.54 713.673 174 712.569 172.92C711.465 171.84 710.913 170.424 710.913 168.672C710.913 166.608 711.657 165.036 713.145 163.956C714.657 162.852 716.805 162.3 719.589 162.3H721.965V161.22C721.965 159.996 721.677 159.144 721.101 158.664C720.549 158.16 719.649 157.908 718.401 157.908C717.009 157.908 715.329 158.244 713.361 158.916L712.281 155.784C714.657 154.872 716.961 154.416 719.193 154.416C724.065 154.416 726.501 156.6 726.501 160.968V168.96ZM718.293 171.192C719.853 171.192 721.077 170.412 721.965 168.852V165H720.057C717.081 165 715.593 166.104 715.593 168.312C715.593 169.224 715.821 169.932 716.277 170.436C716.733 170.94 717.405 171.192 718.293 171.192ZM742.229 154.416C743.933 154.416 745.253 154.932 746.189 155.964C747.149 156.972 747.629 158.388 747.629 160.212V174H743.021V160.932C743.021 159.804 742.817 159.012 742.409 158.556C742.025 158.1 741.449 157.872 740.681 157.872C739.889 157.872 739.169 158.124 738.521 158.628C737.897 159.108 737.285 159.816 736.685 160.752V174H732.077V154.956H736.073L736.433 157.44C737.993 155.424 739.925 154.416 742.229 154.416ZM763.903 173.1C763.231 173.58 762.475 173.94 761.635 174.18C760.819 174.42 759.979 174.54 759.115 174.54C757.243 174.516 755.815 173.988 754.831 172.956C753.871 171.9 753.391 170.352 753.391 168.312V158.268H750.403V154.956H753.391V150.744L757.999 150.204V154.956H762.427L761.959 158.268H757.999V168.204C757.999 169.14 758.155 169.812 758.467 170.22C758.803 170.628 759.319 170.832 760.015 170.832C760.711 170.832 761.467 170.604 762.283 170.148L763.903 173.1ZM770.644 174.54C769.18 174.54 768.028 174.12 767.188 173.28C766.372 172.416 765.964 171.204 765.964 169.644V147.324L770.572 146.82V169.5C770.572 170.388 770.932 170.832 771.652 170.832C772.012 170.832 772.372 170.772 772.732 170.652L773.704 173.892C772.744 174.324 771.724 174.54 770.644 174.54ZM785.625 174.072C784.857 176.424 783.693 178.248 782.133 179.544C780.573 180.864 778.437 181.632 775.725 181.848L775.257 178.5C776.505 178.308 777.501 178.032 778.245 177.672C779.013 177.336 779.625 176.88 780.081 176.304C780.537 175.728 780.957 174.96 781.341 174H779.757L773.709 154.956H778.605L782.745 170.94L787.065 154.956H791.817L785.625 174.072ZM813.016 154.452C813.712 154.452 814.348 154.536 814.924 154.704L814.132 159.168C813.556 159.024 812.992 158.952 812.44 158.952C811.312 158.952 810.424 159.36 809.776 160.176C809.128 160.968 808.612 162.192 808.228 163.848V174H803.62V154.956H807.616L808.048 158.7C808.504 157.332 809.164 156.288 810.028 155.568C810.892 154.824 811.888 154.452 813.016 154.452ZM832.322 164.028C832.322 164.268 832.286 164.892 832.214 165.9H820.262C820.406 167.748 820.886 169.068 821.702 169.86C822.518 170.652 823.598 171.048 824.942 171.048C825.782 171.048 826.574 170.916 827.318 170.652C828.062 170.364 828.854 169.932 829.694 169.356L831.602 171.984C829.49 173.688 827.138 174.54 824.546 174.54C821.642 174.54 819.398 173.652 817.814 171.876C816.254 170.1 815.474 167.676 815.474 164.604C815.474 162.66 815.81 160.92 816.482 159.384C817.154 157.824 818.126 156.612 819.398 155.748C820.67 154.86 822.182 154.416 823.934 154.416C826.598 154.416 828.662 155.268 830.126 156.972C831.59 158.652 832.322 161.004 832.322 164.028ZM827.75 162.696C827.75 159.36 826.514 157.692 824.042 157.692C822.914 157.692 822.026 158.112 821.378 158.952C820.754 159.768 820.382 161.088 820.262 162.912H827.75V162.696ZM852.476 147.324V174H848.408L848.084 171.588C847.484 172.5 846.716 173.22 845.78 173.748C844.868 174.276 843.824 174.54 842.648 174.54C840.32 174.54 838.532 173.64 837.284 171.84C836.036 170.04 835.412 167.592 835.412 164.496C835.412 162.552 835.724 160.824 836.348 159.312C836.972 157.776 837.86 156.576 839.012 155.712C840.188 154.848 841.544 154.416 843.08 154.416C844.904 154.416 846.5 155.1 847.868 156.468V146.82L852.476 147.324ZM843.944 171.048C844.76 171.048 845.48 170.856 846.104 170.472C846.728 170.064 847.316 169.44 847.868 168.6V159.888C847.316 159.216 846.752 158.712 846.176 158.376C845.624 158.04 844.976 157.872 844.232 157.872C843.008 157.872 842.036 158.424 841.316 159.528C840.62 160.608 840.272 162.252 840.272 164.46C840.272 166.812 840.584 168.504 841.208 169.536C841.832 170.544 842.744 171.048 843.944 171.048ZM873.235 174H869.239L868.987 171.336C868.291 172.416 867.463 173.22 866.503 173.748C865.567 174.276 864.451 174.54 863.155 174.54C861.451 174.54 860.131 174.024 859.195 172.992C858.283 171.936 857.827 170.484 857.827 168.636V154.956H862.435V168.06C862.435 169.14 862.615 169.908 862.975 170.364C863.359 170.82 863.959 171.048 864.775 171.048C866.239 171.048 867.523 170.148 868.627 168.348V154.956H873.235V174ZM886.452 154.416C887.7 154.416 888.816 154.596 889.8 154.956C890.808 155.316 891.756 155.88 892.644 156.648L890.592 159.42C889.944 158.94 889.32 158.592 888.72 158.376C888.12 158.16 887.46 158.052 886.74 158.052C883.884 158.052 882.456 160.224 882.456 164.568C882.456 166.776 882.828 168.372 883.572 169.356C884.316 170.316 885.372 170.796 886.74 170.796C887.412 170.796 888.024 170.688 888.576 170.472C889.152 170.256 889.824 169.908 890.592 169.428L892.644 172.344C890.844 173.808 888.792 174.54 886.488 174.54C884.664 174.54 883.08 174.144 881.736 173.352C880.392 172.536 879.36 171.384 878.64 169.896C877.92 168.408 877.56 166.656 877.56 164.64C877.56 162.624 877.92 160.848 878.64 159.312C879.36 157.752 880.392 156.552 881.736 155.712C883.08 154.848 884.652 154.416 886.452 154.416ZM910.896 164.028C910.896 164.268 910.86 164.892 910.788 165.9H898.836C898.98 167.748 899.46 169.068 900.276 169.86C901.092 170.652 902.172 171.048 903.516 171.048C904.356 171.048 905.148 170.916 905.892 170.652C906.636 170.364 907.428 169.932 908.268 169.356L910.176 171.984C908.064 173.688 905.712 174.54 903.12 174.54C900.216 174.54 897.972 173.652 896.388 171.876C894.828 170.1 894.048 167.676 894.048 164.604C894.048 162.66 894.384 160.92 895.056 159.384C895.728 157.824 896.7 156.612 897.972 155.748C899.244 154.86 900.756 154.416 902.508 154.416C905.172 154.416 907.236 155.268 908.7 156.972C910.164 158.652 910.896 161.004 910.896 164.028ZM906.324 162.696C906.324 159.36 905.088 157.692 902.616 157.692C901.488 157.692 900.6 158.112 899.952 158.952C899.328 159.768 898.956 161.088 898.836 162.912H906.324V162.696ZM931.05 147.324V174H926.982L926.658 171.588C926.058 172.5 925.29 173.22 924.354 173.748C923.442 174.276 922.398 174.54 921.222 174.54C918.894 174.54 917.106 173.64 915.858 171.84C914.61 170.04 913.986 167.592 913.986 164.496C913.986 162.552 914.298 160.824 914.922 159.312C915.546 157.776 916.434 156.576 917.586 155.712C918.762 154.848 920.118 154.416 921.654 154.416C923.478 154.416 925.074 155.1 926.442 156.468V146.82L931.05 147.324ZM922.518 171.048C923.334 171.048 924.054 170.856 924.678 170.472C925.302 170.064 925.89 169.44 926.442 168.6V159.888C925.89 159.216 925.326 158.712 924.75 158.376C924.198 158.04 923.55 157.872 922.806 157.872C921.582 157.872 920.61 158.424 919.89 159.528C919.194 160.608 918.846 162.252 918.846 164.46C918.846 166.812 919.158 168.504 919.782 169.536C920.406 170.544 921.318 171.048 922.518 171.048ZM956.489 173.1C955.817 173.58 955.061 173.94 954.221 174.18C953.405 174.42 952.565 174.54 951.701 174.54C949.829 174.516 948.401 173.988 947.417 172.956C946.457 171.9 945.977 170.352 945.977 168.312V158.268H942.989V154.956H945.977V150.744L950.585 150.204V154.956H955.013L954.545 158.268H950.585V168.204C950.585 169.14 950.741 169.812 951.053 170.22C951.389 170.628 951.905 170.832 952.601 170.832C953.297 170.832 954.053 170.604 954.869 170.148L956.489 173.1ZM969.233 154.416C970.913 154.416 972.233 154.932 973.193 155.964C974.153 156.996 974.633 158.412 974.633 160.212V174H970.025V160.932C970.025 159.804 969.821 159.012 969.413 158.556C969.029 158.1 968.453 157.872 967.685 157.872C966.917 157.872 966.209 158.124 965.561 158.628C964.913 159.108 964.289 159.804 963.689 160.716V174H959.081V147.36L963.689 146.892V157.224C965.225 155.352 967.073 154.416 969.233 154.416ZM995.623 164.028C995.623 164.268 995.587 164.892 995.515 165.9H983.563C983.707 167.748 984.187 169.068 985.003 169.86C985.819 170.652 986.899 171.048 988.243 171.048C989.083 171.048 989.875 170.916 990.619 170.652C991.363 170.364 992.155 169.932 992.995 169.356L994.903 171.984C992.791 173.688 990.439 174.54 987.847 174.54C984.943 174.54 982.699 173.652 981.115 171.876C979.555 170.1 978.775 167.676 978.775 164.604C978.775 162.66 979.111 160.92 979.783 159.384C980.455 157.824 981.427 156.612 982.699 155.748C983.971 154.86 985.483 154.416 987.235 154.416C989.899 154.416 991.963 155.268 993.427 156.972C994.891 158.652 995.623 161.004 995.623 164.028ZM991.051 162.696C991.051 159.36 989.815 157.692 987.343 157.692C986.215 157.692 985.327 158.112 984.679 158.952C984.055 159.768 983.683 161.088 983.563 162.912H991.051V162.696ZM1019.66 173.1C1018.99 173.58 1018.24 173.94 1017.4 174.18C1016.58 174.42 1015.74 174.54 1014.88 174.54C1013 174.516 1011.58 173.988 1010.59 172.956C1009.63 171.9 1009.15 170.352 1009.15 168.312V158.268H1006.16V154.956H1009.15V150.744L1013.76 150.204V154.956H1018.19L1017.72 158.268H1013.76V168.204C1013.76 169.14 1013.92 169.812 1014.23 170.22C1014.56 170.628 1015.08 170.832 1015.78 170.832C1016.47 170.832 1017.23 170.604 1018.04 170.148L1019.66 173.1ZM1026.86 154.956V174H1022.26V154.956H1026.86ZM1024.52 145.308C1025.39 145.308 1026.08 145.584 1026.61 146.136C1027.16 146.664 1027.44 147.324 1027.44 148.116C1027.44 148.908 1027.16 149.568 1026.61 150.096C1026.08 150.624 1025.39 150.888 1024.52 150.888C1023.68 150.888 1022.99 150.624 1022.44 150.096C1021.91 149.568 1021.64 148.908 1021.64 148.116C1021.64 147.324 1021.91 146.664 1022.44 146.136C1022.99 145.584 1023.68 145.308 1024.52 145.308ZM1052.61 154.416C1054.15 154.416 1055.37 154.944 1056.29 156C1057.2 157.032 1057.65 158.436 1057.65 160.212V174H1053.05V160.932C1053.05 158.892 1052.35 157.872 1050.96 157.872C1050.21 157.872 1049.57 158.112 1049.01 158.592C1048.49 159.048 1047.93 159.768 1047.36 160.752V174H1042.75V160.932C1042.75 158.892 1042.05 157.872 1040.66 157.872C1039.89 157.872 1039.23 158.112 1038.68 158.592C1038.15 159.048 1037.6 159.768 1037.03 160.752V174H1032.42V154.956H1036.41L1036.77 157.44C1038.21 155.424 1040.05 154.416 1042.28 154.416C1043.39 154.416 1044.33 154.704 1045.13 155.28C1045.94 155.832 1046.53 156.612 1046.89 157.62C1047.66 156.588 1048.5 155.796 1049.41 155.244C1050.35 154.692 1051.41 154.416 1052.61 154.416ZM1078.63 164.028C1078.63 164.268 1078.59 164.892 1078.52 165.9H1066.57C1066.71 167.748 1067.19 169.068 1068.01 169.86C1068.82 170.652 1069.9 171.048 1071.25 171.048C1072.09 171.048 1072.88 170.916 1073.62 170.652C1074.37 170.364 1075.16 169.932 1076 169.356L1077.91 171.984C1075.79 173.688 1073.44 174.54 1070.85 174.54C1067.95 174.54 1065.7 173.652 1064.12 171.876C1062.56 170.1 1061.78 167.676 1061.78 164.604C1061.78 162.66 1062.11 160.92 1062.79 159.384C1063.46 157.824 1064.43 156.612 1065.7 155.748C1066.97 154.86 1068.49 154.416 1070.24 154.416C1072.9 154.416 1074.97 155.268 1076.43 156.972C1077.89 158.652 1078.63 161.004 1078.63 164.028ZM1074.05 162.696C1074.05 159.36 1072.82 157.692 1070.35 157.692C1069.22 157.692 1068.33 158.112 1067.68 158.952C1067.06 159.768 1066.69 161.088 1066.57 162.912H1074.05V162.696ZM1102.67 173.1C1102 173.58 1101.24 173.94 1100.4 174.18C1099.58 174.42 1098.74 174.54 1097.88 174.54C1096.01 174.516 1094.58 173.988 1093.6 172.956C1092.64 171.9 1092.16 170.352 1092.16 168.312V158.268H1089.17V154.956H1092.16V150.744L1096.76 150.204V154.956H1101.19L1100.72 158.268H1096.76V168.204C1096.76 169.14 1096.92 169.812 1097.23 170.22C1097.57 170.628 1098.08 170.832 1098.78 170.832C1099.48 170.832 1100.23 170.604 1101.05 170.148L1102.67 173.1ZM1112.44 154.416C1115.25 154.416 1117.43 155.316 1118.99 157.116C1120.58 158.892 1121.37 161.34 1121.37 164.46C1121.37 166.452 1121.01 168.216 1120.29 169.752C1119.57 171.264 1118.54 172.44 1117.19 173.28C1115.85 174.12 1114.25 174.54 1112.4 174.54C1109.6 174.54 1107.4 173.652 1105.82 171.876C1104.23 170.076 1103.44 167.604 1103.44 164.46C1103.44 162.468 1103.8 160.716 1104.52 159.204C1105.24 157.692 1106.27 156.516 1107.62 155.676C1108.98 154.836 1110.59 154.416 1112.44 154.416ZM1112.44 157.908C1109.68 157.908 1108.3 160.092 1108.3 164.46C1108.3 166.716 1108.64 168.384 1109.31 169.464C1110 170.52 1111.04 171.048 1112.4 171.048C1113.77 171.048 1114.79 170.508 1115.46 169.428C1116.16 168.348 1116.51 166.692 1116.51 164.46C1116.51 162.228 1116.16 160.584 1115.46 159.528C1114.79 158.448 1113.78 157.908 1112.44 157.908ZM1142.35 154.416C1143.6 154.416 1144.72 154.596 1145.7 154.956C1146.71 155.316 1147.66 155.88 1148.55 156.648L1146.49 159.42C1145.85 158.94 1145.22 158.592 1144.62 158.376C1144.02 158.16 1143.36 158.052 1142.64 158.052C1139.79 158.052 1138.36 160.224 1138.36 164.568C1138.36 166.776 1138.73 168.372 1139.47 169.356C1140.22 170.316 1141.27 170.796 1142.64 170.796C1143.31 170.796 1143.93 170.688 1144.48 170.472C1145.05 170.256 1145.73 169.908 1146.49 169.428L1148.55 172.344C1146.75 173.808 1144.69 174.54 1142.39 174.54C1140.57 174.54 1138.98 174.144 1137.64 173.352C1136.29 172.536 1135.26 171.384 1134.54 169.896C1133.82 168.408 1133.46 166.656 1133.46 164.64C1133.46 162.624 1133.82 160.848 1134.54 159.312C1135.26 157.752 1136.29 156.552 1137.64 155.712C1138.98 154.848 1140.55 154.416 1142.35 154.416ZM1158.95 154.416C1161.76 154.416 1163.94 155.316 1165.5 157.116C1167.09 158.892 1167.88 161.34 1167.88 164.46C1167.88 166.452 1167.52 168.216 1166.8 169.752C1166.08 171.264 1165.05 172.44 1163.7 173.28C1162.36 174.12 1160.76 174.54 1158.91 174.54C1156.11 174.54 1153.91 173.652 1152.33 171.876C1150.74 170.076 1149.95 167.604 1149.95 164.46C1149.95 162.468 1150.31 160.716 1151.03 159.204C1151.75 157.692 1152.78 156.516 1154.13 155.676C1155.49 154.836 1157.1 154.416 1158.95 154.416ZM1158.95 157.908C1156.19 157.908 1154.81 160.092 1154.81 164.46C1154.81 166.716 1155.15 168.384 1155.82 169.464C1156.51 170.52 1157.55 171.048 1158.91 171.048C1160.28 171.048 1161.3 170.508 1161.97 169.428C1162.67 168.348 1163.02 166.692 1163.02 164.46C1163.02 162.228 1162.67 160.584 1161.97 159.528C1161.3 158.448 1160.29 157.908 1158.95 157.908ZM1192.39 154.416C1193.93 154.416 1195.15 154.944 1196.07 156C1196.98 157.032 1197.43 158.436 1197.43 160.212V174H1192.83V160.932C1192.83 158.892 1192.13 157.872 1190.74 157.872C1189.99 157.872 1189.35 158.112 1188.79 158.592C1188.27 159.048 1187.71 159.768 1187.14 160.752V174H1182.53V160.932C1182.53 158.892 1181.83 157.872 1180.44 157.872C1179.67 157.872 1179.01 158.112 1178.46 158.592C1177.93 159.048 1177.38 159.768 1176.81 160.752V174H1172.2V154.956H1176.19L1176.55 157.44C1177.99 155.424 1179.83 154.416 1182.06 154.416C1183.17 154.416 1184.11 154.704 1184.91 155.28C1185.72 155.832 1186.31 156.612 1186.67 157.62C1187.44 156.588 1188.28 155.796 1189.19 155.244C1190.13 154.692 1191.19 154.416 1192.39 154.416ZM1212.65 154.416C1215.05 154.416 1216.82 155.292 1217.98 157.044C1219.13 158.796 1219.7 161.256 1219.7 164.424C1219.7 166.392 1219.4 168.144 1218.8 169.68C1218.23 171.192 1217.36 172.38 1216.21 173.244C1215.08 174.108 1213.74 174.54 1212.18 174.54C1210.16 174.54 1208.57 173.844 1207.39 172.452V181.344L1202.78 181.848V154.956H1206.82L1207.07 157.296C1207.81 156.336 1208.66 155.616 1209.62 155.136C1210.58 154.656 1211.59 154.416 1212.65 154.416ZM1210.88 171.012C1213.55 171.012 1214.88 168.828 1214.88 164.46C1214.88 162.132 1214.58 160.452 1213.98 159.42C1213.38 158.388 1212.48 157.872 1211.28 157.872C1210.51 157.872 1209.79 158.112 1209.12 158.592C1208.45 159.048 1207.87 159.672 1207.39 160.464V169.032C1208.28 170.352 1209.44 171.012 1210.88 171.012ZM1228.73 174.54C1227.27 174.54 1226.11 174.12 1225.27 173.28C1224.46 172.416 1224.05 171.204 1224.05 169.644V147.324L1228.66 146.82V169.5C1228.66 170.388 1229.02 170.832 1229.74 170.832C1230.1 170.832 1230.46 170.772 1230.82 170.652L1231.79 173.892C1230.83 174.324 1229.81 174.54 1228.73 174.54ZM1250.29 164.028C1250.29 164.268 1250.26 164.892 1250.19 165.9H1238.23C1238.38 167.748 1238.86 169.068 1239.67 169.86C1240.49 170.652 1241.57 171.048 1242.91 171.048C1243.75 171.048 1244.55 170.916 1245.29 170.652C1246.03 170.364 1246.83 169.932 1247.67 169.356L1249.57 171.984C1247.46 173.688 1245.11 174.54 1242.52 174.54C1239.61 174.54 1237.37 173.652 1235.79 171.876C1234.23 170.1 1233.45 167.676 1233.45 164.604C1233.45 162.66 1233.78 160.92 1234.45 159.384C1235.13 157.824 1236.1 156.612 1237.37 155.748C1238.64 154.86 1240.15 154.416 1241.91 154.416C1244.57 154.416 1246.63 155.268 1248.1 156.972C1249.56 158.652 1250.29 161.004 1250.29 164.028ZM1245.72 162.696C1245.72 159.36 1244.49 157.692 1242.01 157.692C1240.89 157.692 1240 158.112 1239.35 158.952C1238.73 159.768 1238.35 161.088 1238.23 162.912H1245.72V162.696ZM1265.34 173.1C1264.66 173.58 1263.91 173.94 1263.07 174.18C1262.25 174.42 1261.41 174.54 1260.55 174.54C1258.68 174.516 1257.25 173.988 1256.26 172.956C1255.3 171.9 1254.82 170.352 1254.82 168.312V158.268H1251.84V154.956H1254.82V150.744L1259.43 150.204V154.956H1263.86L1263.39 158.268H1259.43V168.204C1259.43 169.14 1259.59 169.812 1259.9 170.22C1260.24 170.628 1260.75 170.832 1261.45 170.832C1262.14 170.832 1262.9 170.604 1263.72 170.148L1265.34 173.1ZM1282.96 164.028C1282.96 164.268 1282.92 164.892 1282.85 165.9H1270.9C1271.04 167.748 1271.52 169.068 1272.34 169.86C1273.15 170.652 1274.23 171.048 1275.58 171.048C1276.42 171.048 1277.21 170.916 1277.95 170.652C1278.7 170.364 1279.49 169.932 1280.33 169.356L1282.24 171.984C1280.12 173.688 1277.77 174.54 1275.18 174.54C1272.28 174.54 1270.03 173.652 1268.45 171.876C1266.89 170.1 1266.11 167.676 1266.11 164.604C1266.11 162.66 1266.44 160.92 1267.12 159.384C1267.79 157.824 1268.76 156.612 1270.03 155.748C1271.3 154.86 1272.82 154.416 1274.57 154.416C1277.23 154.416 1279.3 155.268 1280.76 156.972C1282.22 158.652 1282.96 161.004 1282.96 164.028ZM1278.38 162.696C1278.38 159.36 1277.15 157.692 1274.68 157.692C1273.55 157.692 1272.66 158.112 1272.01 158.952C1271.39 159.768 1271.02 161.088 1270.9 162.912H1278.38V162.696ZM1312.22 149.124L1311.71 152.904H1305.23V174H1300.44V152.904H1293.75V149.124H1312.22ZM1327.46 168.96C1327.46 169.704 1327.57 170.256 1327.79 170.616C1328.03 170.952 1328.4 171.216 1328.9 171.408L1327.93 174.468C1326.85 174.372 1325.96 174.108 1325.27 173.676C1324.59 173.244 1324.08 172.584 1323.72 171.696C1323.07 172.656 1322.25 173.376 1321.27 173.856C1320.31 174.312 1319.23 174.54 1318.03 174.54C1316.13 174.54 1314.63 174 1313.53 172.92C1312.43 171.84 1311.87 170.424 1311.87 168.672C1311.87 166.608 1312.62 165.036 1314.11 163.956C1315.62 162.852 1317.77 162.3 1320.55 162.3H1322.93V161.22C1322.93 159.996 1322.64 159.144 1322.06 158.664C1321.51 158.16 1320.61 157.908 1319.36 157.908C1317.97 157.908 1316.29 158.244 1314.32 158.916L1313.24 155.784C1315.62 154.872 1317.92 154.416 1320.15 154.416C1325.03 154.416 1327.46 156.6 1327.46 160.968V168.96ZM1319.25 171.192C1320.81 171.192 1322.04 170.412 1322.93 168.852V165H1321.02C1318.04 165 1316.55 166.104 1316.55 168.312C1316.55 169.224 1316.78 169.932 1317.24 170.436C1317.69 170.94 1318.37 171.192 1319.25 171.192ZM1338.7 154.416C1341.27 154.416 1343.52 155.172 1345.47 156.684L1343.67 159.384C1342.03 158.352 1340.44 157.836 1338.88 157.836C1337.97 157.836 1337.26 158.016 1336.75 158.376C1336.25 158.712 1336 159.168 1336 159.744C1336 160.176 1336.11 160.536 1336.32 160.824C1336.54 161.112 1336.92 161.388 1337.47 161.652C1338.05 161.892 1338.89 162.168 1339.99 162.48C1342.06 163.032 1343.58 163.764 1344.57 164.676C1345.57 165.588 1346.08 166.86 1346.08 168.492C1346.08 170.388 1345.31 171.876 1343.77 172.956C1342.24 174.012 1340.33 174.54 1338.05 174.54C1336.49 174.54 1335.06 174.3 1333.77 173.82C1332.49 173.34 1331.39 172.68 1330.45 171.84L1332.76 169.248C1334.41 170.496 1336.14 171.12 1337.94 171.12C1338.97 171.12 1339.79 170.916 1340.39 170.508C1341.01 170.1 1341.33 169.536 1341.33 168.816C1341.33 168.264 1341.21 167.832 1340.97 167.52C1340.75 167.184 1340.34 166.896 1339.74 166.656C1339.17 166.392 1338.25 166.08 1337.01 165.72C1335.06 165.192 1333.63 164.46 1332.72 163.524C1331.81 162.564 1331.35 161.376 1331.35 159.96C1331.35 158.904 1331.65 157.956 1332.25 157.116C1332.88 156.276 1333.74 155.616 1334.85 155.136C1335.97 154.656 1337.26 154.416 1338.7 154.416ZM1354.42 146.82V174H1349.81V147.324L1354.42 146.82ZM1365.83 154.956L1359.49 163.344L1366.44 174H1361.15L1354.6 163.596L1360.97 154.956H1365.83ZM1383.62 149.34C1385.23 149.34 1386.61 149.616 1387.76 150.168C1388.93 150.72 1389.81 151.464 1390.39 152.4C1390.99 153.336 1391.29 154.368 1391.29 155.496C1391.29 156.96 1390.87 158.184 1390.03 159.168C1389.19 160.128 1388.03 160.8 1386.57 161.184C1388.18 161.328 1389.5 161.904 1390.53 162.912C1391.56 163.92 1392.08 165.312 1392.08 167.088C1392.08 168.48 1391.72 169.74 1391 170.868C1390.3 171.996 1389.29 172.896 1387.97 173.568C1386.65 174.216 1385.09 174.54 1383.29 174.54C1379.98 174.54 1377.37 173.376 1375.45 171.048L1378 168.6C1378.82 169.416 1379.62 170.016 1380.41 170.4C1381.21 170.76 1382.08 170.94 1383.04 170.94C1384.34 170.94 1385.37 170.58 1386.14 169.86C1386.93 169.116 1387.33 168.12 1387.33 166.872C1387.33 165.48 1386.95 164.484 1386.21 163.884C1385.49 163.284 1384.41 162.984 1382.97 162.984H1381.06L1381.6 159.708H1382.9C1384.07 159.708 1385.01 159.384 1385.71 158.736C1386.43 158.088 1386.79 157.188 1386.79 156.036C1386.79 155.052 1386.46 154.284 1385.81 153.732C1385.17 153.156 1384.3 152.868 1383.22 152.868C1382.29 152.868 1381.43 153.048 1380.67 153.408C1379.9 153.744 1379.13 154.272 1378.36 154.992L1376.02 152.436C1378.21 150.372 1380.74 149.34 1383.62 149.34ZM1415.25 154.416C1417.46 154.416 1419.19 155.304 1420.44 157.08C1421.69 158.832 1422.31 161.292 1422.31 164.46C1422.31 166.428 1422 168.18 1421.37 169.716C1420.77 171.228 1419.91 172.416 1418.78 173.28C1417.65 174.12 1416.32 174.54 1414.79 174.54C1413.75 174.54 1412.81 174.324 1411.94 173.892C1411.1 173.46 1410.37 172.848 1409.75 172.056L1409.46 174H1405.39V147.324L1410 146.82V157.116C1410.62 156.252 1411.38 155.592 1412.27 155.136C1413.18 154.656 1414.17 154.416 1415.25 154.416ZM1413.53 171.084C1414.77 171.084 1415.75 170.556 1416.44 169.5C1417.14 168.42 1417.49 166.74 1417.49 164.46C1417.49 162.06 1417.16 160.368 1416.51 159.384C1415.87 158.376 1414.95 157.872 1413.78 157.872C1412.31 157.872 1411.05 158.736 1410 160.464V168.888C1410.41 169.584 1410.91 170.124 1411.51 170.508C1412.13 170.892 1412.81 171.084 1413.53 171.084ZM1435.84 174.072C1435.07 176.424 1433.91 178.248 1432.35 179.544C1430.79 180.864 1428.65 181.632 1425.94 181.848L1425.47 178.5C1426.72 178.308 1427.72 178.032 1428.46 177.672C1429.23 177.336 1429.84 176.88 1430.3 176.304C1430.75 175.728 1431.17 174.96 1431.56 174H1429.97L1423.92 154.956H1428.82L1432.96 170.94L1437.28 154.956H1442.03L1435.84 174.072Z" fill="#3A453F"/>
<path d="M647.167 363.629C652.884 363.629 657.791 364.61 661.887 366.573C666.068 368.535 669.183 371.181 671.231 374.509C673.364 377.837 674.431 381.506 674.431 385.517C674.431 390.722 672.937 395.074 669.951 398.573C666.964 401.986 662.868 404.375 657.663 405.741C663.38 406.253 668.073 408.301 671.743 411.885C675.412 415.469 677.247 420.418 677.247 426.733C677.247 431.682 675.967 436.162 673.407 440.173C670.932 444.183 667.348 447.383 662.655 449.773C657.961 452.077 652.415 453.229 646.015 453.229C634.239 453.229 624.937 449.09 618.111 440.813L627.199 432.109C630.1 435.01 632.959 437.143 635.775 438.509C638.591 439.789 641.705 440.429 645.119 440.429C649.727 440.429 653.396 439.149 656.127 436.589C658.943 433.943 660.351 430.402 660.351 425.965C660.351 421.015 659.028 417.474 656.383 415.341C653.823 413.207 649.983 412.141 644.863 412.141H638.079L639.999 400.493H644.607C648.788 400.493 652.116 399.341 654.591 397.037C657.151 394.733 658.431 391.533 658.431 387.437C658.431 383.938 657.279 381.207 654.975 379.245C652.671 377.197 649.599 376.173 645.759 376.173C642.431 376.173 639.401 376.813 636.671 378.093C633.94 379.287 631.209 381.165 628.479 383.725L620.159 374.637C627.924 367.298 636.927 363.629 647.167 363.629ZM697.953 432.493C700.854 432.493 703.329 433.517 705.377 435.565C707.425 437.527 708.449 439.959 708.449 442.861C708.449 445.677 707.425 448.109 705.377 450.157C703.329 452.205 700.854 453.229 697.953 453.229C695.137 453.229 692.705 452.205 690.657 450.157C688.694 448.109 687.713 445.677 687.713 442.861C687.713 439.959 688.694 437.527 690.657 435.565C692.619 433.517 695.051 432.493 697.953 432.493ZM754.205 393.965C758.727 393.965 762.823 395.074 766.493 397.293C770.247 399.426 773.191 402.626 775.325 406.893C777.458 411.074 778.525 416.109 778.525 421.997C778.525 427.97 777.287 433.346 774.813 438.125C772.338 442.818 768.839 446.53 764.317 449.261C759.879 451.906 754.802 453.229 749.085 453.229C738.503 453.229 730.653 449.517 725.533 442.093C720.498 434.669 717.981 424.471 717.981 411.501C717.981 401.943 719.389 393.581 722.205 386.413C725.106 379.159 729.202 373.57 734.493 369.645C739.869 365.634 746.141 363.629 753.309 363.629C760.391 363.629 766.663 365.463 772.125 369.133L765.981 379.245C762.055 376.941 757.917 375.789 753.565 375.789C748.103 375.789 743.709 378.263 740.381 383.213C737.138 388.077 735.303 394.818 734.877 403.437C740.082 397.122 746.525 393.965 754.205 393.965ZM749.085 441.069C753.351 441.069 756.551 439.405 758.685 436.077C760.903 432.663 762.013 428.055 762.013 422.253C762.013 416.365 760.989 412.183 758.941 409.709C756.978 407.149 754.077 405.869 750.237 405.869C747.335 405.869 744.562 406.679 741.917 408.301C739.357 409.837 737.053 411.97 735.005 414.701C735.175 424.002 736.327 430.743 738.461 434.925C740.679 439.021 744.221 441.069 749.085 441.069ZM850.436 360.941C856.665 360.941 862.084 361.837 866.692 363.629C871.3 365.421 875.609 368.151 879.62 371.821L871.3 381.421C868.142 378.775 864.942 376.855 861.7 375.661C858.542 374.466 855.129 373.869 851.46 373.869C847.364 373.869 844.036 374.807 841.476 376.685C839.001 378.477 837.764 381.037 837.764 384.365C837.764 386.583 838.233 388.418 839.172 389.869C840.196 391.319 841.988 392.685 844.548 393.965C847.108 395.245 850.905 396.653 855.94 398.189C864.644 400.919 871.172 404.333 875.524 408.429C879.961 412.439 882.18 418.327 882.18 426.093C882.18 431.383 880.814 436.077 878.084 440.173C875.438 444.269 871.598 447.469 866.564 449.773C861.529 452.077 855.556 453.229 848.644 453.229C841.902 453.229 835.844 452.162 830.468 450.029C825.177 447.81 820.612 444.823 816.772 441.069L825.476 431.341C828.889 434.242 832.43 436.461 836.1 437.997C839.769 439.447 843.822 440.173 848.26 440.173C853.124 440.173 857.049 439.021 860.036 436.717C863.022 434.413 864.516 431.17 864.516 426.989C864.516 424.429 864.004 422.338 862.98 420.717C861.956 419.01 860.206 417.517 857.732 416.237C855.257 414.871 851.673 413.463 846.98 412.013C837.593 409.111 830.809 405.613 826.628 401.517C822.446 397.421 820.356 392.045 820.356 385.389C820.356 380.525 821.636 376.258 824.196 372.589C826.756 368.919 830.297 366.061 834.82 364.013C839.428 361.965 844.633 360.941 850.436 360.941ZM951.629 415.853C951.629 416.706 951.501 418.925 951.245 422.509H908.749C909.261 429.079 910.967 433.773 913.869 436.589C916.77 439.405 920.61 440.813 925.389 440.813C928.375 440.813 931.191 440.343 933.837 439.405C936.482 438.381 939.298 436.845 942.285 434.797L949.069 444.141C941.559 450.199 933.197 453.229 923.981 453.229C913.655 453.229 905.677 450.071 900.045 443.757C894.498 437.442 891.725 428.823 891.725 417.901C891.725 410.989 892.919 404.802 895.309 399.341C897.698 393.794 901.154 389.485 905.677 386.413C910.199 383.255 915.575 381.677 921.805 381.677C931.277 381.677 938.615 384.706 943.821 390.765C949.026 396.738 951.629 405.101 951.629 415.853ZM935.373 411.117C935.373 399.255 930.978 393.325 922.189 393.325C918.178 393.325 915.021 394.818 912.717 397.805C910.498 400.706 909.175 405.399 908.749 411.885H935.373V411.117ZM993.591 381.677C998.028 381.677 1002 382.317 1005.49 383.597C1009.08 384.877 1012.45 386.882 1015.61 389.613L1008.31 399.469C1006.01 397.762 1003.79 396.525 1001.65 395.757C999.521 394.989 997.175 394.605 994.615 394.605C984.46 394.605 979.383 402.327 979.383 417.773C979.383 425.623 980.705 431.298 983.351 434.797C985.996 438.21 989.751 439.917 994.615 439.917C997.004 439.917 999.18 439.533 1001.14 438.765C1003.19 437.997 1005.58 436.759 1008.31 435.053L1015.61 445.421C1009.21 450.626 1001.91 453.229 993.719 453.229C987.233 453.229 981.601 451.821 976.823 449.005C972.044 446.103 968.375 442.007 965.815 436.717C963.255 431.426 961.975 425.197 961.975 418.029C961.975 410.861 963.255 404.546 965.815 399.085C968.375 393.538 972.044 389.271 976.823 386.285C981.601 383.213 987.191 381.677 993.591 381.677ZM1052.6 381.677C1062.58 381.677 1070.35 384.877 1075.9 391.277C1081.53 397.591 1084.34 406.295 1084.34 417.389C1084.34 424.471 1083.06 430.743 1080.5 436.205C1077.94 441.581 1074.27 445.762 1069.5 448.749C1064.72 451.735 1059.04 453.229 1052.47 453.229C1042.49 453.229 1034.68 450.071 1029.05 443.757C1023.42 437.357 1020.6 428.567 1020.6 417.389C1020.6 410.306 1021.88 404.077 1024.44 398.701C1027 393.325 1030.67 389.143 1035.45 386.157C1040.31 383.17 1046.03 381.677 1052.6 381.677ZM1052.6 394.093C1042.79 394.093 1037.88 401.858 1037.88 417.389C1037.88 425.41 1039.07 431.341 1041.46 435.181C1043.94 438.935 1047.61 440.813 1052.47 440.813C1057.34 440.813 1060.96 438.893 1063.35 435.053C1065.83 431.213 1067.06 425.325 1067.06 417.389C1067.06 409.453 1065.83 403.607 1063.35 399.853C1060.96 396.013 1057.38 394.093 1052.6 394.093ZM1135.8 381.677C1141.86 381.677 1146.55 383.511 1149.88 387.181C1153.29 390.765 1155 395.799 1155 402.285V451.309H1138.61V404.845C1138.61 400.834 1137.89 398.018 1136.44 396.397C1135.07 394.775 1133.02 393.965 1130.29 393.965C1127.48 393.965 1124.92 394.861 1122.61 396.653C1120.4 398.359 1118.22 400.877 1116.09 404.205V451.309H1099.7V383.597H1113.91L1115.19 392.429C1120.74 385.261 1127.61 381.677 1135.8 381.677ZM1231.04 356.461V451.309H1216.57L1215.42 442.733C1213.29 445.975 1210.56 448.535 1207.23 450.413C1203.99 452.29 1200.27 453.229 1196.09 453.229C1187.82 453.229 1181.46 450.029 1177.02 443.629C1172.58 437.229 1170.36 428.525 1170.36 417.517C1170.36 410.605 1171.47 404.461 1173.69 399.085C1175.91 393.623 1179.07 389.357 1183.16 386.285C1187.35 383.213 1192.17 381.677 1197.63 381.677C1204.11 381.677 1209.79 384.109 1214.65 388.973V354.669L1231.04 356.461ZM1200.7 440.813C1203.6 440.813 1206.16 440.13 1208.38 438.765C1210.6 437.314 1212.69 435.095 1214.65 432.109V401.133C1212.69 398.743 1210.68 396.951 1208.64 395.757C1206.67 394.562 1204.37 393.965 1201.72 393.965C1197.37 393.965 1193.92 395.927 1191.36 399.853C1188.88 403.693 1187.64 409.538 1187.64 417.389C1187.64 425.751 1188.75 431.767 1190.97 435.437C1193.19 439.021 1196.43 440.813 1200.7 440.813ZM1272.08 381.677C1281.21 381.677 1289.23 384.365 1296.14 389.741L1289.74 399.341C1283.94 395.671 1278.26 393.837 1272.72 393.837C1269.48 393.837 1266.96 394.477 1265.17 395.757C1263.37 396.951 1262.48 398.573 1262.48 400.621C1262.48 402.157 1262.86 403.437 1263.63 404.461C1264.4 405.485 1265.76 406.466 1267.73 407.405C1269.77 408.258 1272.76 409.239 1276.69 410.349C1284.02 412.311 1289.44 414.914 1292.94 418.157C1296.53 421.399 1298.32 425.922 1298.32 431.725C1298.32 438.466 1295.59 443.757 1290.13 447.597C1284.66 451.351 1277.88 453.229 1269.77 453.229C1264.23 453.229 1259.15 452.375 1254.54 450.669C1250.02 448.962 1246.09 446.615 1242.77 443.629L1250.96 434.413C1256.85 438.85 1262.99 441.069 1269.39 441.069C1273.06 441.069 1275.96 440.343 1278.09 438.893C1280.31 437.442 1281.42 435.437 1281.42 432.877C1281.42 430.914 1281 429.378 1280.14 428.269C1279.37 427.074 1277.92 426.05 1275.79 425.197C1273.74 424.258 1270.5 423.149 1266.06 421.869C1259.15 419.991 1254.07 417.389 1250.83 414.061C1247.59 410.647 1245.97 406.423 1245.97 401.389C1245.97 397.634 1247.03 394.263 1249.17 391.277C1251.38 388.29 1254.46 385.943 1258.38 384.237C1262.39 382.53 1266.96 381.677 1272.08 381.677Z" fill="#3A453F"/>
<line x1="584.093" y1="536.754" x2="1335.1" y2="536.754" stroke="#02B562" stroke-width="7"/>
<line x1="584.093" y1="291.723" x2="1335.1" y2="291.723" stroke="#02B562" stroke-width="7"/>
</svg>
