<svg width="1920" height="1080" viewBox="0 0 1920 1080" fill="none" xmlns="http://www.w3.org/2000/svg">
<rect width="1920" height="1080" fill="white"/>
<rect x="378" y="258" width="1165" height="564" rx="52" fill="#D9D9D9" fill-opacity="0.1"/>
<path d="M640 586V509.375H613V495.812H683V509.375H656.062V586H640ZM692.655 586V495.812H708.78V533.312H752.655V495.812H768.717V586H752.655V546.875H708.78V586H692.655ZM776.997 586L809.247 495.812H822.809V511.875H818.122L793.872 586H776.997ZM793.309 562.688L797.622 550.25H838.934L843.247 562.688H793.309ZM842.684 586L818.434 511.875V495.812H827.372L859.559 586H842.684ZM867.839 586V495.812H882.339L935.089 571.688L919.839 559.062H926.651V495.812H942.651V586H928.276L875.464 509.938L890.714 522.5H883.839V586H867.839ZM972.431 557.938V538.188H973.681L1008.68 495.812H1027.12L992.993 536.562H990.493L972.431 557.938ZM957.181 586V495.812H973.306V586H957.181ZM1010.24 586L979.931 543.188L991.493 532.438L1029.81 586H1010.24ZM1086.61 586V550.438L1054.99 495.812H1072.61L1094.43 535.062H1094.86L1116.68 495.812H1134.3L1102.68 550.438V586H1086.61ZM1174.58 587.562C1165.79 587.562 1158.19 585.667 1151.77 581.875C1145.39 578.083 1140.46 572.708 1136.96 565.75C1133.5 558.75 1131.77 550.479 1131.77 540.938V540.812C1131.77 531.271 1133.52 523.021 1137.02 516.062C1140.52 509.104 1145.46 503.729 1151.83 499.938C1158.25 496.146 1165.83 494.25 1174.58 494.25C1183.33 494.25 1190.89 496.146 1197.27 499.938C1203.69 503.729 1208.62 509.104 1212.08 516.062C1215.58 523.021 1217.33 531.271 1217.33 540.812V540.938C1217.33 550.479 1215.58 558.75 1212.08 565.75C1208.62 572.708 1203.71 578.083 1197.33 581.875C1190.96 585.667 1183.37 587.562 1174.58 587.562ZM1174.58 573.625C1180.04 573.625 1184.73 572.292 1188.64 569.625C1192.6 566.917 1195.64 563.125 1197.77 558.25C1199.89 553.333 1200.96 547.562 1200.96 540.938V540.812C1200.96 534.146 1199.87 528.375 1197.71 523.5C1195.58 518.583 1192.54 514.812 1188.58 512.188C1184.62 509.521 1179.96 508.188 1174.58 508.188C1169.25 508.188 1164.58 509.521 1160.58 512.188C1156.62 514.812 1153.56 518.562 1151.39 523.438C1149.27 528.312 1148.21 534.104 1148.21 540.812V540.938C1148.21 547.604 1149.27 553.396 1151.39 558.312C1153.56 563.188 1156.62 566.958 1160.58 569.625C1164.54 572.292 1169.21 573.625 1174.58 573.625ZM1265.92 587.562C1258.3 587.562 1251.72 586.167 1246.17 583.375C1240.63 580.583 1236.34 576.688 1233.3 571.688C1230.3 566.688 1228.8 560.854 1228.8 554.188V495.812H1244.92V552.875C1244.92 557.042 1245.74 560.688 1247.36 563.812C1249.03 566.896 1251.42 569.312 1254.55 571.062C1257.67 572.771 1261.47 573.625 1265.92 573.625C1270.38 573.625 1274.17 572.771 1277.3 571.062C1280.42 569.312 1282.8 566.896 1284.42 563.812C1286.05 560.688 1286.86 557.042 1286.86 552.875V495.812H1302.92V554.188C1302.92 560.812 1301.42 566.646 1298.42 571.688C1295.47 576.688 1291.22 580.583 1285.67 583.375C1280.13 586.167 1273.55 587.562 1265.92 587.562Z" fill="black"/>
<path d="M1439.33 303L1447.95 280.453H1448.89V282.031H1448.55L1440.64 303H1439.33ZM1442.84 295.469L1443.25 294.391H1453.88L1454.27 295.469H1442.84ZM1456.5 303L1448.59 282.031V280.453H1449.19L1457.8 303H1456.5ZM1459.8 303V280.453H1466.77C1469.05 280.453 1470.99 280.896 1472.59 281.781C1474.18 282.667 1475.4 283.948 1476.24 285.625C1477.1 287.292 1477.52 289.318 1477.52 291.703V291.734C1477.52 294.13 1477.1 296.167 1476.26 297.844C1475.41 299.521 1474.19 300.802 1472.59 301.688C1470.98 302.562 1469.04 303 1466.77 303H1459.8ZM1461.02 301.875H1466.71C1468.76 301.875 1470.5 301.484 1471.91 300.703C1473.34 299.911 1474.42 298.76 1475.16 297.25C1475.9 295.74 1476.27 293.906 1476.27 291.75V291.719C1476.27 289.552 1475.9 287.714 1475.16 286.203C1474.42 284.693 1473.34 283.547 1471.91 282.766C1470.5 281.974 1468.76 281.578 1466.71 281.578H1461.02V301.875Z" fill="black"/>
<rect x="1399" y="739" width="96" height="44" rx="22" fill="#D9D9D9" fill-opacity="0.39"/>
<path d="M1428.05 774.328C1426.51 774.328 1425.14 774.073 1423.94 773.562C1422.75 773.052 1421.81 772.328 1421.11 771.391C1420.41 770.453 1420.02 769.359 1419.92 768.109L1419.91 767.906H1421.14L1421.16 768.109C1421.26 769.13 1421.61 770.021 1422.2 770.781C1422.81 771.542 1423.61 772.135 1424.61 772.562C1425.62 772.979 1426.78 773.188 1428.09 773.188C1429.4 773.188 1430.54 772.984 1431.52 772.578C1432.49 772.161 1433.26 771.583 1433.8 770.844C1434.34 770.104 1434.61 769.24 1434.61 768.25V768.234C1434.61 766.964 1434.18 765.953 1433.33 765.203C1432.48 764.453 1431.07 763.849 1429.08 763.391L1426.66 762.844C1424.5 762.344 1422.93 761.63 1421.94 760.703C1420.96 759.766 1420.47 758.531 1420.47 757V756.969C1420.48 755.833 1420.8 754.828 1421.44 753.953C1422.07 753.068 1422.94 752.375 1424.05 751.875C1425.15 751.375 1426.41 751.125 1427.81 751.125C1429.24 751.125 1430.51 751.385 1431.62 751.906C1432.74 752.417 1433.63 753.141 1434.3 754.078C1434.96 755.016 1435.34 756.104 1435.44 757.344L1435.45 757.547H1434.23L1434.2 757.344C1434.11 756.312 1433.78 755.422 1433.22 754.672C1432.66 753.911 1431.91 753.323 1430.98 752.906C1430.07 752.479 1429.01 752.266 1427.8 752.266C1426.6 752.266 1425.54 752.464 1424.62 752.859C1423.72 753.255 1423.01 753.807 1422.48 754.516C1421.97 755.214 1421.72 756.026 1421.72 756.953V756.969C1421.72 758.188 1422.14 759.177 1422.98 759.938C1423.83 760.688 1425.18 761.276 1427.03 761.703L1429.47 762.266C1431 762.609 1432.23 763.042 1433.17 763.562C1434.11 764.083 1434.79 764.719 1435.22 765.469C1435.65 766.219 1435.86 767.125 1435.86 768.188V768.203C1435.86 769.432 1435.53 770.505 1434.88 771.422C1434.23 772.339 1433.32 773.052 1432.14 773.562C1430.97 774.073 1429.61 774.328 1428.05 774.328ZM1439.44 765.938V764.109H1439.69L1451.32 751.453H1452.88L1443.6 761.516H1443.54L1439.44 765.938ZM1438.4 774V751.453H1439.62V774H1438.4ZM1452.34 774L1442.74 762.109L1443.62 761.25L1453.91 774H1452.34ZM1455.73 774V751.453H1456.95V774H1455.73ZM1461.21 764.906V763.781H1467.58C1469.5 763.781 1471.01 763.281 1472.12 762.281C1473.23 761.281 1473.79 759.917 1473.79 758.188V758.156C1473.79 756.417 1473.23 755.052 1472.12 754.062C1471.01 753.073 1469.5 752.578 1467.58 752.578H1461.21V751.453H1467.79C1469.25 751.453 1470.52 751.729 1471.6 752.281C1472.68 752.823 1473.53 753.599 1474.13 754.609C1474.74 755.609 1475.04 756.786 1475.04 758.141V758.172C1475.04 759.536 1474.74 760.724 1474.13 761.734C1473.53 762.734 1472.68 763.516 1471.6 764.078C1470.52 764.63 1469.25 764.906 1467.79 764.906H1461.21ZM1460.6 774V751.453H1461.82V774H1460.6Z" fill="#818181"/>
</svg>
