<svg width="2500" height="1406" viewBox="0 0 2500 1406" fill="none" xmlns="http://www.w3.org/2000/svg">
<rect width="2500" height="1406" fill="black"/>
<path d="M1013.25 722L1010.9 687.1H1016.55L1017.65 707.2L1018.1 715.5H1018.55L1022.05 695.15H1028.15L1031.65 715.5H1032.1L1032.55 707.2L1033.65 687.1H1039.1L1036.75 722H1028.3L1025.2 702.25H1024.8L1021.7 722H1013.25ZM1054.98 722.6C1053.01 722.6 1051.25 722.283 1049.68 721.65C1048.15 721.017 1046.83 720.117 1045.73 718.95C1044.66 717.783 1043.83 716.367 1043.23 714.7C1042.66 713.033 1042.38 711.167 1042.38 709.1C1042.38 707.033 1042.66 705.167 1043.23 703.5C1043.83 701.833 1044.66 700.417 1045.73 699.25C1046.83 698.083 1048.15 697.183 1049.68 696.55C1051.25 695.917 1053.01 695.6 1054.98 695.6C1056.91 695.6 1058.66 695.917 1060.23 696.55C1061.8 697.183 1063.11 698.083 1064.18 699.25C1065.28 700.417 1066.11 701.833 1066.68 703.5C1067.28 705.167 1067.58 707.033 1067.58 709.1C1067.58 711.167 1067.28 713.033 1066.68 714.7C1066.11 716.367 1065.28 717.783 1064.18 718.95C1063.11 720.117 1061.8 721.017 1060.23 721.65C1058.66 722.283 1056.91 722.6 1054.98 722.6ZM1054.98 717.7C1056.81 717.7 1058.26 717.15 1059.33 716.05C1060.4 714.917 1060.93 713.267 1060.93 711.1V707.1C1060.93 704.933 1060.4 703.3 1059.33 702.2C1058.26 701.067 1056.81 700.5 1054.98 700.5C1053.15 700.5 1051.7 701.067 1050.63 702.2C1049.56 703.3 1049.03 704.933 1049.03 707.1V711.1C1049.03 713.267 1049.56 714.917 1050.63 716.05C1051.7 717.15 1053.15 717.7 1054.98 717.7ZM1073.71 716.95H1080.11V701.25H1073.71V696.2H1086.51V703.25H1086.91C1087.14 702.35 1087.46 701.483 1087.86 700.65C1088.29 699.783 1088.83 699.033 1089.46 698.4C1090.13 697.733 1090.93 697.2 1091.86 696.8C1092.79 696.4 1093.91 696.2 1095.21 696.2H1098.01V702.2H1092.71C1090.78 702.2 1089.26 702.767 1088.16 703.9C1087.06 705.033 1086.51 706.483 1086.51 708.25V716.95H1095.46V722H1073.71V716.95ZM1103.79 685H1110.19V706.7H1110.49L1114.24 702.6L1120.59 696.2H1128.04L1117.79 706.35L1129.14 722H1121.49L1113.24 710L1110.19 712.9V722H1103.79V685ZM1176.5 692.2C1175 692.2 1173.94 691.883 1173.3 691.25C1172.7 690.617 1172.4 689.85 1172.4 688.95V687.75C1172.4 686.85 1172.7 686.083 1173.3 685.45C1173.94 684.817 1175 684.5 1176.5 684.5C1178 684.5 1179.05 684.817 1179.65 685.45C1180.29 686.083 1180.6 686.85 1180.6 687.75V688.95C1180.6 689.85 1180.29 690.617 1179.65 691.25C1179.05 691.883 1178 692.2 1176.5 692.2ZM1164.8 716.95H1173.3V701.25H1164.8V696.2H1179.7V716.95H1187.6V722H1164.8V716.95ZM1193.63 722V696.2H1200.03V700.75H1200.28C1200.85 699.35 1201.72 698.15 1202.88 697.15C1204.08 696.117 1205.73 695.6 1207.83 695.6C1210.37 695.6 1212.42 696.45 1213.98 698.15C1215.58 699.817 1216.38 702.217 1216.38 705.35V722H1209.98V706.25C1209.98 702.517 1208.37 700.65 1205.13 700.65C1204.47 700.65 1203.83 700.733 1203.23 700.9C1202.63 701.067 1202.08 701.333 1201.58 701.7C1201.12 702.033 1200.73 702.45 1200.43 702.95C1200.17 703.45 1200.03 704.05 1200.03 704.75V722H1193.63ZM1253.84 722V687.1H1267.09C1270.49 687.1 1273.09 688.067 1274.89 690C1276.69 691.933 1277.59 694.567 1277.59 697.9C1277.59 701.233 1276.69 703.867 1274.89 705.8C1273.09 707.733 1270.49 708.7 1267.09 708.7H1260.39V722H1253.84ZM1260.39 703.35H1265.74C1267.51 703.35 1268.78 703 1269.54 702.3C1270.31 701.567 1270.69 700.417 1270.69 698.85V696.95C1270.69 695.383 1270.31 694.25 1269.54 693.55C1268.78 692.817 1267.51 692.45 1265.74 692.45H1260.39V703.35ZM1283.57 716.95H1289.97V701.25H1283.57V696.2H1296.37V703.25H1296.77C1297.01 702.35 1297.32 701.483 1297.72 700.65C1298.16 699.783 1298.69 699.033 1299.32 698.4C1299.99 697.733 1300.79 697.2 1301.72 696.8C1302.66 696.4 1303.77 696.2 1305.07 696.2H1307.87V702.2H1302.57C1300.64 702.2 1299.12 702.767 1298.02 703.9C1296.92 705.033 1296.37 706.483 1296.37 708.25V716.95H1305.32V722H1283.57V716.95ZM1324.8 722.6C1322.84 722.6 1321.07 722.283 1319.5 721.65C1317.97 721.017 1316.65 720.117 1315.55 718.95C1314.49 717.783 1313.65 716.367 1313.05 714.7C1312.49 713.033 1312.2 711.167 1312.2 709.1C1312.2 707.033 1312.49 705.167 1313.05 703.5C1313.65 701.833 1314.49 700.417 1315.55 699.25C1316.65 698.083 1317.97 697.183 1319.5 696.55C1321.07 695.917 1322.84 695.6 1324.8 695.6C1326.74 695.6 1328.49 695.917 1330.05 696.55C1331.62 697.183 1332.94 698.083 1334 699.25C1335.1 700.417 1335.94 701.833 1336.5 703.5C1337.1 705.167 1337.4 707.033 1337.4 709.1C1337.4 711.167 1337.1 713.033 1336.5 714.7C1335.94 716.367 1335.1 717.783 1334 718.95C1332.94 720.117 1331.62 721.017 1330.05 721.65C1328.49 722.283 1326.74 722.6 1324.8 722.6ZM1324.8 717.7C1326.64 717.7 1328.09 717.15 1329.15 716.05C1330.22 714.917 1330.75 713.267 1330.75 711.1V707.1C1330.75 704.933 1330.22 703.3 1329.15 702.2C1328.09 701.067 1326.64 700.5 1324.8 700.5C1322.97 700.5 1321.52 701.067 1320.45 702.2C1319.39 703.3 1318.85 704.933 1318.85 707.1V711.1C1318.85 713.267 1319.39 714.917 1320.45 716.05C1321.52 717.15 1322.97 717.7 1324.8 717.7ZM1368.59 724.7C1368.59 727.4 1367.45 729.383 1365.19 730.65C1362.95 731.95 1359.45 732.6 1354.69 732.6C1352.35 732.6 1350.4 732.45 1348.84 732.15C1347.27 731.883 1346 731.483 1345.04 730.95C1344.1 730.417 1343.44 729.767 1343.04 729C1342.64 728.267 1342.44 727.433 1342.44 726.5C1342.44 725.067 1342.85 723.967 1343.69 723.2C1344.52 722.433 1345.69 721.867 1347.19 721.5V721.1C1346.19 720.767 1345.39 720.3 1344.79 719.7C1344.22 719.1 1343.94 718.267 1343.94 717.2C1343.94 715.933 1344.35 714.983 1345.19 714.35C1346.05 713.717 1347.19 713.233 1348.59 712.9V712.65C1347.05 711.917 1345.85 710.883 1344.99 709.55C1344.12 708.217 1343.69 706.6 1343.69 704.7C1343.69 703.267 1343.94 702 1344.44 700.9C1344.97 699.767 1345.7 698.817 1346.64 698.05C1347.6 697.25 1348.75 696.65 1350.09 696.25C1351.42 695.817 1352.9 695.6 1354.54 695.6C1356.27 695.6 1357.84 695.833 1359.24 696.3V695.2C1359.24 694.2 1359.55 693.367 1360.19 692.7C1360.85 692.033 1361.77 691.7 1362.94 691.7H1367.59V696.5H1361.49V697.35C1362.75 698.117 1363.72 699.117 1364.39 700.35C1365.09 701.55 1365.44 703 1365.44 704.7C1365.44 706.133 1365.17 707.417 1364.64 708.55C1364.14 709.683 1363.4 710.633 1362.44 711.4C1361.5 712.167 1360.35 712.767 1358.99 713.2C1357.65 713.6 1356.17 713.8 1354.54 713.8C1353.87 713.8 1353.22 713.783 1352.59 713.75C1351.99 713.683 1351.4 713.567 1350.84 713.4C1350.37 713.567 1349.92 713.833 1349.49 714.2C1349.05 714.567 1348.84 715.05 1348.84 715.65C1348.84 716.45 1349.22 716.95 1349.99 717.15C1350.75 717.317 1351.67 717.4 1352.74 717.4H1358.59C1360.39 717.4 1361.92 717.583 1363.19 717.95C1364.45 718.283 1365.49 718.783 1366.29 719.45C1367.09 720.083 1367.67 720.85 1368.04 721.75C1368.4 722.65 1368.59 723.633 1368.59 724.7ZM1362.59 725.15C1362.59 724.383 1362.27 723.767 1361.64 723.3C1361.04 722.867 1359.9 722.65 1358.24 722.65H1349.34C1348.34 723.217 1347.84 724.05 1347.84 725.15C1347.84 726.05 1348.2 726.8 1348.94 727.4C1349.7 728 1350.99 728.3 1352.79 728.3H1356.94C1360.7 728.3 1362.59 727.25 1362.59 725.15ZM1354.54 709.6C1356.17 709.6 1357.37 709.217 1358.14 708.45C1358.9 707.65 1359.29 706.617 1359.29 705.35V704.05C1359.29 702.783 1358.9 701.767 1358.14 701C1357.37 700.2 1356.17 699.8 1354.54 699.8C1352.94 699.8 1351.75 700.2 1350.99 701C1350.22 701.767 1349.84 702.783 1349.84 704.05V705.35C1349.84 706.617 1350.22 707.65 1350.99 708.45C1351.75 709.217 1352.94 709.6 1354.54 709.6ZM1373.52 716.95H1379.92V701.25H1373.52V696.2H1386.32V703.25H1386.72C1386.95 702.35 1387.27 701.483 1387.67 700.65C1388.1 699.783 1388.63 699.033 1389.27 698.4C1389.93 697.733 1390.73 697.2 1391.67 696.8C1392.6 696.4 1393.72 696.2 1395.02 696.2H1397.82V702.2H1392.52C1390.58 702.2 1389.07 702.767 1387.97 703.9C1386.87 705.033 1386.32 706.483 1386.32 708.25V716.95H1395.27V722H1373.52V716.95ZM1415.35 722.6C1413.28 722.6 1411.45 722.283 1409.85 721.65C1408.25 721.017 1406.9 720.117 1405.8 718.95C1404.73 717.783 1403.91 716.383 1403.35 714.75C1402.78 713.083 1402.5 711.217 1402.5 709.15C1402.5 707.05 1402.78 705.167 1403.35 703.5C1403.95 701.833 1404.78 700.417 1405.85 699.25C1406.91 698.083 1408.2 697.183 1409.7 696.55C1411.23 695.917 1412.95 695.6 1414.85 695.6C1416.71 695.6 1418.4 695.917 1419.9 696.55C1421.4 697.15 1422.66 698.017 1423.7 699.15C1424.76 700.283 1425.58 701.65 1426.15 703.25C1426.71 704.85 1427 706.617 1427 708.55V710.65H1408.9V711.3C1408.9 713.167 1409.48 714.683 1410.65 715.85C1411.81 716.983 1413.45 717.55 1415.55 717.55C1417.15 717.55 1418.51 717.233 1419.65 716.6C1420.81 715.933 1421.78 715.067 1422.55 714L1426.2 717.65C1425.26 719.017 1423.9 720.183 1422.1 721.15C1420.33 722.117 1418.08 722.6 1415.35 722.6ZM1414.9 700.3C1413.1 700.3 1411.65 700.867 1410.55 702C1409.45 703.133 1408.9 704.633 1408.9 706.5V706.85H1420.6V706.4C1420.6 704.533 1420.08 703.05 1419.05 701.95C1418.05 700.85 1416.66 700.3 1414.9 700.3ZM1444.63 722.6C1441.79 722.6 1439.34 722.167 1437.28 721.3C1435.21 720.4 1433.59 719.2 1432.43 717.7L1436.18 714.3C1437.24 715.467 1438.46 716.367 1439.83 717C1441.23 717.633 1442.84 717.95 1444.68 717.95C1446.28 717.95 1447.56 717.683 1448.53 717.15C1449.49 716.617 1449.98 715.8 1449.98 714.7C1449.98 713.767 1449.64 713.133 1448.98 712.8C1448.34 712.467 1447.49 712.217 1446.43 712.05L1442.28 711.4C1441.21 711.233 1440.16 711 1439.13 710.7C1438.13 710.367 1437.23 709.917 1436.43 709.35C1435.66 708.783 1435.04 708.067 1434.58 707.2C1434.11 706.3 1433.88 705.217 1433.88 703.95C1433.88 701.25 1434.88 699.183 1436.88 697.75C1438.91 696.317 1441.69 695.6 1445.23 695.6C1447.73 695.6 1449.84 695.95 1451.58 696.65C1453.34 697.35 1454.79 698.333 1455.93 699.6L1452.58 703.3C1451.84 702.5 1450.86 701.8 1449.63 701.2C1448.43 700.567 1446.89 700.25 1445.03 700.25C1441.76 700.25 1440.13 701.267 1440.13 703.3C1440.13 704.233 1440.46 704.883 1441.13 705.25C1441.79 705.583 1442.66 705.833 1443.73 706L1447.83 706.65C1448.93 706.817 1449.98 707.067 1450.98 707.4C1452.01 707.7 1452.91 708.133 1453.68 708.7C1454.48 709.267 1455.11 709.983 1455.58 710.85C1456.04 711.717 1456.28 712.783 1456.28 714.05C1456.28 716.717 1455.24 718.817 1453.18 720.35C1451.14 721.85 1448.29 722.6 1444.63 722.6ZM1474.61 722.6C1471.77 722.6 1469.32 722.167 1467.26 721.3C1465.19 720.4 1463.57 719.2 1462.41 717.7L1466.16 714.3C1467.22 715.467 1468.44 716.367 1469.81 717C1471.21 717.633 1472.82 717.95 1474.66 717.95C1476.26 717.95 1477.54 717.683 1478.51 717.15C1479.47 716.617 1479.96 715.8 1479.96 714.7C1479.96 713.767 1479.62 713.133 1478.96 712.8C1478.32 712.467 1477.47 712.217 1476.41 712.05L1472.26 711.4C1471.19 711.233 1470.14 711 1469.11 710.7C1468.11 710.367 1467.21 709.917 1466.41 709.35C1465.64 708.783 1465.02 708.067 1464.56 707.2C1464.09 706.3 1463.86 705.217 1463.86 703.95C1463.86 701.25 1464.86 699.183 1466.86 697.75C1468.89 696.317 1471.67 695.6 1475.21 695.6C1477.71 695.6 1479.82 695.95 1481.56 696.65C1483.32 697.35 1484.77 698.333 1485.91 699.6L1482.56 703.3C1481.82 702.5 1480.84 701.8 1479.61 701.2C1478.41 700.567 1476.87 700.25 1475.01 700.25C1471.74 700.25 1470.11 701.267 1470.11 703.3C1470.11 704.233 1470.44 704.883 1471.11 705.25C1471.77 705.583 1472.64 705.833 1473.71 706L1477.81 706.65C1478.91 706.817 1479.96 707.067 1480.96 707.4C1481.99 707.7 1482.89 708.133 1483.66 708.7C1484.46 709.267 1485.09 709.983 1485.56 710.85C1486.02 711.717 1486.26 712.783 1486.26 714.05C1486.26 716.717 1485.22 718.817 1483.16 720.35C1481.12 721.85 1478.27 722.6 1474.61 722.6Z" fill="white"/>
</svg>
